<?xml version="1.0" standalone="no"?>
<!DOCTYPE svg PUBLIC "-//W3C//DTD SVG 1.1//EN" "http://www.w3.org/Graphics/SVG/1.1/DTD/svg11.dtd" >
<svg xmlns="http://www.w3.org/2000/svg" xmlns:xlink="http://www.w3.org/1999/xlink" version="1.1">
<metadata>
Created by FontForge 20170731 at Thu Mar  3 09:25:49 2016
 By Aleksey,,,
Copyright 2011 Eduardo Tunni (www.tipo.net.ar)
</metadata>
<defs>
<font id="Changa-Medium" horiz-adv-x="0" >
  <font-face 
    font-family="Changa Medium"
    font-weight="500"
    font-stretch="normal"
    units-per-em="1000"
    panose-1="0 0 6 0 0 0 0 0 0 0"
    ascent="800"
    descent="-200"
    x-height="500"
    cap-height="625"
    bbox="-632 -567 1793 1224"
    underline-thickness="50"
    underline-position="-150"
    unicode-range="U+0020-FEFC"
  />
<missing-glyph horiz-adv-x="497" 
 />
    <glyph glyph-name="f_f" unicode="ff" horiz-adv-x="678" 
d="M45 0zM234 591v-91h75v-83h-75v-417h-123v417h-66v83h66q4 68 17.5 105.5t41 53.5t76.5 16q47 0 96 -10l-7 -83zM573 591v-91h75v-83h-75v-417h-123v417h-66v83h66q4 68 17.5 105.5t41 53.5t76.5 16q47 0 96 -10l-7 -83z" />
    <glyph glyph-name="fi" unicode="fi" horiz-adv-x="624" 
d="M45 0zM234 591v-91h75v-83h-75v-417h-123v417h-66v83h66q4 68 17.5 105.5t41 53.5t76.5 16q47 0 96 -10l-7 -83zM543 506v-506h-123v489zM425 591.5q-15 14.5 -15 55.5q0 42 15.5 57t56.5 15t55.5 -15t14.5 -57q0 -41 -14 -55.5t-56 -14.5t-57 14.5z" />
    <glyph glyph-name="fl" unicode="fl" horiz-adv-x="619" 
d="M45 0zM234 591v-91h75v-83h-75v-417h-123v417h-66v83h66q4 68 17.5 105.5t41 53.5t76.5 16q47 0 96 -10l-7 -83zM586 84l-7 -83q-45 -12 -76 -12q-44 0 -65.5 20t-21.5 63v578l123 15v-575q20 -4 47 -6z" />
    <glyph glyph-name="f_f_i" unicode="ffi" horiz-adv-x="963" 
d="M45 0zM234 591v-91h75v-83h-75v-417h-123v417h-66v83h66q4 68 17.5 105.5t41 53.5t76.5 16q47 0 96 -10l-7 -83zM573 591v-91h75v-83h-75v-417h-123v417h-66v83h66q4 68 17.5 105.5t41 53.5t76.5 16q47 0 96 -10l-7 -83zM882 506v-506h-123v489zM764 591.5
q-15 14.5 -15 55.5q0 42 15.5 57t56.5 15t55.5 -15t14.5 -57q0 -41 -14 -55.5t-56 -14.5t-57 14.5z" />
    <glyph glyph-name="f_f_l" unicode="ffl" horiz-adv-x="958" 
d="M45 0zM234 591v-91h75v-83h-75v-417h-123v417h-66v83h66q4 68 17.5 105.5t41 53.5t76.5 16q47 0 96 -10l-7 -83zM573 591v-91h75v-83h-75v-417h-123v417h-66v83h66q4 68 17.5 105.5t41 53.5t76.5 16q47 0 96 -10l-7 -83zM925 84l-7 -83q-45 -12 -76 -12q-44 0 -65.5 20
t-21.5 63v578l123 15v-575q20 -4 47 -6z" />
    <glyph glyph-name="uniFDF2" unicode="&#x627;&#xfedf;&#xfee0;&#xfeea;" horiz-adv-x="1568" arabic-form="isolated" 
d="M1157 1026l-62 -16v198l62 16v-198zM1287 988l1 -202l-260 -69q-12 -3 -22 -3q-22 0 -32 19.5t-10 62.5q0 59 13 109l63 9q-10 -46 -10 -90q0 -32 6 -53l64 17q-7 17 -7 59v79l62 17v-140l61 16v142zM1092 630h98v-630h-899q-92 0 -135.5 18t-60 66.5t-16.5 150.5
t16.5 150.5t60 66.5t135.5 18h250v-359h222v519h98v-519h231v519zM1474 630v-630h-98v630h98zM443 359h-198q-32 0 -46.5 -12t-14.5 -38v-148q0 -26 14.5 -38t46.5 -12h198v248z" />
    <glyph glyph-name="uniFEF5" unicode="&#xfedf;&#xfe82;" horiz-adv-x="644" arabic-form="isolated" 
d="M54 0zM549 237q17 -35 17 -79q0 -91 -61.5 -132t-199.5 -41q-92 0 -142.5 15.5t-72 49t-21.5 93.5q0 50 11.5 81.5t41 54.5t87.5 44l67 24l-185 150l67 81l233 -189l56 20v221h98v-192q0 -55 -11.5 -82t-42.5 -38v-7q41 -39 58 -74zM438.5 113.5q23.5 17.5 23.5 45.5
q0 18 -10.5 37t-28.5 33l-52 41l-197 -71v-103h193q48 0 71.5 17.5zM167.5 691.5q-11.5 7.5 -35.5 33.5l-61 -29l-17 32q49 37 71 49t36 12q12 0 22.5 -7.5t36.5 -33.5l61 28l17 -31q-45 -35 -68 -48t-38 -13q-13 0 -24.5 7.5z" />
    <glyph glyph-name="uniFEF6" unicode="&#xfee0;&#xfe82;" horiz-adv-x="658" arabic-form="final" 
d="M20 0zM678 111v-111h-658v111h155l-37 434h98l38 -434h193v519h98v-519h113zM177.5 691.5q-11.5 7.5 -35.5 33.5l-61 -29l-17 32q49 37 71 49t36 12q12 0 22.5 -7.5t36.5 -33.5l61 28l17 -31q-45 -35 -68 -48t-38 -13q-13 0 -24.5 7.5z" />
    <glyph glyph-name="uniFEF7" unicode="&#xfedf;&#xfe84;" horiz-adv-x="644" arabic-form="isolated" 
d="M62 0zM549 237q17 -35 17 -79q0 -91 -61.5 -132t-199.5 -41q-92 0 -142.5 15.5t-72 49t-21.5 93.5q0 50 11.5 81.5t41 54.5t87.5 44l67 24l-185 150l67 81l233 -189l56 20v221h98v-192q0 -55 -11.5 -82t-42.5 -38v-7q41 -39 58 -74zM438.5 113.5q23.5 17.5 23.5 45.5
q0 18 -10.5 37t-28.5 33l-52 41l-197 -71v-103h193q48 0 71.5 17.5zM292 766v-52l-230 -62v52l42 12q-10 23 -10 68q0 77 44 108.5t129 33.5v-62q-58 -2 -102 -23l-1 -78q0 -24 21 -24q5 0 23 4z" />
    <glyph glyph-name="uniFEF8" unicode="&#xfee0;&#xfe84;" horiz-adv-x="658" arabic-form="final" 
d="M20 0zM678 111v-111h-658v111h155l-37 434h98l38 -434h193v519h98v-519h113zM302 766v-52l-230 -62v52l42 12q-10 23 -10 68q0 77 44 108.5t129 33.5v-62q-58 -2 -102 -23l-1 -78q0 -24 21 -24q5 0 23 4z" />
    <glyph glyph-name="uniFEF9" unicode="&#xfedf;&#xfe88;" horiz-adv-x="644" arabic-form="isolated" 
d="M17 0zM549 237q17 -35 17 -79q0 -91 -61.5 -132t-199.5 -41q-92 0 -142.5 15.5t-72 49t-21.5 93.5q0 50 11.5 81.5t41 54.5t87.5 44l67 24l-185 150l67 81l233 -189l56 20v221h98v-192q0 -55 -11.5 -82t-42.5 -38v-7q41 -39 58 -74zM438.5 113.5q23.5 17.5 23.5 45.5
q0 18 -10.5 37t-28.5 33l-52 41l-197 -71v-103h193q48 0 71.5 17.5zM247 -238v-52l-230 -62v52l42 12q-10 23 -10 68q0 77 44 108.5t129 33.5v-62q-58 -2 -102 -23l-1 -78q0 -24 21 -24q5 0 23 4z" />
    <glyph glyph-name="uniFEFA" unicode="&#xfee0;&#xfe88;" horiz-adv-x="658" arabic-form="final" 
d="M20 0zM678 111v-111h-658v111h155l-37 434h98l38 -434h193v519h98v-519h113zM352 -238v-52l-230 -62v52l42 12q-10 23 -10 68q0 77 44 108.5t129 33.5v-62q-58 -2 -102 -23l-1 -78q0 -24 21 -24q5 0 23 4z" />
    <glyph glyph-name="uniFEFB" unicode="&#xfedf;&#xfe8e;" horiz-adv-x="644" arabic-form="isolated" 
d="M549 237q17 -35 17 -79q0 -91 -61.5 -132t-199.5 -41q-92 0 -142.5 15.5t-72 49t-21.5 93.5q0 50 11.5 81.5t41 54.5t87.5 44l67 24l-185 150l67 81l233 -189l56 20v221h98v-192q0 -55 -11.5 -82t-42.5 -38v-7q41 -39 58 -74zM438.5 113.5q23.5 17.5 23.5 45.5
q0 18 -10.5 37t-28.5 33l-52 41l-197 -71v-103h193q48 0 71.5 17.5z" />
    <glyph glyph-name="uniFEFC" unicode="&#xfee0;&#xfe8e;" horiz-adv-x="658" arabic-form="final" 
d="M678 111v-111h-658v111h155l-37 434h98l38 -434h193v519h98v-519h113z" />
    <glyph glyph-name="uni06440671" unicode="&#xfedf;&#xfb51;" horiz-adv-x="644" 
d="M13 0zM549 237q17 -35 17 -79q0 -91 -61.5 -132t-199.5 -41q-92 0 -142.5 15.5t-72 49t-21.5 93.5q0 50 11.5 81.5t41 54.5t87.5 44l67 24l-185 150l67 81l233 -189l56 20v221h98v-192q0 -55 -11.5 -82t-42.5 -38v-7q41 -39 58 -74zM438.5 113.5q23.5 17.5 23.5 45.5
q0 18 -10.5 37t-28.5 33l-52 41l-197 -71v-103h193q48 0 71.5 17.5zM290.5 877q26.5 -18 26.5 -60v-152h-304v51h30q4 85 44 132t115 47q62 0 88.5 -18zM243 716v120q-13 5 -41 5q-42 0 -62.5 -30.5t-22.5 -94.5h126z" />
    <glyph glyph-name="uni06440671.fina" unicode="&#xfee0;&#xfb51;" horiz-adv-x="658" 
d="M20 0zM678 111v-111h-658v111h155l-37 434h98l38 -434h193v519h98v-519h113zM300.5 877q26.5 -18 26.5 -60v-152h-304v51h30q4 85 44 132t115 47q62 0 88.5 -18zM253 716v120q-13 5 -41 5q-42 0 -62.5 -30.5t-22.5 -94.5h126z" />
    <glyph glyph-name="uni066E.init" unicode="&#x66e;" horiz-adv-x="329" 
d="M-20 111h158v359h98v-470h-256v111z" />
    <glyph glyph-name="uni066E.medi" unicode="&#x66e;" horiz-adv-x="329" 
d="M349 111v-111h-369v111h158v359h98v-359h113z" />
    <glyph glyph-name="uni066E.fina" unicode="&#x66e;" horiz-adv-x="893" 
d="M913 111v-111h-699q-55 0 -87 21t-47 66.5t-15 122.5q0 47 8 96.5t21 86.5l94 -15q-25 -81 -25 -145q0 -77 16 -122h522v359h99v-359h113z" />
    <glyph glyph-name="uni066F.fina" unicode="&#x66f;" horiz-adv-x="896" 
d="M916 111v-111h-113v-92q0 -94 -40 -133.5t-134 -39.5h-422q-55 0 -87 24.5t-47 78t-15 143.5q0 56 8 115t21 105l94 -16q-25 -102 -25 -180q0 -99 15 -159h534v154h-177q-63 0 -97.5 22t-49.5 73.5t-15 146.5t20 146t67 72t135 21q66 0 115 -7.5t101 -25.5v-337h112z
M695.5 121q9.5 10 9.5 37v212h-186q-29 0 -39 -10.5t-10 -40.5v-208h190q26 0 35.5 10z" />
    <glyph glyph-name="uni06A1.init" unicode="&#x6a1;" horiz-adv-x="655" 
d="M136 111q-7 29 -9.5 64.5t-2.5 93.5q0 82 19.5 127.5t67 65t134.5 19.5q59 0 108.5 -7.5t107.5 -25.5v-448h-581v111h156zM453.5 121q9.5 10 9.5 37v211h-191q-26 0 -35 -10.5t-9 -40.5v-207h190q26 0 35.5 10z" />
    <glyph glyph-name="uni06A1.medi" unicode="&#x6a1;" horiz-adv-x="655" 
d="M674 111v-111h-694v111h156q-7 29 -9.5 64.5t-2.5 93.5q0 82 19.5 127.5t67 65t134.5 19.5q59 0 108.5 -7.5t107.5 -25.5v-337h113zM463 369h-191q-26 0 -35 -10.5t-9 -40.5v-207h190q26 0 35.5 10t9.5 37v211z" />
    <glyph glyph-name="uni06A1.fina" unicode="&#x6a1;" horiz-adv-x="993" 
d="M1013 111v-111h-799q-55 0 -87 21t-47 66.5t-15 122.5q0 47 8 96.5t21 86.5l94 -15q-25 -81 -25 -145q0 -77 16 -122h295q-12 59 -12 158q0 82 19.5 127.5t67 65t135.5 19.5q59 0 108 -7.5t108 -25.5v-337h113zM802 368h-191q-26 0 -35 -10.5t-9 -40.5v-206h190
q26 0 35.5 10t9.5 37v210z" />
    <glyph glyph-name="uni06C2.fina" unicode="&#x6c2;" horiz-adv-x="625" 
d="M79 0zM645 111v-111h-354q-92 0 -135.5 18t-60 66.5t-16.5 150.5t16.5 150.5t60 66.5t135.5 18h250v-359h104zM443 359h-198q-32 0 -46.5 -12t-14.5 -38v-148q0 -26 14.5 -38t46.5 -12h198v248zM433 691v-52l-230 -62v52l42 12q-10 23 -10 68q0 77 44 108.5t129 33.5v-62
q-58 -2 -102 -23l-1 -78q0 -24 21 -24q5 0 23 4z" />
    <glyph glyph-name="uni06C3.fina" unicode="&#x6c3;" horiz-adv-x="657" 
d="M89 0zM677 111v-111h-211v362q-70 8 -133 8q-97 0 -146 -9v-361h-98v333q0 55 20.5 87t69.5 46.5t136 14.5q66 0 134.5 -8.5t114.5 -22.5v-339h113zM215.5 611q-22.5 23 -22.5 40q0 18 22 39.5t40 22.5q18 -1 40 -22.5t22 -39.5q0 -17 -23 -40t-39 -22q-17 -1 -39.5 22z
M370.5 611q-22.5 23 -22.5 40q0 18 22 39.5t40 22.5q18 -1 40 -22.5t22 -39.5q0 -17 -23 -40t-39 -22q-17 -1 -39.5 22z" />
    <glyph glyph-name="uniFB51" unicode="&#x671;" horiz-adv-x="285" arabic-form="final" 
d="M0 0zM93 470h98v-359h114v-111h-212v470zM255.5 802q26.5 -18 26.5 -60v-152h-304v51h30q4 85 44 132t115 47q62 0 88.5 -18zM208 641v120q-13 5 -41 5q-42 0 -62.5 -30.5t-22.5 -94.5h126z" />
    <glyph glyph-name="uniFB57" unicode="&#x67e;" horiz-adv-x="893" arabic-form="final" 
d="M65 0zM913 111v-111h-699q-55 0 -87 21t-47 66.5t-15 122.5q0 47 8 96.5t21 86.5l94 -15q-25 -81 -25 -145q0 -77 16 -122h522v359h99v-359h113zM403.5 -348q-22.5 23 -22.5 40q0 18 22 39.5t40 22.5q18 -1 40 -22.5t22 -39.5q0 -17 -23 -40t-39 -22q-17 -1 -39.5 22z
M326.5 -185q-22.5 23 -22.5 40q0 18 22 39.5t40 22.5q18 -1 40 -22.5t22 -39.5q0 -17 -23 -40t-39 -22q-17 -1 -39.5 22zM481.5 -185q-22.5 23 -22.5 40q0 18 22 39.5t40 22.5q18 -1 40 -22.5t22 -39.5q0 -17 -23 -40t-39 -22q-17 -1 -39.5 22z" />
    <glyph glyph-name="uniFB58" unicode="&#x67e;" horiz-adv-x="329" arabic-form="initial" 
d="M0 0zM-20 111h158v359h98v-470h-256v111zM85.5 -330q-22.5 23 -22.5 40q0 18 22 39.5t40 22.5q18 -1 40 -22.5t22 -39.5q0 -17 -23 -40t-39 -22q-17 -1 -39.5 22zM8.5 -167q-22.5 23 -22.5 40q0 18 22 39.5t40 22.5q18 -1 40 -22.5t22 -39.5q0 -17 -23 -40t-39 -22
q-17 -1 -39.5 22zM163.5 -167q-22.5 23 -22.5 40q0 18 22 39.5t40 22.5q18 -1 40 -22.5t22 -39.5q0 -17 -23 -40t-39 -22q-17 -1 -39.5 22z" />
    <glyph glyph-name="uniFB59" unicode="&#x67e;" horiz-adv-x="329" arabic-form="medial" 
d="M0 0zM349 111v-111h-369v111h158v359h98v-359h113zM146.5 -340q-22.5 23 -22.5 40q0 18 22 39.5t40 22.5q18 -1 40 -22.5t22 -39.5q0 -17 -23 -40t-39 -22q-17 -1 -39.5 22zM69.5 -177q-22.5 23 -22.5 40q0 18 22 39.5t40 22.5q18 -1 40 -22.5t22 -39.5q0 -17 -23 -40
t-39 -22q-17 -1 -39.5 22zM224.5 -177q-22.5 23 -22.5 40q0 18 22 39.5t40 22.5q18 -1 40 -22.5t22 -39.5q0 -17 -23 -40t-39 -22q-17 -1 -39.5 22z" />
    <glyph glyph-name="uniFB67" unicode="&#x679;" horiz-adv-x="893" arabic-form="final" 
d="M65 0zM913 111v-111h-699q-55 0 -87 21t-47 66.5t-15 122.5q0 47 8 96.5t21 86.5l94 -15q-25 -81 -25 -145q0 -77 16 -122h522v359h99v-359h113zM563 682.5q19 -17.5 19 -60.5v-132h-302v51h30v222h74v-117q35 54 115 54q45 0 64 -17.5zM508 541v97q-16 8 -41 8
q-42 0 -61.5 -25.5t-21.5 -79.5h124z" />
    <glyph glyph-name="uniFB68" unicode="&#x679;" horiz-adv-x="329" arabic-form="initial" 
d="M0 0zM-20 111h158v359h98v-470h-256v111zM306 782.5q19 -17.5 19 -60.5v-132h-302v51h30v222h74v-117q35 54 115 54q45 0 64 -17.5zM251 641v97q-16 8 -41 8q-42 0 -61.5 -25.5t-21.5 -79.5h124z" />
    <glyph glyph-name="uniFB69" unicode="&#x679;" horiz-adv-x="329" arabic-form="medial" 
d="M0 0zM349 111v-111h-369v111h158v359h98v-359h113zM306 782.5q19 -17.5 19 -60.5v-132h-302v51h30v222h74v-117q35 54 115 54q45 0 64 -17.5zM251 641v97q-16 8 -41 8q-42 0 -61.5 -25.5t-21.5 -79.5h124z" />
    <glyph glyph-name="uniFB6B" unicode="&#x6a4;" horiz-adv-x="993" arabic-form="final" 
d="M65 0zM1013 111v-111h-799q-55 0 -87 21t-47 66.5t-15 122.5q0 47 8 96.5t21 86.5l94 -15q-25 -81 -25 -145q0 -77 16 -122h295q-12 59 -12 158q0 82 19.5 127.5t67 65t135.5 19.5q59 0 108 -7.5t108 -25.5v-337h113zM802 368h-191q-26 0 -35 -10.5t-9 -40.5v-206h190
q26 0 35.5 10t9.5 37v210zM593.5 611q-22.5 23 -22.5 40q0 18 22 39.5t40 22.5q18 -1 40 -22.5t22 -39.5q0 -17 -23 -40t-39 -22q-17 -1 -39.5 22zM748.5 611q-22.5 23 -22.5 40q0 18 22 39.5t40 22.5q18 -1 40 -22.5t22 -39.5q0 -17 -23 -40t-39 -22q-17 -1 -39.5 22z
M670.5 774q-22.5 23 -22.5 40q0 18 22 39.5t40 22.5q18 -1 40 -22.5t22 -39.5q0 -17 -23 -40t-39 -22q-17 -1 -39.5 22z" />
    <glyph glyph-name="uniFB6C" unicode="&#x6a4;" horiz-adv-x="655" arabic-form="initial" 
d="M0 0zM136 111q-7 29 -9.5 64.5t-2.5 93.5q0 82 19.5 127.5t67 65t134.5 19.5q59 0 108.5 -7.5t107.5 -25.5v-448h-581v111h156zM453.5 121q9.5 10 9.5 37v211h-191q-26 0 -35 -10.5t-9 -40.5v-207h190q26 0 35.5 10zM228.5 611q-22.5 23 -22.5 40q0 18 22 39.5t40 22.5
q18 -1 40 -22.5t22 -39.5q0 -17 -23 -40t-39 -22q-17 -1 -39.5 22zM383.5 611q-22.5 23 -22.5 40q0 18 22 39.5t40 22.5q18 -1 40 -22.5t22 -39.5q0 -17 -23 -40t-39 -22q-17 -1 -39.5 22zM305.5 774q-22.5 23 -22.5 40q0 18 22 39.5t40 22.5q18 -1 40 -22.5t22 -39.5
q0 -17 -23 -40t-39 -22q-17 -1 -39.5 22z" />
    <glyph glyph-name="uniFB6D" unicode="&#x6a4;" horiz-adv-x="655" arabic-form="medial" 
d="M0 0zM674 111v-111h-694v111h156q-7 29 -9.5 64.5t-2.5 93.5q0 82 19.5 127.5t67 65t134.5 19.5q59 0 108.5 -7.5t107.5 -25.5v-337h113zM463 369h-191q-26 0 -35 -10.5t-9 -40.5v-207h190q26 0 35.5 10t9.5 37v211zM228.5 611q-22.5 23 -22.5 40q0 18 22 39.5t40 22.5
q18 -1 40 -22.5t22 -39.5q0 -17 -23 -40t-39 -22q-17 -1 -39.5 22zM383.5 611q-22.5 23 -22.5 40q0 18 22 39.5t40 22.5q18 -1 40 -22.5t22 -39.5q0 -17 -23 -40t-39 -22q-17 -1 -39.5 22zM305.5 774q-22.5 23 -22.5 40q0 18 22 39.5t40 22.5q18 -1 40 -22.5t22 -39.5
q0 -17 -23 -40t-39 -22q-17 -1 -39.5 22z" />
    <glyph glyph-name="uniFB7B" unicode="&#x686;" horiz-adv-x="695" arabic-form="final" 
d="M714 111v-111h-70q-30 0 -48 13t-29 43l-37 96q-137 -2 -220 -17t-121 -47.5t-38 -84.5v-166q36 -6 64 -6q39 0 93 8l13 -104q-55 -15 -100 -15q-69 0 -106 22.5t-51.5 71.5t-14.5 137q0 104 44.5 166t142 91t261.5 30q-32 74 -81 103t-141 29q-49 0 -94 -4l-16 108
q63 7 116 7q126 0 196 -49t112 -162l60 -159h65zM357.5 -39.5q-21.5 -21.5 -37.5 -20.5q-16 -1 -37.5 20.5t-21.5 38.5t21 38t38 22q17 -1 38 -22t21 -38t-21.5 -38.5zM506 37q21 -21 21 -38t-21.5 -38.5t-37.5 -20.5q-16 -1 -37.5 20.5t-21.5 38.5t21 38t38 22
q17 -1 38 -22zM431 -118q21 -21 21 -38t-21.5 -38.5t-37.5 -20.5q-16 -1 -37.5 20.5t-21.5 38.5t21 38t38 22q17 -1 38 -22z" />
    <glyph glyph-name="uniFB7C" unicode="&#x686;" horiz-adv-x="563" arabic-form="initial" 
d="M0 0zM563 284v-111h-96q-13 0 -19 1q-47 -84 -123.5 -129t-181.5 -45h-163v111h183q79 0 132.5 41.5t82.5 104.5q-29 63 -77.5 88t-136.5 25q-47 0 -94 -4l-16 108q60 7 116 7q123 0 192 -45.5t110 -151.5h91zM230.5 -340q-22.5 23 -22.5 40q0 18 22 39.5t40 22.5
q18 -1 40 -22.5t22 -39.5q0 -17 -23 -40t-39 -22q-17 -1 -39.5 22zM153.5 -177q-22.5 23 -22.5 40q0 18 22 39.5t40 22.5q18 -1 40 -22.5t22 -39.5q0 -17 -23 -40t-39 -22q-17 -1 -39.5 22zM308.5 -177q-22.5 23 -22.5 40q0 18 22 39.5t40 22.5q18 -1 40 -22.5t22 -39.5
q0 -17 -23 -40t-39 -22q-17 -1 -39.5 22z" />
    <glyph glyph-name="uniFB7D" unicode="&#x686;" horiz-adv-x="583" arabic-form="medial" 
d="M0 0zM603 111v-111h-70q-30 0 -48 13t-29 43l-30 78q-44 -65 -110 -99.5t-151 -34.5h-185v111h213q68 0 113.5 40.5t72.5 103.5q-32 63 -80 89t-135 26q-47 0 -94 -4l-16 108q60 7 116 7q127 0 197 -49t111 -162l60 -159h65zM236.5 -340q-22.5 23 -22.5 40q0 18 22 39.5
t40 22.5q18 -1 40 -22.5t22 -39.5q0 -17 -23 -40t-39 -22q-17 -1 -39.5 22zM159.5 -177q-22.5 23 -22.5 40q0 18 22 39.5t40 22.5q18 -1 40 -22.5t22 -39.5q0 -17 -23 -40t-39 -22q-17 -1 -39.5 22zM314.5 -177q-22.5 23 -22.5 40q0 18 22 39.5t40 22.5q18 -1 40 -22.5
t22 -39.5q0 -17 -23 -40t-39 -22q-17 -1 -39.5 22z" />
    <glyph glyph-name="uniFB89" unicode="&#x688;" horiz-adv-x="504" arabic-form="final" 
d="M20 0zM524 111v-111h-504v111h331q-31 117 -55.5 172.5t-55.5 76t-85 20.5q-43 0 -85 -10l-28 107q58 14 113 14q92 0 139.5 -25.5t83 -102t84.5 -252.5h62zM303 782.5q19 -17.5 19 -60.5v-132h-302v51h30v222h74v-117q35 54 115 54q45 0 64 -17.5zM248 641v97
q-16 8 -41 8q-42 0 -61.5 -25.5t-21.5 -79.5h124z" />
    <glyph glyph-name="uniFB8B" unicode="&#x698;" horiz-adv-x="317" arabic-form="final" 
d="M25 0zM337 0h-112q-1 -102 -38.5 -164t-121.5 -101l-40 87q58 27 79.5 66.5t21.5 117.5v464h99v-359h112v-111zM58.5 611q-22.5 23 -22.5 40q0 18 22 39.5t40 22.5q18 -1 40 -22.5t22 -39.5q0 -17 -23 -40t-39 -22q-17 -1 -39.5 22zM213.5 611q-22.5 23 -22.5 40
q0 18 22 39.5t40 22.5q18 -1 40 -22.5t22 -39.5q0 -17 -23 -40t-39 -22q-17 -1 -39.5 22zM135.5 774q-22.5 23 -22.5 40q0 18 22 39.5t40 22.5q18 -1 40 -22.5t22 -39.5q0 -17 -23 -40t-39 -22q-17 -1 -39.5 22z" />
    <glyph glyph-name="uniFB8D" unicode="&#x691;" horiz-adv-x="317" arabic-form="final" 
d="M11 0zM337 0h-112q-1 -102 -38.5 -164t-121.5 -101l-40 87q58 27 79.5 66.5t21.5 117.5v464h99v-359h112v-111zM294 782.5q19 -17.5 19 -60.5v-132h-302v51h30v222h74v-117q35 54 115 54q45 0 64 -17.5zM239 641v97q-16 8 -41 8q-42 0 -61.5 -25.5t-21.5 -79.5h124z" />
    <glyph glyph-name="uniFB8F" unicode="&#x6a9;" horiz-adv-x="856" arabic-form="final" 
d="M875 111v-111h-661q-55 0 -87 21t-47 66.5t-15 122.5q0 47 8 96.5t21 86.5l94 -15q-25 -81 -25 -145q0 -77 16 -122h485v194h-246q-50 0 -75.5 24.5t-25.5 71.5q0 68 45 161.5t106 154.5l81 -44q-52 -53 -91 -124.5t-50 -132.5h223q52 0 79.5 -12t39.5 -39.5t12 -79.5
v-174h113z" />
    <glyph glyph-name="uniFB90" unicode="&#x6a9;" horiz-adv-x="708" arabic-form="initial" 
d="M0 0zM-20 111h536v194h-330q-50 0 -75.5 24.5t-25.5 71.5q0 68 45 161.5t106 154.5l81 -44q-52 -53 -91 -124.5t-50 -132.5h308q52 0 79.5 -12t39.5 -39.5t12 -79.5v-285h-635v111z" />
    <glyph glyph-name="uniFB91" unicode="&#x6a9;" horiz-adv-x="708" arabic-form="medial" 
d="M0 0zM728 111v-111h-748v111h536v194h-330q-50 0 -75.5 24.5t-25.5 71.5q0 68 45 161.5t106 154.5l81 -44q-52 -53 -91 -124.5t-50 -132.5h308q52 0 79.5 -12t39.5 -39.5t12 -79.5v-174h113z" />
    <glyph glyph-name="uniFB93" unicode="&#x6af;" horiz-adv-x="856" arabic-form="final" 
d="M65 0zM875 111v-111h-661q-55 0 -87 21t-47 66.5t-15 122.5q0 47 8 96.5t21 86.5l94 -15q-25 -81 -25 -145q0 -77 16 -122h485v194h-246q-50 0 -75.5 24.5t-25.5 71.5q0 68 45 161.5t106 154.5l81 -44q-52 -53 -91 -124.5t-50 -132.5h223q52 0 79.5 -12t39.5 -39.5
t12 -79.5v-174h113zM215 658.5q-41 -88.5 -50 -160.5l86 -29q11 74 47 149.5t93 138.5l-81 43q-54 -53 -95 -141.5z" />
    <glyph glyph-name="uniFB94" unicode="&#x6af;" horiz-adv-x="708" arabic-form="initial" 
d="M0 0zM-20 111h536v194h-330q-50 0 -75.5 24.5t-25.5 71.5q0 68 45 161.5t106 154.5l81 -44q-52 -53 -91 -124.5t-50 -132.5h308q52 0 79.5 -12t39.5 -39.5t12 -79.5v-285h-635v111zM-29 658.5q-41 -88.5 -50 -160.5l86 -29q11 74 47 149.5t93 138.5l-81 43
q-54 -53 -95 -141.5z" />
    <glyph glyph-name="uniFB95" unicode="&#x6af;" horiz-adv-x="708" arabic-form="medial" 
d="M0 0zM728 111v-111h-748v111h536v194h-330q-50 0 -75.5 24.5t-25.5 71.5q0 68 45 161.5t106 154.5l81 -44q-52 -53 -91 -124.5t-50 -132.5h308q52 0 79.5 -12t39.5 -39.5t12 -79.5v-174h113zM-29 658.5q-41 -88.5 -50 -160.5l86 -29q11 74 47 149.5t93 138.5l-81 43
q-54 -53 -95 -141.5z" />
    <glyph glyph-name="uniFB9F" unicode="&#x6ba;" horiz-adv-x="666" arabic-form="final" 
d="M686 111v-111h-113v-26q0 -90 -20 -134.5t-75 -62t-169 -17.5q-103 0 -153.5 19t-69 67t-18.5 144q0 63 8.5 130t22.5 117l92 -15q-25 -119 -25 -212q0 -86 12 -139h171q71 0 98.5 11t27.5 42v546h98v-359h113z" />
    <glyph glyph-name="uniFBA7" unicode="&#x6c1;" horiz-adv-x="657" arabic-form="final" 
d="M677 111v-111h-211v362q-70 8 -133 8q-97 0 -146 -9v-361h-98v333q0 55 20.5 87t69.5 46.5t136 14.5q66 0 134.5 -8.5t114.5 -22.5v-339h113z" />
    <glyph glyph-name="uniFBA8" unicode="&#x6c1;" horiz-adv-x="329" arabic-form="initial" 
d="M247 -95.5q8 -12.5 8 -41.5q0 -35 -13.5 -48.5t-48.5 -13.5q-33 0 -45.5 13.5t-12.5 48.5q1 19 5 33.5t17 42.5l28 61h-205v111h158v359h98v-470h1l-18 -78q20 -5 28 -17.5z" />
    <glyph glyph-name="uniFBA9" unicode="&#x6c1;" horiz-adv-x="664" arabic-form="medial" 
d="M686 0h-114v-227q0 -55 -16.5 -87t-55.5 -46.5t-110 -14.5q-58 0 -115.5 10.5t-103.5 31.5q-20 47 -31.5 106t-11.5 117v110h-148v111h244v-219q0 -72 26 -152q65 -12 122 -12q70 0 102 9v374h212v-111z" />
    <glyph glyph-name="uniFBAB" unicode="&#x6be;" horiz-adv-x="741" arabic-form="final" 
d="M761 110v-111h-119v1h-622v111h69q1 96 14.5 138.5t49 56.5t113.5 14q83 0 120 -14t51 -56.5t15 -138.5h132l-45 177q-17 63 -51.5 99t-93 52t-151.5 16l6 107q118 0 192.5 -21t120 -71.5t68.5 -142.5l55 -217h76zM175 111h190v129h-143q-26 0 -36.5 -8.5t-10.5 -28.5
v-92z" />
    <glyph glyph-name="uniFBAC" unicode="&#x6be;" horiz-adv-x="741" arabic-form="initial" 
d="M0 0zM691 85v-85h-711v111h109q1 96 14.5 138.5t49 56.5t113.5 14q83 0 120 -14t51 -56.5t15 -138.5h132l-45 177q-17 63 -51.5 99t-93 52t-151.5 16l6 107q118 0 192.5 -21t120 -71.5t68.5 -142.5zM175 111h190v129h-143q-26 0 -36.5 -8.5t-10.5 -28.5v-92z" />
    <glyph glyph-name="uniFBAD" unicode="&#x6be;" horiz-adv-x="741" arabic-form="medial" 
d="M0 0zM761 110v-111h-121v1h-660v111h109q1 96 14.5 138.5t49 56.5t113.5 14q83 0 120 -14t51 -56.5t15 -138.5h132l-45 177q-17 63 -51.5 99t-93 52t-151.5 16l6 107q118 0 192.5 -21t120 -71.5t68.5 -142.5l55 -217h76zM175 111h190v129h-143q-26 0 -36.5 -8.5
t-10.5 -28.5v-92z" />
    <glyph glyph-name="uniFBAF" unicode="&#x6d2;" horiz-adv-x="705" arabic-form="final" 
d="M146 0v-115q0 -22 19 -33t63 -15.5t127 -4.5q87 0 145 5t145 20l15 -105q-59 -14 -139 -22t-159 -8q-134 0 -199.5 17.5t-90 61.5t-24.5 133v177h677v-111h-579z" />
    <glyph glyph-name="uniFBB1" unicode="&#x6d3;" horiz-adv-x="705" arabic-form="final" 
d="M48 0zM146 0v-115q0 -22 19 -33t63 -15.5t127 -4.5q87 0 145 5t145 20l15 -105q-59 -14 -139 -22t-159 -8q-134 0 -199.5 17.5t-90 61.5t-24.5 133v177h677v-111h-579zM420 341v-52l-230 -62v52l42 12q-10 23 -10 68q0 77 44 108.5t129 33.5v-62q-58 -2 -102 -23l-1 -78
q0 -24 21 -24q5 0 23 4z" />
    <glyph glyph-name="uniFBFD" unicode="&#x6cc;" horiz-adv-x="866" arabic-form="final" 
d="M68 0zM886 111v-111h-113v-72q0 -83 -30 -126.5t-107 -61.5t-229 -18q-144 0 -213.5 14.5t-97.5 56.5t-28 131q0 57 8.5 118t22.5 105l96 -16q-14 -58 -21.5 -101.5t-7.5 -81.5q0 -69 12 -116h282q86 0 131 4.5t64.5 15.5t19.5 33v115h-39q-52 0 -109.5 8.5t-99.5 22.5
l16 104q93 -24 171 -24h272z" />
    <glyph glyph-name="uniFBFE" unicode="&#x6cc;" horiz-adv-x="329" arabic-form="initial" 
d="M0 0zM-20 111h158v359h98v-470h-256v111zM7.5 -165q-22.5 23 -22.5 40q0 18 22 39.5t40 22.5q18 -1 40 -22.5t22 -39.5q0 -17 -23 -40t-39 -22q-17 -1 -39.5 22zM162.5 -165q-22.5 23 -22.5 40q0 18 22 39.5t40 22.5q18 -1 40 -22.5t22 -39.5q0 -17 -23 -40t-39 -22
q-17 -1 -39.5 22z" />
    <glyph glyph-name="uniFBFF" unicode="&#x6cc;" horiz-adv-x="329" arabic-form="medial" 
d="M0 0zM349 111v-111h-369v111h158v359h98v-359h113zM66.5 -182q-22.5 23 -22.5 40q0 18 22 39.5t40 22.5q18 -1 40 -22.5t22 -39.5q0 -17 -23 -40t-39 -22q-17 -1 -39.5 22zM221.5 -182q-22.5 23 -22.5 40q0 18 22 39.5t40 22.5q18 -1 40 -22.5t22 -39.5q0 -17 -23 -40
t-39 -22q-17 -1 -39.5 22z" />
    <glyph glyph-name="uniFC64" unicode="&#xfc64;" horiz-adv-x="647" arabic-form="final" 
d="M25 0zM667 111v-111h-212v359h-230v-353q0 -105 -37.5 -168t-122.5 -103l-40 87q58 27 79.5 66.5t21.5 117.5v464h427v-359h114zM619 691v-52l-230 -62v52l42 12q-10 23 -10 68q0 77 44 108.5t129 33.5v-62q-58 -2 -102 -23l-1 -78q0 -24 21 -24q5 0 23 4z" />
    <glyph glyph-name="uniFC65" unicode="&#xfc65;" horiz-adv-x="647" arabic-form="final" 
d="M25 0zM667 111v-111h-212v359h-230v-353q0 -105 -37.5 -168t-122.5 -103l-40 87q58 27 79.5 66.5t21.5 117.5v464h427v-359h114zM619 691v-52l-230 -62v52l42 12q-10 23 -10 68q0 77 44 108.5t129 33.5v-62q-58 -2 -102 -23l-1 -78q0 -24 21 -24q5 0 23 4zM136.5 611
q-22.5 23 -22.5 40q0 18 22 39.5t40 22.5q18 -1 40 -22.5t22 -39.5q0 -17 -23 -40t-39 -22q-17 -1 -39.5 22z" />
    <glyph glyph-name="uniFC67" unicode="&#xfc67;" horiz-adv-x="995" arabic-form="final" 
d="M68 0zM284.5 625q-22.5 23 -22.5 40q0 18 22 39.5t40 22.5q18 -1 40 -22.5t22 -39.5q0 -17 -22.5 -40t-39.5 -22q-17 -1 -39.5 22zM1016 111v-111h-212v359h-231v-385q0 -90 -20 -134.5t-75 -62t-169 -17.5q-103 0 -153.5 19t-69 67t-18.5 144q0 63 8.5 130t22.5 117
l92 -15q-25 -119 -25 -212q0 -86 12 -139h171q71 0 98.5 11t27.5 42v546h427v-359h114zM969 691v-52l-230 -62v52l42 12q-10 23 -10 68q0 77 44 108.5t129 33.5v-62q-58 -2 -102 -23l-1 -78q0 -24 21 -24q5 0 23 4z" />
    <glyph glyph-name="uniFC68" unicode="&#xfc68;" horiz-adv-x="1143" arabic-form="final" 
d="M68 0zM1164 111v-111h-212v359h-475v-159l154 -16q56 -6 87 -26t43 -57t12 -100v-73q0 -83 -30 -126.5t-107 -61.5t-229 -18q-144 0 -213.5 14.5t-97.5 56.5t-28 131q0 57 8.5 118t22.5 105l96 -16q-14 -58 -21.5 -101.5t-7.5 -81.5q0 -69 12 -116h282q86 0 131 4.5
t64.5 15.5t19.5 33v185l-138 16q-67 8 -102 28.5t-48.5 58.5t-13.5 105q0 74 16.5 114.5t58 59t117.5 18.5h485v-359h114zM1115 691v-52l-230 -62v52l42 12q-10 23 -10 68q0 77 44 108.5t129 33.5v-62q-58 -2 -102 -23l-1 -78q0 -24 21 -24q5 0 23 4z" />
    <glyph glyph-name="uniFC69" unicode="&#xfc69;" horiz-adv-x="1143" arabic-form="final" 
d="M68 0zM1164 111v-111h-212v359h-475v-159l154 -16q56 -6 87 -26t43 -57t12 -100v-73q0 -83 -30 -126.5t-107 -61.5t-229 -18q-144 0 -213.5 14.5t-97.5 56.5t-28 131q0 57 8.5 118t22.5 105l96 -16q-14 -58 -21.5 -101.5t-7.5 -81.5q0 -69 12 -116h282q86 0 131 4.5
t64.5 15.5t19.5 33v185l-138 16q-67 8 -102 28.5t-48.5 58.5t-13.5 105q0 74 16.5 114.5t58 59t117.5 18.5h485v-359h114zM1115 691v-52l-230 -62v52l42 12q-10 23 -10 68q0 77 44 108.5t129 33.5v-62q-58 -2 -102 -23l-1 -78q0 -24 21 -24q5 0 23 4zM315.5 -432
q-22.5 23 -22.5 40q0 18 22 39.5t40 22.5q18 -1 40 -22.5t22 -39.5q0 -17 -23 -40t-39 -22q-17 -1 -39.5 22zM470.5 -432q-22.5 23 -22.5 40q0 18 22 39.5t40 22.5q18 -1 40 -22.5t22 -39.5q0 -17 -23 -40t-39 -22q-17 -1 -39.5 22z" />
    <glyph glyph-name="uniFC6A" unicode="&#xfc6a;" horiz-adv-x="647" arabic-form="final" 
d="M25 0zM667 111v-111h-212v359h-230v-353q0 -105 -37.5 -168t-122.5 -103l-40 87q58 27 79.5 66.5t21.5 117.5v464h427v-359h114zM464.5 -182q-22.5 23 -22.5 40q0 18 22 39.5t40 22.5q18 -1 40 -22.5t22 -39.5q0 -17 -22.5 -40t-39.5 -22q-17 -1 -39.5 22z" />
    <glyph glyph-name="uniFC6B" unicode="&#xfc6b;" horiz-adv-x="647" arabic-form="final" 
d="M25 0zM667 111v-111h-212v359h-230v-353q0 -105 -37.5 -168t-122.5 -103l-40 87q58 27 79.5 66.5t21.5 117.5v464h427v-359h114zM464.5 -182q-22.5 23 -22.5 40q0 18 22 39.5t40 22.5q18 -1 40 -22.5t22 -39.5q0 -17 -22.5 -40t-39.5 -22q-17 -1 -39.5 22zM136.5 611
q-22.5 23 -22.5 40q0 18 22 39.5t40 22.5q18 -1 40 -22.5t22 -39.5q0 -17 -23 -40t-39 -22q-17 -1 -39.5 22z" />
    <glyph glyph-name="uniFC6D" unicode="&#xfc6d;" horiz-adv-x="995" arabic-form="final" 
d="M68 0zM284.5 625q-22.5 23 -22.5 40q0 18 22 39.5t40 22.5q18 -1 40 -22.5t22 -39.5q0 -17 -22.5 -40t-39.5 -22q-17 -1 -39.5 22zM1016 111v-111h-212v359h-231v-385q0 -90 -20 -134.5t-75 -62t-169 -17.5q-103 0 -153.5 19t-69 67t-18.5 144q0 63 8.5 130t22.5 117
l92 -15q-25 -119 -25 -212q0 -86 12 -139h171q71 0 98.5 11t27.5 42v546h427v-359h114zM814.5 -182q-22.5 23 -22.5 40q0 18 22 39.5t40 22.5q18 -1 40 -22.5t22 -39.5q0 -17 -22.5 -40t-39.5 -22q-17 -1 -39.5 22z" />
    <glyph glyph-name="uniFC6E" unicode="&#xfc6e;" horiz-adv-x="1143" arabic-form="final" 
d="M68 0zM1164 111v-111h-212v359h-475v-159l154 -16q56 -6 87 -26t43 -57t12 -100v-73q0 -83 -30 -126.5t-107 -61.5t-229 -18q-144 0 -213.5 14.5t-97.5 56.5t-28 131q0 57 8.5 118t22.5 105l96 -16q-14 -58 -21.5 -101.5t-7.5 -81.5q0 -69 12 -116h282q86 0 131 4.5
t64.5 15.5t19.5 33v185l-138 16q-67 8 -102 28.5t-48.5 58.5t-13.5 105q0 74 16.5 114.5t58 59t117.5 18.5h485v-359h114zM961.5 -162q-22.5 23 -22.5 40q0 18 22 39.5t40 22.5q18 -1 40 -22.5t22 -39.5q0 -17 -22.5 -40t-39.5 -22q-17 -1 -39.5 22z" />
    <glyph glyph-name="uniFC6F" unicode="&#xfc6f;" horiz-adv-x="1143" arabic-form="final" 
d="M68 0zM1164 111v-111h-212v359h-475v-159l154 -16q56 -6 87 -26t43 -57t12 -100v-73q0 -83 -30 -126.5t-107 -61.5t-229 -18q-144 0 -213.5 14.5t-97.5 56.5t-28 131q0 57 8.5 118t22.5 105l96 -16q-14 -58 -21.5 -101.5t-7.5 -81.5q0 -69 12 -116h282q86 0 131 4.5
t64.5 15.5t19.5 33v185l-138 16q-67 8 -102 28.5t-48.5 58.5t-13.5 105q0 74 16.5 114.5t58 59t117.5 18.5h485v-359h114zM961.5 -162q-22.5 23 -22.5 40q0 18 22 39.5t40 22.5q18 -1 40 -22.5t22 -39.5q0 -17 -22.5 -40t-39.5 -22q-17 -1 -39.5 22zM315.5 -432
q-22.5 23 -22.5 40q0 18 22 39.5t40 22.5q18 -1 40 -22.5t22 -39.5q0 -17 -23 -40t-39 -22q-17 -1 -39.5 22zM470.5 -432q-22.5 23 -22.5 40q0 18 22 39.5t40 22.5q18 -1 40 -22.5t22 -39.5q0 -17 -23 -40t-39 -22q-17 -1 -39.5 22z" />
    <glyph glyph-name="uniFC70" unicode="&#xfc70;" horiz-adv-x="647" arabic-form="final" 
d="M25 0zM667 111v-111h-212v359h-230v-353q0 -105 -37.5 -168t-122.5 -103l-40 87q58 27 79.5 66.5t21.5 117.5v464h427v-359h114zM387.5 611q-22.5 23 -22.5 40q0 18 22 39.5t40 22.5q18 -1 40 -22.5t22 -39.5q0 -17 -23 -40t-39 -22q-17 -1 -39.5 22zM542.5 611
q-22.5 23 -22.5 40q0 18 22 39.5t40 22.5q18 -1 40 -22.5t22 -39.5q0 -17 -23 -40t-39 -22q-17 -1 -39.5 22z" />
    <glyph glyph-name="uniFC71" unicode="&#xfc71;" horiz-adv-x="647" arabic-form="final" 
d="M25 0zM667 111v-111h-212v359h-230v-353q0 -105 -37.5 -168t-122.5 -103l-40 87q58 27 79.5 66.5t21.5 117.5v464h427v-359h114zM387.5 611q-22.5 23 -22.5 40q0 18 22 39.5t40 22.5q18 -1 40 -22.5t22 -39.5q0 -17 -23 -40t-39 -22q-17 -1 -39.5 22zM542.5 611
q-22.5 23 -22.5 40q0 18 22 39.5t40 22.5q18 -1 40 -22.5t22 -39.5q0 -17 -23 -40t-39 -22q-17 -1 -39.5 22zM136.5 611q-22.5 23 -22.5 40q0 18 22 39.5t40 22.5q18 -1 40 -22.5t22 -39.5q0 -17 -23 -40t-39 -22q-17 -1 -39.5 22z" />
    <glyph glyph-name="uniFC73" unicode="&#xfc73;" horiz-adv-x="995" arabic-form="final" 
d="M68 0zM284.5 625q-22.5 23 -22.5 40q0 18 22 39.5t40 22.5q18 -1 40 -22.5t22 -39.5q0 -17 -22.5 -40t-39.5 -22q-17 -1 -39.5 22zM1016 111v-111h-212v359h-231v-385q0 -90 -20 -134.5t-75 -62t-169 -17.5q-103 0 -153.5 19t-69 67t-18.5 144q0 63 8.5 130t22.5 117
l92 -15q-25 -119 -25 -212q0 -86 12 -139h171q71 0 98.5 11t27.5 42v546h427v-359h114zM737.5 611q-22.5 23 -22.5 40q0 18 22 39.5t40 22.5q18 -1 40 -22.5t22 -39.5q0 -17 -23 -40t-39 -22q-17 -1 -39.5 22zM892.5 611q-22.5 23 -22.5 40q0 18 22 39.5t40 22.5
q18 -1 40 -22.5t22 -39.5q0 -17 -23 -40t-39 -22q-17 -1 -39.5 22z" />
    <glyph glyph-name="uniFC74" unicode="&#xfc74;" horiz-adv-x="1143" arabic-form="final" 
d="M68 0zM1164 111v-111h-212v359h-475v-159l154 -16q56 -6 87 -26t43 -57t12 -100v-73q0 -83 -30 -126.5t-107 -61.5t-229 -18q-144 0 -213.5 14.5t-97.5 56.5t-28 131q0 57 8.5 118t22.5 105l96 -16q-14 -58 -21.5 -101.5t-7.5 -81.5q0 -69 12 -116h282q86 0 131 4.5
t64.5 15.5t19.5 33v185l-138 16q-67 8 -102 28.5t-48.5 58.5t-13.5 105q0 74 16.5 114.5t58 59t117.5 18.5h485v-359h114zM883.5 611q-22.5 23 -22.5 40q0 18 22 39.5t40 22.5q18 -1 40 -22.5t22 -39.5q0 -17 -23 -40t-39 -22q-17 -1 -39.5 22zM1038.5 611
q-22.5 23 -22.5 40q0 18 22 39.5t40 22.5q18 -1 40 -22.5t22 -39.5q0 -17 -23 -40t-39 -22q-17 -1 -39.5 22z" />
    <glyph glyph-name="uniFC75" unicode="&#xfc75;" horiz-adv-x="1143" arabic-form="final" 
d="M68 0zM1164 111v-111h-212v359h-475v-159l154 -16q56 -6 87 -26t43 -57t12 -100v-73q0 -83 -30 -126.5t-107 -61.5t-229 -18q-144 0 -213.5 14.5t-97.5 56.5t-28 131q0 57 8.5 118t22.5 105l96 -16q-14 -58 -21.5 -101.5t-7.5 -81.5q0 -69 12 -116h282q86 0 131 4.5
t64.5 15.5t19.5 33v185l-138 16q-67 8 -102 28.5t-48.5 58.5t-13.5 105q0 74 16.5 114.5t58 59t117.5 18.5h485v-359h114zM883.5 611q-22.5 23 -22.5 40q0 18 22 39.5t40 22.5q18 -1 40 -22.5t22 -39.5q0 -17 -23 -40t-39 -22q-17 -1 -39.5 22zM1038.5 611
q-22.5 23 -22.5 40q0 18 22 39.5t40 22.5q18 -1 40 -22.5t22 -39.5q0 -17 -23 -40t-39 -22q-17 -1 -39.5 22zM315.5 -432q-22.5 23 -22.5 40q0 18 22 39.5t40 22.5q18 -1 40 -22.5t22 -39.5q0 -17 -23 -40t-39 -22q-17 -1 -39.5 22zM470.5 -432q-22.5 23 -22.5 40
q0 18 22 39.5t40 22.5q18 -1 40 -22.5t22 -39.5q0 -17 -23 -40t-39 -22q-17 -1 -39.5 22z" />
    <glyph glyph-name="uniFC76" unicode="&#xfc76;" horiz-adv-x="647" arabic-form="final" 
d="M25 0zM667 111v-111h-212v359h-230v-353q0 -105 -37.5 -168t-122.5 -103l-40 87q58 27 79.5 66.5t21.5 117.5v464h427v-359h114zM387.5 611q-22.5 23 -22.5 40q0 18 22 39.5t40 22.5q18 -1 40 -22.5t22 -39.5q0 -17 -23 -40t-39 -22q-17 -1 -39.5 22zM542.5 611
q-22.5 23 -22.5 40q0 18 22 39.5t40 22.5q18 -1 40 -22.5t22 -39.5q0 -17 -23 -40t-39 -22q-17 -1 -39.5 22zM464.5 774q-22.5 23 -22.5 40q0 18 22 39.5t40 22.5q18 -1 40 -22.5t22 -39.5q0 -17 -23 -40t-39 -22q-17 -1 -39.5 22z" />
    <glyph glyph-name="uniFC77" unicode="&#xfc77;" horiz-adv-x="647" arabic-form="final" 
d="M25 0zM667 111v-111h-212v359h-230v-353q0 -105 -37.5 -168t-122.5 -103l-40 87q58 27 79.5 66.5t21.5 117.5v464h427v-359h114zM387.5 611q-22.5 23 -22.5 40q0 18 22 39.5t40 22.5q18 -1 40 -22.5t22 -39.5q0 -17 -23 -40t-39 -22q-17 -1 -39.5 22zM542.5 611
q-22.5 23 -22.5 40q0 18 22 39.5t40 22.5q18 -1 40 -22.5t22 -39.5q0 -17 -23 -40t-39 -22q-17 -1 -39.5 22zM464.5 774q-22.5 23 -22.5 40q0 18 22 39.5t40 22.5q18 -1 40 -22.5t22 -39.5q0 -17 -23 -40t-39 -22q-17 -1 -39.5 22zM136.5 611q-22.5 23 -22.5 40
q0 18 22 39.5t40 22.5q18 -1 40 -22.5t22 -39.5q0 -17 -23 -40t-39 -22q-17 -1 -39.5 22z" />
    <glyph glyph-name="uniFC79" unicode="&#xfc79;" horiz-adv-x="995" arabic-form="final" 
d="M68 0zM284.5 625q-22.5 23 -22.5 40q0 18 22 39.5t40 22.5q18 -1 40 -22.5t22 -39.5q0 -17 -22.5 -40t-39.5 -22q-17 -1 -39.5 22zM1016 111v-111h-212v359h-231v-385q0 -90 -20 -134.5t-75 -62t-169 -17.5q-103 0 -153.5 19t-69 67t-18.5 144q0 63 8.5 130t22.5 117
l92 -15q-25 -119 -25 -212q0 -86 12 -139h171q71 0 98.5 11t27.5 42v546h427v-359h114zM737.5 611q-22.5 23 -22.5 40q0 18 22 39.5t40 22.5q18 -1 40 -22.5t22 -39.5q0 -17 -23 -40t-39 -22q-17 -1 -39.5 22zM892.5 611q-22.5 23 -22.5 40q0 18 22 39.5t40 22.5
q18 -1 40 -22.5t22 -39.5q0 -17 -23 -40t-39 -22q-17 -1 -39.5 22zM814.5 774q-22.5 23 -22.5 40q0 18 22 39.5t40 22.5q18 -1 40 -22.5t22 -39.5q0 -17 -23 -40t-39 -22q-17 -1 -39.5 22z" />
    <glyph glyph-name="uniFC7A" unicode="&#xfc7a;" horiz-adv-x="1143" arabic-form="final" 
d="M68 0zM1164 111v-111h-212v359h-475v-159l154 -16q56 -6 87 -26t43 -57t12 -100v-73q0 -83 -30 -126.5t-107 -61.5t-229 -18q-144 0 -213.5 14.5t-97.5 56.5t-28 131q0 57 8.5 118t22.5 105l96 -16q-14 -58 -21.5 -101.5t-7.5 -81.5q0 -69 12 -116h282q86 0 131 4.5
t64.5 15.5t19.5 33v185l-138 16q-67 8 -102 28.5t-48.5 58.5t-13.5 105q0 74 16.5 114.5t58 59t117.5 18.5h485v-359h114zM883.5 611q-22.5 23 -22.5 40q0 18 22 39.5t40 22.5q18 -1 40 -22.5t22 -39.5q0 -17 -23 -40t-39 -22q-17 -1 -39.5 22zM1038.5 611
q-22.5 23 -22.5 40q0 18 22 39.5t40 22.5q18 -1 40 -22.5t22 -39.5q0 -17 -23 -40t-39 -22q-17 -1 -39.5 22zM960.5 774q-22.5 23 -22.5 40q0 18 22 39.5t40 22.5q18 -1 40 -22.5t22 -39.5q0 -17 -23 -40t-39 -22q-17 -1 -39.5 22z" />
    <glyph glyph-name="uniFC7B" unicode="&#xfc7b;" horiz-adv-x="1143" arabic-form="final" 
d="M68 0zM1164 111v-111h-212v359h-475v-159l154 -16q56 -6 87 -26t43 -57t12 -100v-73q0 -83 -30 -126.5t-107 -61.5t-229 -18q-144 0 -213.5 14.5t-97.5 56.5t-28 131q0 57 8.5 118t22.5 105l96 -16q-14 -58 -21.5 -101.5t-7.5 -81.5q0 -69 12 -116h282q86 0 131 4.5
t64.5 15.5t19.5 33v185l-138 16q-67 8 -102 28.5t-48.5 58.5t-13.5 105q0 74 16.5 114.5t58 59t117.5 18.5h485v-359h114zM883.5 611q-22.5 23 -22.5 40q0 18 22 39.5t40 22.5q18 -1 40 -22.5t22 -39.5q0 -17 -23 -40t-39 -22q-17 -1 -39.5 22zM1038.5 611
q-22.5 23 -22.5 40q0 18 22 39.5t40 22.5q18 -1 40 -22.5t22 -39.5q0 -17 -23 -40t-39 -22q-17 -1 -39.5 22zM960.5 774q-22.5 23 -22.5 40q0 18 22 39.5t40 22.5q18 -1 40 -22.5t22 -39.5q0 -17 -23 -40t-39 -22q-17 -1 -39.5 22zM315.5 -432q-22.5 23 -22.5 40
q0 18 22 39.5t40 22.5q18 -1 40 -22.5t22 -39.5q0 -17 -23 -40t-39 -22q-17 -1 -39.5 22zM470.5 -432q-22.5 23 -22.5 40q0 18 22 39.5t40 22.5q18 -1 40 -22.5t22 -39.5q0 -17 -23 -40t-39 -22q-17 -1 -39.5 22z" />
    <glyph glyph-name="uniFC8A" unicode="&#xfc8a;" horiz-adv-x="647" arabic-form="final" 
d="M25 0zM667 111v-111h-212v359h-230v-353q0 -105 -37.5 -168t-122.5 -103l-40 87q58 27 79.5 66.5t21.5 117.5v464h427v-359h114zM464.5 611q-22.5 23 -22.5 40q0 18 22 39.5t40 22.5q18 -1 40 -22.5t22 -39.5q0 -17 -23 -40t-39 -22q-17 -1 -39.5 22z" />
    <glyph glyph-name="uniFC8B" unicode="&#xfc8b;" horiz-adv-x="647" arabic-form="final" 
d="M25 0zM667 111v-111h-212v359h-230v-353q0 -105 -37.5 -168t-122.5 -103l-40 87q58 27 79.5 66.5t21.5 117.5v464h427v-359h114zM464.5 611q-22.5 23 -22.5 40q0 18 22 39.5t40 22.5q18 -1 40 -22.5t22 -39.5q0 -17 -23 -40t-39 -22q-17 -1 -39.5 22zM136.5 611
q-22.5 23 -22.5 40q0 18 22 39.5t40 22.5q18 -1 40 -22.5t22 -39.5q0 -17 -23 -40t-39 -22q-17 -1 -39.5 22z" />
    <glyph glyph-name="uniFC8D" unicode="&#xfc8d;" horiz-adv-x="995" arabic-form="final" 
d="M68 0zM284.5 625q-22.5 23 -22.5 40q0 18 22 39.5t40 22.5q18 -1 40 -22.5t22 -39.5q0 -17 -22.5 -40t-39.5 -22q-17 -1 -39.5 22zM1016 111v-111h-212v359h-231v-385q0 -90 -20 -134.5t-75 -62t-169 -17.5q-103 0 -153.5 19t-69 67t-18.5 144q0 63 8.5 130t22.5 117
l92 -15q-25 -119 -25 -212q0 -86 12 -139h171q71 0 98.5 11t27.5 42v546h427v-359h114zM814.5 611q-22.5 23 -22.5 40q0 18 22 39.5t40 22.5q18 -1 40 -22.5t22 -39.5q0 -17 -23 -40t-39 -22q-17 -1 -39.5 22z" />
    <glyph glyph-name="uniFC8E" unicode="&#xfc8e;" horiz-adv-x="1143" arabic-form="final" 
d="M68 0zM1164 111v-111h-212v359h-475v-159l154 -16q56 -6 87 -26t43 -57t12 -100v-73q0 -83 -30 -126.5t-107 -61.5t-229 -18q-144 0 -213.5 14.5t-97.5 56.5t-28 131q0 57 8.5 118t22.5 105l96 -16q-14 -58 -21.5 -101.5t-7.5 -81.5q0 -69 12 -116h282q86 0 131 4.5
t64.5 15.5t19.5 33v185l-138 16q-67 8 -102 28.5t-48.5 58.5t-13.5 105q0 74 16.5 114.5t58 59t117.5 18.5h485v-359h114zM960.5 611q-22.5 23 -22.5 40q0 18 22 39.5t40 22.5q18 -1 40 -22.5t22 -39.5q0 -17 -23 -40t-39 -22q-17 -1 -39.5 22z" />
    <glyph glyph-name="uniFC8F" unicode="&#xfc8f;" horiz-adv-x="1143" arabic-form="final" 
d="M68 0zM1164 111v-111h-212v359h-475v-159l154 -16q56 -6 87 -26t43 -57t12 -100v-73q0 -83 -30 -126.5t-107 -61.5t-229 -18q-144 0 -213.5 14.5t-97.5 56.5t-28 131q0 57 8.5 118t22.5 105l96 -16q-14 -58 -21.5 -101.5t-7.5 -81.5q0 -69 12 -116h282q86 0 131 4.5
t64.5 15.5t19.5 33v185l-138 16q-67 8 -102 28.5t-48.5 58.5t-13.5 105q0 74 16.5 114.5t58 59t117.5 18.5h485v-359h114zM960.5 611q-22.5 23 -22.5 40q0 18 22 39.5t40 22.5q18 -1 40 -22.5t22 -39.5q0 -17 -23 -40t-39 -22q-17 -1 -39.5 22zM315.5 -432
q-22.5 23 -22.5 40q0 18 22 39.5t40 22.5q18 -1 40 -22.5t22 -39.5q0 -17 -23 -40t-39 -22q-17 -1 -39.5 22zM470.5 -432q-22.5 23 -22.5 40q0 18 22 39.5t40 22.5q18 -1 40 -22.5t22 -39.5q0 -17 -23 -40t-39 -22q-17 -1 -39.5 22z" />
    <glyph glyph-name="uniFC91" unicode="&#xfc91;" horiz-adv-x="647" arabic-form="final" 
d="M25 0zM667 111v-111h-212v359h-230v-353q0 -105 -37.5 -168t-122.5 -103l-40 87q58 27 79.5 66.5t21.5 117.5v464h427v-359h114zM383.5 -182q-22.5 23 -22.5 40q0 18 22 39.5t40 22.5q18 -1 40 -22.5t22 -39.5q0 -17 -23 -40t-39 -22q-17 -1 -39.5 22zM538.5 -182
q-22.5 23 -22.5 40q0 18 22 39.5t40 22.5q18 -1 40 -22.5t22 -39.5q0 -17 -23 -40t-39 -22q-17 -1 -39.5 22z" />
    <glyph glyph-name="uniFC92" unicode="&#xfc92;" horiz-adv-x="647" arabic-form="final" 
d="M25 0zM667 111v-111h-212v359h-230v-353q0 -105 -37.5 -168t-122.5 -103l-40 87q58 27 79.5 66.5t21.5 117.5v464h427v-359h114zM383.5 -182q-22.5 23 -22.5 40q0 18 22 39.5t40 22.5q18 -1 40 -22.5t22 -39.5q0 -17 -23 -40t-39 -22q-17 -1 -39.5 22zM538.5 -182
q-22.5 23 -22.5 40q0 18 22 39.5t40 22.5q18 -1 40 -22.5t22 -39.5q0 -17 -23 -40t-39 -22q-17 -1 -39.5 22zM136.5 611q-22.5 23 -22.5 40q0 18 22 39.5t40 22.5q18 -1 40 -22.5t22 -39.5q0 -17 -23 -40t-39 -22q-17 -1 -39.5 22z" />
    <glyph glyph-name="uniFC94" unicode="&#xfc94;" horiz-adv-x="995" arabic-form="final" 
d="M68 0zM284.5 625q-22.5 23 -22.5 40q0 18 22 39.5t40 22.5q18 -1 40 -22.5t22 -39.5q0 -17 -22.5 -40t-39.5 -22q-17 -1 -39.5 22zM1016 111v-111h-212v359h-231v-385q0 -90 -20 -134.5t-75 -62t-169 -17.5q-103 0 -153.5 19t-69 67t-18.5 144q0 63 8.5 130t22.5 117
l92 -15q-25 -119 -25 -212q0 -86 12 -139h171q71 0 98.5 11t27.5 42v546h427v-359h114zM733.5 -182q-22.5 23 -22.5 40q0 18 22 39.5t40 22.5q18 -1 40 -22.5t22 -39.5q0 -17 -23 -40t-39 -22q-17 -1 -39.5 22zM888.5 -182q-22.5 23 -22.5 40q0 18 22 39.5t40 22.5
q18 -1 40 -22.5t22 -39.5q0 -17 -23 -40t-39 -22q-17 -1 -39.5 22z" />
    <glyph glyph-name="uniFCFB" unicode="&#xfcfb;" horiz-adv-x="1764" arabic-form="isolated" 
d="M1671 369q8 -59 8 -108q0 -103 -18.5 -158.5t-61 -79t-120.5 -23.5q-63 0 -102 7t-62 25q-24 -18 -64.5 -25t-106.5 -7h-192v359h-475v-159l154 -16q56 -6 87 -26t43 -57t12 -100v-73q0 -83 -30 -126.5t-107 -61.5t-229 -18q-144 0 -213.5 14.5t-97.5 56.5t-28 131
q0 57 8.5 118t22.5 105l96 -16q-14 -58 -21.5 -101.5t-7.5 -81.5q0 -69 12 -116h282q86 0 131 4.5t64.5 15.5t19.5 33v185l-138 16q-67 8 -102 28.5t-48.5 58.5t-13.5 105q0 74 16.5 114.5t58 59t117.5 18.5h485v-359h139q42 0 59.5 11t17.5 42v216h99v-175q0 -30 -1 -43
q1 -30 18.5 -40.5t58.5 -10.5h128q12 53 12 145q0 79 -27 197l97 15q12 -40 20 -99z" />
    <glyph glyph-name="uniFCFC" unicode="&#xfcfc;" horiz-adv-x="1764" arabic-form="isolated" 
d="M68 0zM1671 369q8 -59 8 -108q0 -103 -18.5 -158.5t-61 -79t-120.5 -23.5q-63 0 -102 7t-62 25q-24 -18 -64.5 -25t-106.5 -7h-192v359h-475v-159l154 -16q56 -6 87 -26t43 -57t12 -100v-73q0 -83 -30 -126.5t-107 -61.5t-229 -18q-144 0 -213.5 14.5t-97.5 56.5t-28 131
q0 57 8.5 118t22.5 105l96 -16q-14 -58 -21.5 -101.5t-7.5 -81.5q0 -69 12 -116h282q86 0 131 4.5t64.5 15.5t19.5 33v185l-138 16q-67 8 -102 28.5t-48.5 58.5t-13.5 105q0 74 16.5 114.5t58 59t117.5 18.5h485v-359h139q42 0 59.5 11t17.5 42v216h99v-175q0 -30 -1 -43
q1 -30 18.5 -40.5t58.5 -10.5h128q12 53 12 145q0 79 -27 197l97 15q12 -40 20 -99zM315.5 -432q-22.5 23 -22.5 40q0 18 22 39.5t40 22.5q18 -1 40 -22.5t22 -39.5q0 -17 -23 -40t-39 -22q-17 -1 -39.5 22zM470.5 -432q-22.5 23 -22.5 40q0 18 22 39.5t40 22.5
q18 -1 40 -22.5t22 -39.5q0 -17 -23 -40t-39 -22q-17 -1 -39.5 22z" />
    <glyph glyph-name="uniFD0D" unicode="&#xfd0d;" horiz-adv-x="1268" arabic-form="isolated" 
d="M25 0zM553 0h-98v359h-230v-353q0 -105 -37.5 -168t-122.5 -103l-40 87q58 27 79.5 66.5t21.5 117.5v464h427v-470zM1175 369q8 -59 8 -108q0 -103 -18.5 -158.5t-61 -79t-120.5 -23.5q-63 0 -102 7t-62 25q-24 -18 -64.5 -25t-106.5 -7h-94v111h139q42 0 59.5 11
t17.5 42v216h99v-175q0 -30 -1 -43q1 -30 18.5 -40.5t58.5 -10.5h128q12 53 12 145q0 79 -27 197l97 15q12 -40 20 -99zM702.5 611q-22.5 23 -22.5 40q0 18 22 39.5t40 22.5q18 -1 40 -22.5t22 -39.5q0 -17 -23 -40t-39 -22q-17 -1 -39.5 22zM857.5 611q-22.5 23 -22.5 40
q0 18 22 39.5t40 22.5q18 -1 40 -22.5t22 -39.5q0 -17 -23 -40t-39 -22q-17 -1 -39.5 22zM779.5 774q-22.5 23 -22.5 40q0 18 22 39.5t40 22.5q18 -1 40 -22.5t22 -39.5q0 -17 -23 -40t-39 -22q-17 -1 -39.5 22z" />
    <glyph glyph-name="uniFD0E" unicode="&#xfd0e;" horiz-adv-x="1268" arabic-form="isolated" 
d="M553 0h-98v359h-230v-353q0 -105 -37.5 -168t-122.5 -103l-40 87q58 27 79.5 66.5t21.5 117.5v464h427v-470zM1175 369q8 -59 8 -108q0 -103 -18.5 -158.5t-61 -79t-120.5 -23.5q-63 0 -102 7t-62 25q-24 -18 -64.5 -25t-106.5 -7h-94v111h139q42 0 59.5 11t17.5 42v216
h99v-175q0 -30 -1 -43q1 -30 18.5 -40.5t58.5 -10.5h128q12 53 12 145q0 79 -27 197l97 15q12 -40 20 -99z" />
    <glyph glyph-name="uniFD0F" unicode="&#xfd0f;" horiz-adv-x="1135" arabic-form="isolated" 
d="M978.5 467.5q35.5 -12.5 51 -42t15.5 -81.5v-344h-590v359h-230v-353q0 -106 -37.5 -169t-122.5 -102l-40 87q58 27 79.5 66t21.5 118v464h427v-171q33 86 118.5 133.5t206.5 47.5q65 0 100.5 -12.5zM947 110v248q-35 11 -113 11q-132 0 -201.5 -64t-78.5 -195h393z" />
    <glyph glyph-name="uniFD10" unicode="&#xfd10;" horiz-adv-x="1135" arabic-form="isolated" 
d="M25 0zM978.5 467.5q35.5 -12.5 51 -42t15.5 -81.5v-344h-590v359h-230v-353q0 -106 -37.5 -169t-122.5 -102l-40 87q58 27 79.5 66t21.5 118v464h427v-171q33 86 118.5 133.5t206.5 47.5q65 0 100.5 -12.5zM947 110v248q-35 11 -113 11q-132 0 -201.5 -64t-78.5 -195h393
zM755.5 611q-22.5 23 -22.5 40q0 18 22 39.5t40 22.5q18 -1 40 -22.5t22 -39.5q0 -17 -23 -40t-39 -22q-17 -1 -39.5 22z" />
    <glyph glyph-name="uniFD17" unicode="&#xfd17;" horiz-adv-x="1773" arabic-form="final" 
d="M1793 111v-111h-313h-1q-63 0 -102 7t-62 25q-24 -18 -64.5 -25t-106.5 -7h-192v359h-475v-159l154 -16q56 -6 87 -26t43 -57t12 -100v-73q0 -83 -30 -126.5t-107 -61.5t-229 -18q-144 0 -213.5 14.5t-97.5 56.5t-28 131q0 57 8.5 118t22.5 105l96 -16
q-14 -58 -21.5 -101.5t-7.5 -81.5q0 -69 12 -116h282q86 0 131 4.5t64.5 15.5t19.5 33v185l-138 16q-67 8 -102 28.5t-48.5 58.5t-13.5 105q0 74 16.5 114.5t58 59t117.5 18.5h485v-359h139q42 0 59.5 11t17.5 42v216h99v-175q0 -30 -1 -43q1 -30 18.5 -40.5t58.5 -10.5h128
q12 53 12 145q0 79 -27 197l97 15q12 -40 20 -99t8 -108q0 -95 -16 -150h130z" />
    <glyph glyph-name="uniFD18" unicode="&#xfd18;" horiz-adv-x="1773" arabic-form="final" 
d="M68 0zM1793 111v-111h-313h-1q-63 0 -102 7t-62 25q-24 -18 -64.5 -25t-106.5 -7h-192v359h-475v-159l154 -16q56 -6 87 -26t43 -57t12 -100v-73q0 -83 -30 -126.5t-107 -61.5t-229 -18q-144 0 -213.5 14.5t-97.5 56.5t-28 131q0 57 8.5 118t22.5 105l96 -16
q-14 -58 -21.5 -101.5t-7.5 -81.5q0 -69 12 -116h282q86 0 131 4.5t64.5 15.5t19.5 33v185l-138 16q-67 8 -102 28.5t-48.5 58.5t-13.5 105q0 74 16.5 114.5t58 59t117.5 18.5h485v-359h139q42 0 59.5 11t17.5 42v216h99v-175q0 -30 -1 -43q1 -30 18.5 -40.5t58.5 -10.5h128
q12 53 12 145q0 79 -27 197l97 15q12 -40 20 -99t8 -108q0 -95 -16 -150h130zM315.5 -432q-22.5 23 -22.5 40q0 18 22 39.5t40 22.5q18 -1 40 -22.5t22 -39.5q0 -17 -23 -40t-39 -22q-17 -1 -39.5 22zM470.5 -432q-22.5 23 -22.5 40q0 18 22 39.5t40 22.5q18 -1 40 -22.5
t22 -39.5q0 -17 -23 -40t-39 -22q-17 -1 -39.5 22z" />
    <glyph glyph-name="uniFD29" unicode="&#xfd29;" horiz-adv-x="1276" arabic-form="final" 
d="M25 0zM553 0h-98v359h-230v-353q0 -105 -37.5 -168t-122.5 -103l-40 87q58 27 79.5 66.5t21.5 117.5v464h427v-470zM1297 111v-111h-313h-1q-63 0 -102 7t-62 25q-24 -18 -64.5 -25t-106.5 -7h-94v111h139q42 0 59.5 11t17.5 42v216h99v-175q0 -30 -1 -43
q1 -30 18.5 -40.5t58.5 -10.5h128q12 53 12 145q0 79 -27 197l97 15q12 -40 20 -99t8 -108q0 -95 -16 -150h130zM702.5 611q-22.5 23 -22.5 40q0 18 22 39.5t40 22.5q18 -1 40 -22.5t22 -39.5q0 -17 -23 -40t-39 -22q-17 -1 -39.5 22zM857.5 611q-22.5 23 -22.5 40
q0 18 22 39.5t40 22.5q18 -1 40 -22.5t22 -39.5q0 -17 -23 -40t-39 -22q-17 -1 -39.5 22zM779.5 774q-22.5 23 -22.5 40q0 18 22 39.5t40 22.5q18 -1 40 -22.5t22 -39.5q0 -17 -23 -40t-39 -22q-17 -1 -39.5 22z" />
    <glyph glyph-name="uniFD2A" unicode="&#xfd2a;" horiz-adv-x="1276" arabic-form="final" 
d="M553 0h-98v359h-230v-353q0 -105 -37.5 -168t-122.5 -103l-40 87q58 27 79.5 66.5t21.5 117.5v464h427v-470zM1297 111v-111h-313h-1q-63 0 -102 7t-62 25q-24 -18 -64.5 -25t-106.5 -7h-94v111h139q42 0 59.5 11t17.5 42v216h99v-175q0 -30 -1 -43q1 -30 18.5 -40.5
t58.5 -10.5h128q12 53 12 145q0 79 -27 197l97 15q12 -40 20 -99t8 -108q0 -95 -16 -150h130z" />
    <glyph glyph-name="uniFD2B" unicode="&#xfd2b;" horiz-adv-x="1139" arabic-form="final" 
d="M978.5 467.5q35.5 -12.5 51 -42t15.5 -81.5v-344h-590v359h-230v-353q0 -106 -37.5 -169t-122.5 -102l-40 87q58 27 79.5 66t21.5 118v464h427v-171q33 86 118.5 133.5t206.5 47.5q65 0 100.5 -12.5zM947 110v248q-35 11 -113 11q-132 0 -201.5 -64t-78.5 -195h393z
M1159 111v-111h-113v111h113z" />
    <glyph glyph-name="uniFD2C" unicode="&#xfd2c;" horiz-adv-x="1139" arabic-form="final" 
d="M25 0zM978.5 467.5q35.5 -12.5 51 -42t15.5 -81.5v-344h-590v359h-230v-353q0 -106 -37.5 -169t-122.5 -102l-40 87q58 27 79.5 66t21.5 118v464h427v-171q33 86 118.5 133.5t206.5 47.5q65 0 100.5 -12.5zM947 110v248q-35 11 -113 11q-132 0 -201.5 -64t-78.5 -195h393
zM1159 111v-111h-113v111h113zM759.5 611q-22.5 23 -22.5 40q0 18 22 39.5t40 22.5q18 -1 40 -22.5t22 -39.5q0 -17 -23 -40t-39 -22q-17 -1 -39.5 22z" />
    <glyph glyph-name="uniFE82" unicode="&#x622;" horiz-adv-x="285" arabic-form="final" 
d="M19 0zM93 470h98v-359h114v-111h-212v470zM132.5 616.5q-11.5 7.5 -35.5 33.5l-61 -29l-17 32q49 37 71 49t36 12q12 0 22.5 -7.5t36.5 -33.5l61 28l17 -31q-45 -35 -68 -48t-38 -13q-13 0 -24.5 7.5z" />
    <glyph glyph-name="uniFE84" unicode="&#x623;" horiz-adv-x="285" arabic-form="final" 
d="M27 0zM93 470h98v-359h114v-111h-212v470zM257 691v-52l-230 -62v52l42 12q-10 23 -10 68q0 77 44 108.5t129 33.5v-62q-58 -2 -102 -23l-1 -78q0 -24 21 -24q5 0 23 4z" />
    <glyph glyph-name="uniFE86" unicode="&#x624;" horiz-adv-x="618" arabic-form="final" 
d="M77 0zM637 0h-142q-26 -75 -78 -147.5t-117 -123.5l-63 75q48 39 88 90.5t64 105.5h-150q-63 0 -97.5 22t-49.5 73.5t-15 146.5t20 146t67 72t135 21q66 0 115 -7.5t101 -25.5v-337h122v-111zM371 111q26 0 35.5 10t9.5 37v212h-186q-29 0 -39 -10.5t-10 -40.5v-208h190z
M413 691v-52l-230 -62v52l42 12q-10 23 -10 68q0 77 44 108.5t129 33.5v-62q-58 -2 -102 -23l-1 -78q0 -24 21 -24q5 0 23 4z" />
    <glyph glyph-name="uniFE88" unicode="&#x625;" horiz-adv-x="285" arabic-form="final" 
d="M27 0zM93 630h98v-519h114v-111h-212v630zM257 -238v-52l-230 -62v52l42 12q-10 23 -10 68q0 77 44 108.5t129 33.5v-62q-58 -2 -102 -23l-1 -78q0 -24 21 -24q5 0 23 4z" />
    <glyph glyph-name="uniFE8A" unicode="&#x626;" horiz-adv-x="866" arabic-form="final" 
d="M59 0zM886 111v-111h-113v-72q0 -83 -30 -126.5t-107 -61.5t-229 -18q-144 0 -213.5 14.5t-97.5 56.5t-28 131q0 57 8.5 118t22.5 105l96 -16q-14 -58 -21.5 -101.5t-7.5 -81.5q0 -69 12 -116h282q86 0 131 4.5t64.5 15.5t19.5 33v115h-39q-52 0 -109.5 8.5t-99.5 22.5
l16 104q93 -24 171 -24h272zM289 381v-52l-230 -62v52l42 12q-10 23 -10 68q0 77 44 108.5t129 33.5v-62q-58 -2 -102 -23l-1 -78q0 -24 21 -24q5 0 23 4z" />
    <glyph glyph-name="uniFE8B" unicode="&#x626;" horiz-adv-x="329" arabic-form="initial" 
d="M0 0zM-20 111h158v359h98v-470h-256v111zM302 691v-52l-230 -62v52l42 12q-10 23 -10 68q0 77 44 108.5t129 33.5v-62q-58 -2 -102 -23l-1 -78q0 -24 21 -24q5 0 23 4z" />
    <glyph glyph-name="uniFE8C" unicode="&#x626;" horiz-adv-x="329" arabic-form="medial" 
d="M0 0zM349 111v-111h-369v111h158v359h98v-359h113zM302 691v-52l-230 -62v52l42 12q-10 23 -10 68q0 77 44 108.5t129 33.5v-62q-58 -2 -102 -23l-1 -78q0 -24 21 -24q5 0 23 4z" />
    <glyph glyph-name="uniFE8E" unicode="&#x627;" horiz-adv-x="285" arabic-form="final" 
d="M93 630h98v-519h114v-111h-212v630z" />
    <glyph glyph-name="uniFE90" unicode="&#x628;" horiz-adv-x="893" arabic-form="final" 
d="M65 0zM913 111v-111h-699q-55 0 -87 21t-47 66.5t-15 122.5q0 47 8 96.5t21 86.5l94 -15q-25 -81 -25 -145q0 -77 16 -122h522v359h99v-359h113zM404.5 -190q-22.5 23 -22.5 40q0 18 22 39.5t40 22.5q18 -1 40 -22.5t22 -39.5q0 -17 -22.5 -40t-39.5 -22q-17 -1 -39.5 22
z" />
    <glyph glyph-name="uniFE91" unicode="&#x628;" horiz-adv-x="329" arabic-form="initial" 
d="M0 0zM-20 111h158v359h98v-470h-256v111zM147.5 -182q-22.5 23 -22.5 40q0 18 22 39.5t40 22.5q18 -1 40 -22.5t22 -39.5q0 -17 -22.5 -40t-39.5 -22q-17 -1 -39.5 22z" />
    <glyph glyph-name="uniFE92" unicode="&#x628;" horiz-adv-x="329" arabic-form="medial" 
d="M0 0zM349 111v-111h-369v111h158v359h98v-359h113zM147.5 -182q-22.5 23 -22.5 40q0 18 22 39.5t40 22.5q18 -1 40 -22.5t22 -39.5q0 -17 -22.5 -40t-39.5 -22q-17 -1 -39.5 22z" />
    <glyph glyph-name="uniFE94" unicode="&#x629;" horiz-adv-x="625" arabic-form="final" 
d="M79 0zM645 111v-111h-354q-92 0 -135.5 18t-60 66.5t-16.5 150.5t16.5 150.5t60 66.5t135.5 18h250v-359h104zM443 359h-198q-32 0 -46.5 -12t-14.5 -38v-148q0 -26 14.5 -38t46.5 -12h198v248zM201.5 611q-22.5 23 -22.5 40q0 18 22 39.5t40 22.5q18 -1 40 -22.5
t22 -39.5q0 -17 -23 -40t-39 -22q-17 -1 -39.5 22zM356.5 611q-22.5 23 -22.5 40q0 18 22 39.5t40 22.5q18 -1 40 -22.5t22 -39.5q0 -17 -23 -40t-39 -22q-17 -1 -39.5 22z" />
    <glyph glyph-name="uniFE96" unicode="&#x62a;" horiz-adv-x="893" arabic-form="final" 
d="M65 0zM913 111v-111h-699q-55 0 -87 21t-47 66.5t-15 122.5q0 47 8 96.5t21 86.5l94 -15q-25 -81 -25 -145q0 -77 16 -122h522v359h99v-359h113zM327.5 511q-22.5 23 -22.5 40q0 18 22 39.5t40 22.5q18 -1 40 -22.5t22 -39.5q0 -17 -23 -40t-39 -22q-17 -1 -39.5 22z
M482.5 511q-22.5 23 -22.5 40q0 18 22 39.5t40 22.5q18 -1 40 -22.5t22 -39.5q0 -17 -23 -40t-39 -22q-17 -1 -39.5 22z" />
    <glyph glyph-name="uniFE97" unicode="&#x62a;" horiz-adv-x="329" arabic-form="initial" 
d="M0 0zM-20 111h158v359h98v-470h-256v111zM70.5 611q-22.5 23 -22.5 40q0 18 22 39.5t40 22.5q18 -1 40 -22.5t22 -39.5q0 -17 -23 -40t-39 -22q-17 -1 -39.5 22zM225.5 611q-22.5 23 -22.5 40q0 18 22 39.5t40 22.5q18 -1 40 -22.5t22 -39.5q0 -17 -23 -40t-39 -22
q-17 -1 -39.5 22z" />
    <glyph glyph-name="uniFE98" unicode="&#x62a;" horiz-adv-x="329" arabic-form="medial" 
d="M0 0zM349 111v-111h-369v111h158v359h98v-359h113zM70.5 611q-22.5 23 -22.5 40q0 18 22 39.5t40 22.5q18 -1 40 -22.5t22 -39.5q0 -17 -23 -40t-39 -22q-17 -1 -39.5 22zM225.5 611q-22.5 23 -22.5 40q0 18 22 39.5t40 22.5q18 -1 40 -22.5t22 -39.5q0 -17 -23 -40
t-39 -22q-17 -1 -39.5 22z" />
    <glyph glyph-name="uniFE9A" unicode="&#x62b;" horiz-adv-x="893" arabic-form="final" 
d="M65 0zM913 111v-111h-699q-55 0 -87 21t-47 66.5t-15 122.5q0 47 8 96.5t21 86.5l94 -15q-25 -81 -25 -145q0 -77 16 -122h522v359h99v-359h113zM327.5 511q-22.5 23 -22.5 40q0 18 22 39.5t40 22.5q18 -1 40 -22.5t22 -39.5q0 -17 -23 -40t-39 -22q-17 -1 -39.5 22z
M482.5 511q-22.5 23 -22.5 40q0 18 22 39.5t40 22.5q18 -1 40 -22.5t22 -39.5q0 -17 -23 -40t-39 -22q-17 -1 -39.5 22zM404.5 674q-22.5 23 -22.5 40q0 18 22 39.5t40 22.5q18 -1 40 -22.5t22 -39.5q0 -17 -23 -40t-39 -22q-17 -1 -39.5 22z" />
    <glyph glyph-name="uniFE9B" unicode="&#x62b;" horiz-adv-x="329" arabic-form="initial" 
d="M0 0zM-20 111h158v359h98v-470h-256v111zM70.5 611q-22.5 23 -22.5 40q0 18 22 39.5t40 22.5q18 -1 40 -22.5t22 -39.5q0 -17 -23 -40t-39 -22q-17 -1 -39.5 22zM225.5 611q-22.5 23 -22.5 40q0 18 22 39.5t40 22.5q18 -1 40 -22.5t22 -39.5q0 -17 -23 -40t-39 -22
q-17 -1 -39.5 22zM147.5 774q-22.5 23 -22.5 40q0 18 22 39.5t40 22.5q18 -1 40 -22.5t22 -39.5q0 -17 -23 -40t-39 -22q-17 -1 -39.5 22z" />
    <glyph glyph-name="uniFE9C" unicode="&#x62b;" horiz-adv-x="329" arabic-form="medial" 
d="M0 0zM349 111v-111h-369v111h158v359h98v-359h113zM70.5 611q-22.5 23 -22.5 40q0 18 22 39.5t40 22.5q18 -1 40 -22.5t22 -39.5q0 -17 -23 -40t-39 -22q-17 -1 -39.5 22zM225.5 611q-22.5 23 -22.5 40q0 18 22 39.5t40 22.5q18 -1 40 -22.5t22 -39.5q0 -17 -23 -40
t-39 -22q-17 -1 -39.5 22zM147.5 774q-22.5 23 -22.5 40q0 18 22 39.5t40 22.5q18 -1 40 -22.5t22 -39.5q0 -17 -23 -40t-39 -22q-17 -1 -39.5 22z" />
    <glyph glyph-name="uniFE9E" unicode="&#x62c;" horiz-adv-x="584" arabic-form="final" 
d="M603 111v-111h-70q-30 0 -48 13t-29 43l-40 104q-134 -9 -198.5 -46t-64.5 -111v-166q45 -8 132 -8q41 0 81 5t93 18l13 -105q-42 -14 -100 -21.5t-118 -7.5q-85 0 -129 21.5t-60.5 70.5t-16.5 141q0 144 80.5 212t254.5 83q-32 69 -80.5 96.5t-138.5 27.5q-49 0 -94 -4
l-16 108q63 7 116 7q126 0 196 -49t112 -162l60 -159h65zM270 12q21 21 38 22q17 -1 38 -22t21 -38q0 -16 -21.5 -38t-37.5 -21q-16 -1 -37.5 21t-21.5 38q0 17 21 38z" />
    <glyph glyph-name="uniFE9F" unicode="&#x62c;" horiz-adv-x="563" arabic-form="initial" 
d="M0 0zM563 284v-111h-96q-13 0 -19 1q-47 -84 -123.5 -129t-181.5 -45h-163v111h183q79 0 132.5 41.5t82.5 104.5q-29 63 -77.5 88t-136.5 25q-47 0 -94 -4l-16 108q60 7 116 7q123 0 192 -45.5t110 -151.5h91zM231.5 -182q-22.5 23 -22.5 40q0 18 22 39.5t40 22.5
q18 -1 40 -22.5t22 -39.5q0 -17 -22.5 -40t-39.5 -22q-17 -1 -39.5 22z" />
    <glyph glyph-name="uniFEA0" unicode="&#x62c;" horiz-adv-x="583" arabic-form="medial" 
d="M0 0zM603 111v-111h-70q-30 0 -48 13t-29 43l-30 78q-44 -65 -110 -99.5t-151 -34.5h-185v111h213q68 0 113.5 40.5t72.5 103.5q-32 63 -80 89t-135 26q-47 0 -94 -4l-16 108q60 7 116 7q127 0 197 -49t111 -162l60 -159h65zM237.5 -182q-22.5 23 -22.5 40q0 18 22 39.5
t40 22.5q18 -1 40 -22.5t22 -39.5q0 -17 -22.5 -40t-39.5 -22q-17 -1 -39.5 22z" />
    <glyph glyph-name="uniFEA2" unicode="&#x62d;" horiz-adv-x="584" arabic-form="final" 
d="M603 111v-111h-70q-30 0 -48 13t-29 43l-40 104q-134 -9 -198.5 -46t-64.5 -111v-166q45 -8 132 -8q41 0 81 5t93 18l13 -105q-42 -14 -100 -21.5t-118 -7.5q-85 0 -129 21.5t-60.5 70.5t-16.5 141q0 144 80.5 212t254.5 83q-32 69 -80.5 96.5t-138.5 27.5q-49 0 -94 -4
l-16 108q63 7 116 7q126 0 196 -49t112 -162l60 -159h65z" />
    <glyph glyph-name="uniFEA3" unicode="&#x62d;" horiz-adv-x="563" arabic-form="initial" 
d="M563 284v-111h-96q-13 0 -19 1q-47 -84 -123.5 -129t-181.5 -45h-163v111h183q79 0 132.5 41.5t82.5 104.5q-29 63 -77.5 88t-136.5 25q-47 0 -94 -4l-16 108q60 7 116 7q123 0 192 -45.5t110 -151.5h91z" />
    <glyph glyph-name="uniFEA4" unicode="&#x62d;" horiz-adv-x="583" arabic-form="medial" 
d="M603 111v-111h-70q-30 0 -48 13t-29 43l-30 78q-44 -65 -110 -99.5t-151 -34.5h-185v111h213q68 0 113.5 40.5t72.5 103.5q-32 63 -80 89t-135 26q-47 0 -94 -4l-16 108q60 7 116 7q127 0 197 -49t111 -162l60 -159h65z" />
    <glyph glyph-name="uniFEA6" unicode="&#x62e;" horiz-adv-x="584" arabic-form="final" 
d="M48 0zM603 111v-111h-70q-30 0 -48 13t-29 43l-40 104q-134 -9 -198.5 -46t-64.5 -111v-166q45 -8 132 -8q41 0 81 5t93 18l13 -105q-42 -14 -100 -21.5t-118 -7.5q-85 0 -129 21.5t-60.5 70.5t-16.5 141q0 144 80.5 212t254.5 83q-32 69 -80.5 96.5t-138.5 27.5
q-49 0 -94 -4l-16 108q63 7 116 7q126 0 196 -49t112 -162l60 -159h65zM244.5 634q-22.5 23 -22.5 40q0 18 22 39.5t40 22.5q18 -1 40 -22.5t22 -39.5q0 -17 -23 -40t-39 -22q-17 -1 -39.5 22z" />
    <glyph glyph-name="uniFEA7" unicode="&#x62e;" horiz-adv-x="563" arabic-form="initial" 
d="M0 0zM563 284v-111h-96q-13 0 -19 1q-47 -84 -123.5 -129t-181.5 -45h-163v111h183q79 0 132.5 41.5t82.5 104.5q-29 63 -77.5 88t-136.5 25q-47 0 -94 -4l-16 108q60 7 116 7q123 0 192 -45.5t110 -151.5h91zM210.5 611q-22.5 23 -22.5 40q0 18 22 39.5t40 22.5
q18 -1 40 -22.5t22 -39.5q0 -17 -23 -40t-39 -22q-17 -1 -39.5 22z" />
    <glyph glyph-name="uniFEA8" unicode="&#x62e;" horiz-adv-x="583" arabic-form="medial" 
d="M0 0zM603 111v-111h-70q-30 0 -48 13t-29 43l-30 78q-44 -65 -110 -99.5t-151 -34.5h-185v111h213q68 0 113.5 40.5t72.5 103.5q-32 63 -80 89t-135 26q-47 0 -94 -4l-16 108q60 7 116 7q127 0 197 -49t111 -162l60 -159h65zM210.5 611q-22.5 23 -22.5 40q0 18 22 39.5
t40 22.5q18 -1 40 -22.5t22 -39.5q0 -17 -23 -40t-39 -22q-17 -1 -39.5 22z" />
    <glyph glyph-name="uniFEAA" unicode="&#x62f;" horiz-adv-x="504" arabic-form="final" 
d="M524 111v-111h-504v111h331q-31 117 -55.5 172.5t-55.5 76t-85 20.5q-43 0 -85 -10l-28 107q58 14 113 14q92 0 139.5 -25.5t83 -102t84.5 -252.5h62z" />
    <glyph glyph-name="uniFEAC" unicode="&#x630;" horiz-adv-x="504" arabic-form="final" 
d="M20 0zM524 111v-111h-504v111h331q-31 117 -55.5 172.5t-55.5 76t-85 20.5q-43 0 -85 -10l-28 107q58 14 113 14q92 0 139.5 -25.5t83 -102t84.5 -252.5h62zM144.5 611q-22.5 23 -22.5 40q0 18 22 39.5t40 22.5q18 -1 40 -22.5t22 -39.5q0 -17 -23 -40t-39 -22
q-17 -1 -39.5 22z" />
    <glyph glyph-name="uniFEAE" unicode="&#x631;" horiz-adv-x="317" arabic-form="final" 
d="M337 0h-112q-1 -102 -38.5 -164t-121.5 -101l-40 87q58 27 79.5 66.5t21.5 117.5v464h99v-359h112v-111z" />
    <glyph glyph-name="uniFEB0" unicode="&#x632;" horiz-adv-x="317" arabic-form="final" 
d="M25 0zM337 0h-112q-1 -102 -38.5 -164t-121.5 -101l-40 87q58 27 79.5 66.5t21.5 117.5v464h99v-359h112v-111zM135.5 611q-22.5 23 -22.5 40q0 18 22 39.5t40 22.5q18 -1 40 -22.5t22 -39.5q0 -17 -23 -40t-39 -22q-17 -1 -39.5 22z" />
    <glyph glyph-name="uniFEB2" unicode="&#x633;" horiz-adv-x="1296" arabic-form="final" 
d="M1316 111v-111h-313q-63 0 -102 7.5t-62 25.5q-24 -18 -65 -25.5t-107 -7.5h-94v-26q0 -90 -20 -134.5t-75 -62t-169 -17.5q-106 0 -156.5 19t-67.5 66t-17 145q0 57 7.5 115.5t21.5 101.5l97 -15q-28 -114 -28 -182q0 -86 12 -139h171q71 0 98.5 11t27.5 42v456h98v-269
h139q42 0 59.5 11t17.5 42v216h99v-216q0 -31 17.5 -42t59.5 -11h128q12 53 12 145q0 79 -27 197l97 15q12 -40 20 -99t8 -108q0 -95 -16 -150h129z" />
    <glyph glyph-name="uniFEB3" unicode="&#x633;" horiz-adv-x="950" arabic-form="initial" 
d="M857 369q8 -59 8 -108q0 -103 -18.5 -158.5t-61 -79t-120.5 -23.5q-63 0 -102 7t-62 25q-24 -18 -64.5 -25t-106.5 -7h-350v111h158v269h98v-269h139q42 0 59.5 11t17.5 42v216h99v-175q0 -30 -1 -43q1 -30 18.5 -40.5t58.5 -10.5h128q12 53 12 145q0 79 -27 197l97 15
q12 -40 20 -99z" />
    <glyph glyph-name="uniFEB4" unicode="&#x633;" horiz-adv-x="959" arabic-form="medial" 
d="M978 111v-111h-315q-61 0 -100 7.5t-62 24.5q-24 -18 -64.5 -25t-106.5 -7h-350v111h158v269h98v-269h139q42 0 59.5 11t17.5 42v216h99v-175q0 -30 -1 -43q1 -30 18.5 -40.5t58.5 -10.5h128q12 53 12 145q0 79 -27 197l97 15q12 -40 20 -99t8 -108q0 -95 -16 -150h129z
" />
    <glyph glyph-name="uniFEB6" unicode="&#x634;" horiz-adv-x="1296" arabic-form="final" 
d="M68 0zM1316 111v-111h-313q-63 0 -102 7.5t-62 25.5q-24 -18 -65 -25.5t-107 -7.5h-94v-26q0 -90 -20 -134.5t-75 -62t-169 -17.5q-106 0 -156.5 19t-67.5 66t-17 145q0 57 7.5 115.5t21.5 101.5l97 -15q-28 -114 -28 -182q0 -86 12 -139h171q71 0 98.5 11t27.5 42v456
h98v-269h139q42 0 59.5 11t17.5 42v216h99v-216q0 -31 17.5 -42t59.5 -11h128q12 53 12 145q0 79 -27 197l97 15q12 -40 20 -99t8 -108q0 -95 -16 -150h129zM729.5 611q-22.5 23 -22.5 40q0 18 22 39.5t40 22.5q18 -1 40 -22.5t22 -39.5q0 -17 -23 -40t-39 -22
q-17 -1 -39.5 22zM884.5 611q-22.5 23 -22.5 40q0 18 22 39.5t40 22.5q18 -1 40 -22.5t22 -39.5q0 -17 -23 -40t-39 -22q-17 -1 -39.5 22zM806.5 774q-22.5 23 -22.5 40q0 18 22 39.5t40 22.5q18 -1 40 -22.5t22 -39.5q0 -17 -23 -40t-39 -22q-17 -1 -39.5 22z" />
    <glyph glyph-name="uniFEB7" unicode="&#x634;" horiz-adv-x="950" arabic-form="initial" 
d="M0 0zM857 369q8 -59 8 -108q0 -103 -18.5 -158.5t-61 -79t-120.5 -23.5q-63 0 -102 7t-62 25q-24 -18 -64.5 -25t-106.5 -7h-350v111h158v269h98v-269h139q42 0 59.5 11t17.5 42v216h99v-175q0 -30 -1 -43q1 -30 18.5 -40.5t58.5 -10.5h128q12 53 12 145q0 79 -27 197
l97 15q12 -40 20 -99zM392.5 611q-22.5 23 -22.5 40q0 18 22 39.5t40 22.5q18 -1 40 -22.5t22 -39.5q0 -17 -23 -40t-39 -22q-17 -1 -39.5 22zM547.5 611q-22.5 23 -22.5 40q0 18 22 39.5t40 22.5q18 -1 40 -22.5t22 -39.5q0 -17 -23 -40t-39 -22q-17 -1 -39.5 22z
M469.5 774q-22.5 23 -22.5 40q0 18 22 39.5t40 22.5q18 -1 40 -22.5t22 -39.5q0 -17 -23 -40t-39 -22q-17 -1 -39.5 22z" />
    <glyph glyph-name="uniFEB8" unicode="&#x634;" horiz-adv-x="959" arabic-form="medial" 
d="M0 0zM978 111v-111h-315q-61 0 -100 7.5t-62 24.5q-24 -18 -64.5 -25t-106.5 -7h-350v111h158v269h98v-269h139q42 0 59.5 11t17.5 42v216h99v-175q0 -30 -1 -43q1 -30 18.5 -40.5t58.5 -10.5h128q12 53 12 145q0 79 -27 197l97 15q12 -40 20 -99t8 -108q0 -95 -16 -150
h129zM392.5 611q-22.5 23 -22.5 40q0 18 22 39.5t40 22.5q18 -1 40 -22.5t22 -39.5q0 -17 -23 -40t-39 -22q-17 -1 -39.5 22zM547.5 611q-22.5 23 -22.5 40q0 18 22 39.5t40 22.5q18 -1 40 -22.5t22 -39.5q0 -17 -23 -40t-39 -22q-17 -1 -39.5 22zM469.5 774
q-22.5 23 -22.5 40q0 18 22 39.5t40 22.5q18 -1 40 -22.5t22 -39.5q0 -17 -23 -40t-39 -22q-17 -1 -39.5 22z" />
    <glyph glyph-name="uniFEBA" unicode="&#x635;" horiz-adv-x="1160" arabic-form="final" 
d="M1180 111v-111h-607v-26q0 -90 -20 -134.5t-75 -62t-169 -17.5q-106 0 -156.5 19t-67.5 66t-17 145q0 57 7.5 115.5t21.5 101.5l97 -15q-28 -114 -28 -182q0 -86 12 -139h171q71 0 98.5 11t27.5 42v546h98v-171q33 86 118.5 133.5t206.5 47.5q65 0 100.5 -12.5t51 -41.5
t15.5 -82v-233h115zM967 111v247q-35 11 -113 11q-132 0 -201.5 -64t-78.5 -194h393z" />
    <glyph glyph-name="uniFEBB" unicode="&#x635;" horiz-adv-x="817" arabic-form="initial" 
d="M661.5 467.5q35.5 -12.5 51 -41.5t15.5 -82v-344h-748v111h158v359h98v-171q33 86 118.5 133.5t206.5 47.5q65 0 100.5 -12.5zM630 111v247q-35 11 -113 11q-132 0 -201.5 -64t-78.5 -194h393z" />
    <glyph glyph-name="uniFEBC" unicode="&#x635;" horiz-adv-x="821" arabic-form="medial" 
d="M841 111v-111h-861v111h158v359h98v-171q33 86 118.5 133.5t206.5 47.5q65 0 100.5 -12.5t51 -41.5t15.5 -82v-233h113zM315.5 305q-69.5 -64 -78.5 -194h393v247q-35 11 -113 11q-132 0 -201.5 -64z" />
    <glyph glyph-name="uniFEBE" unicode="&#x636;" horiz-adv-x="1160" arabic-form="final" 
d="M68 0zM1180 111v-111h-607v-26q0 -90 -20 -134.5t-75 -62t-169 -17.5q-106 0 -156.5 19t-67.5 66t-17 145q0 57 7.5 115.5t21.5 101.5l97 -15q-28 -114 -28 -182q0 -86 12 -139h171q71 0 98.5 11t27.5 42v546h98v-171q33 86 118.5 133.5t206.5 47.5q65 0 100.5 -12.5
t51 -41.5t15.5 -82v-233h115zM967 111v247q-35 11 -113 11q-132 0 -201.5 -64t-78.5 -194h393zM797.5 611q-22.5 23 -22.5 40q0 18 22 39.5t40 22.5q18 -1 40 -22.5t22 -39.5q0 -17 -23 -40t-39 -22q-17 -1 -39.5 22z" />
    <glyph glyph-name="uniFEBF" unicode="&#x636;" horiz-adv-x="817" arabic-form="initial" 
d="M0 0zM661.5 467.5q35.5 -12.5 51 -41.5t15.5 -82v-344h-748v111h158v359h98v-171q33 86 118.5 133.5t206.5 47.5q65 0 100.5 -12.5zM630 111v247q-35 11 -113 11q-132 0 -201.5 -64t-78.5 -194h393zM437.5 611q-22.5 23 -22.5 40q0 18 22 39.5t40 22.5q18 -1 40 -22.5
t22 -39.5q0 -17 -23 -40t-39 -22q-17 -1 -39.5 22z" />
    <glyph glyph-name="uniFEC0" unicode="&#x636;" horiz-adv-x="821" arabic-form="medial" 
d="M0 0zM841 111v-111h-861v111h158v359h98v-171q33 86 118.5 133.5t206.5 47.5q65 0 100.5 -12.5t51 -41.5t15.5 -82v-233h113zM315.5 305q-69.5 -64 -78.5 -194h393v247q-35 11 -113 11q-132 0 -201.5 -64zM437.5 611q-22.5 23 -22.5 40q0 18 22 39.5t40 22.5
q18 -1 40 -22.5t22 -39.5q0 -17 -23 -40t-39 -22q-17 -1 -39.5 22z" />
    <glyph glyph-name="uniFEC2" unicode="&#x637;" horiz-adv-x="821" arabic-form="final" 
d="M841 111v-111h-821v111h118v519h98v-331q33 86 118.5 133.5t206.5 47.5q65 0 100.5 -12.5t51 -41.5t15.5 -82v-233h113zM630 111v247q-35 11 -113 11q-132 0 -201.5 -64t-78.5 -194h393z" />
    <glyph glyph-name="uniFEC3" unicode="&#x637;" horiz-adv-x="817" arabic-form="initial" 
d="M661.5 467.5q35.5 -12.5 51 -41.5t15.5 -82v-344h-748v111h158v519h98v-331q33 86 118.5 133.5t206.5 47.5q65 0 100.5 -12.5zM630 358q-35 11 -113 11q-132 0 -201.5 -64t-78.5 -194h393v247z" />
    <glyph glyph-name="uniFEC4" unicode="&#x637;" horiz-adv-x="821" arabic-form="medial" 
d="M841 111v-111h-861v111h158v519h98v-331q33 86 118.5 133.5t206.5 47.5q65 0 100.5 -12.5t51 -41.5t15.5 -82v-233h113zM630 111v247q-35 11 -113 11q-132 0 -201.5 -64t-78.5 -194h393z" />
    <glyph glyph-name="uniFEC6" unicode="&#x638;" horiz-adv-x="821" arabic-form="final" 
d="M20 0zM841 111v-111h-821v111h118v519h98v-331q33 86 118.5 133.5t206.5 47.5q65 0 100.5 -12.5t51 -41.5t15.5 -82v-233h113zM630 111v247q-35 11 -113 11q-132 0 -201.5 -64t-78.5 -194h393zM476.5 611q-22.5 23 -22.5 40q0 18 22 39.5t40 22.5q18 -1 40 -22.5
t22 -39.5q0 -17 -23 -40t-39 -22q-17 -1 -39.5 22z" />
    <glyph glyph-name="uniFEC7" unicode="&#x638;" horiz-adv-x="817" arabic-form="initial" 
d="M0 0zM661.5 467.5q35.5 -12.5 51 -41.5t15.5 -82v-344h-748v111h158v519h98v-331q33 86 118.5 133.5t206.5 47.5q65 0 100.5 -12.5zM630 358q-35 11 -113 11q-132 0 -201.5 -64t-78.5 -194h393v247zM476.5 611q-22.5 23 -22.5 40q0 18 22 39.5t40 22.5q18 -1 40 -22.5
t22 -39.5q0 -17 -23 -40t-39 -22q-17 -1 -39.5 22z" />
    <glyph glyph-name="uniFEC8" unicode="&#x638;" horiz-adv-x="821" arabic-form="medial" 
d="M0 0zM841 111v-111h-861v111h158v519h98v-331q33 86 118.5 133.5t206.5 47.5q65 0 100.5 -12.5t51 -41.5t15.5 -82v-233h113zM630 111v247q-35 11 -113 11q-132 0 -201.5 -64t-78.5 -194h393zM476.5 611q-22.5 23 -22.5 40q0 18 22 39.5t40 22.5q18 -1 40 -22.5t22 -39.5
q0 -17 -23 -40t-39 -22q-17 -1 -39.5 22z" />
    <glyph glyph-name="uniFECA" unicode="&#x639;" horiz-adv-x="649" arabic-form="final" 
d="M65 -27q16 38 52 64.5t103 54.5q-72 52 -112 125.5t-40 159.5q0 40 24 62.5t79 32t154 9.5t154 -9.5t78.5 -32t23.5 -62.5q0 -158 -129 -260q45 -6 95 -6h122v-111h-151q-104 0 -195 34q-81 -30 -126.5 -54.5t-45.5 -46.5v-131q45 -8 134 -8q38 0 78 5t96 17l14 -108
q-74 -25 -219 -25q-80 0 -124 18t-62.5 59t-18.5 114q0 61 16 99zM208.5 217.5q42.5 -57.5 115.5 -84.5q78 31 118 90.5t40 146.5h-316q0 -95 42.5 -152.5z" />
    <glyph glyph-name="uniFECB" unicode="&#x639;" horiz-adv-x="586" arabic-form="initial" 
d="M539 111v-111h-559v111h147q-13 49 -13 133q0 95 17 145t59.5 71t124.5 21q48 0 96.5 -7.5t85.5 -21.5l-15 -104q-87 22 -162 22q-69 0 -104 -9v-183q-1 -36 19.5 -51.5t64.5 -15.5h239z" />
    <glyph glyph-name="uniFECC" unicode="&#x639;" horiz-adv-x="649" arabic-form="medial" 
d="M669 111v-111h-152q-100 0 -192 35q-92 -35 -193 -35h-152v111h152q23 0 61 2q-60 52 -92.5 119.5t-32.5 144.5q0 40 24 62.5t79 32t153 9.5q99 0 154 -9.5t79 -32t24 -62.5q0 -77 -32.5 -144.5t-92.5 -119.5q40 -2 62 -2h151zM325 140q158 59 158 230h-317
q0 -171 159 -230z" />
    <glyph glyph-name="uniFECE" unicode="&#x63a;" horiz-adv-x="649" arabic-form="final" 
d="M49 0zM65 -27q16 38 52 64.5t103 54.5q-72 52 -112 125.5t-40 159.5q0 40 24 62.5t79 32t154 9.5t154 -9.5t78.5 -32t23.5 -62.5q0 -158 -129 -260q45 -6 95 -6h122v-111h-151q-104 0 -195 34q-81 -30 -126.5 -54.5t-45.5 -46.5v-131q45 -8 134 -8q38 0 78 5t96 17
l14 -108q-74 -25 -219 -25q-80 0 -124 18t-62.5 59t-18.5 114q0 61 16 99zM208.5 217.5q42.5 -57.5 115.5 -84.5q78 31 118 90.5t40 146.5h-316q0 -95 42.5 -152.5zM284.5 611q-22.5 23 -22.5 40q0 18 22 39.5t40 22.5q18 -1 40 -22.5t22 -39.5q0 -17 -23 -40t-39 -22
q-17 -1 -39.5 22z" />
    <glyph glyph-name="uniFECF" unicode="&#x63a;" horiz-adv-x="586" arabic-form="initial" 
d="M0 0zM539 111v-111h-559v111h147q-13 49 -13 133q0 95 17 145t59.5 71t124.5 21q48 0 96.5 -7.5t85.5 -21.5l-15 -104q-87 22 -162 22q-69 0 -104 -9v-183q-1 -36 19.5 -51.5t64.5 -15.5h239zM285.5 611q-22.5 23 -22.5 40q0 18 22 39.5t40 22.5q18 -1 40 -22.5t22 -39.5
q0 -17 -23 -40t-39 -22q-17 -1 -39.5 22z" />
    <glyph glyph-name="uniFED0" unicode="&#x63a;" horiz-adv-x="649" arabic-form="medial" 
d="M0 0zM669 111v-111h-152q-100 0 -192 35q-92 -35 -193 -35h-152v111h152q23 0 61 2q-60 52 -92.5 119.5t-32.5 144.5q0 40 24 62.5t79 32t153 9.5q99 0 154 -9.5t79 -32t24 -62.5q0 -77 -32.5 -144.5t-92.5 -119.5q40 -2 62 -2h151zM325 140q158 59 158 230h-317
q0 -171 159 -230zM284.5 611q-22.5 23 -22.5 40q0 18 22 39.5t40 22.5q18 -1 40 -22.5t22 -39.5q0 -17 -23 -40t-39 -22q-17 -1 -39.5 22z" />
    <glyph glyph-name="uniFED2" unicode="&#x641;" horiz-adv-x="993" arabic-form="final" 
d="M65 0zM1013 111v-111h-799q-55 0 -87 21t-47 66.5t-15 122.5q0 47 8 96.5t21 86.5l94 -15q-25 -81 -25 -145q0 -77 16 -122h295q-12 59 -12 158q0 82 19.5 127.5t67 65t135.5 19.5q59 0 108 -7.5t108 -25.5v-337h113zM802 368h-191q-26 0 -35 -10.5t-9 -40.5v-206h190
q26 0 35.5 10t9.5 37v210zM670.5 611q-22.5 23 -22.5 40q0 18 22 39.5t40 22.5q18 -1 40 -22.5t22 -39.5q0 -17 -23 -40t-39 -22q-17 -1 -39.5 22z" />
    <glyph glyph-name="uniFED3" unicode="&#x641;" horiz-adv-x="655" arabic-form="initial" 
d="M0 0zM136 111q-7 29 -9.5 64.5t-2.5 93.5q0 82 19.5 127.5t67 65t134.5 19.5q59 0 108.5 -7.5t107.5 -25.5v-448h-581v111h156zM453.5 121q9.5 10 9.5 37v211h-191q-26 0 -35 -10.5t-9 -40.5v-207h190q26 0 35.5 10zM305.5 611q-22.5 23 -22.5 40q0 18 22 39.5t40 22.5
q18 -1 40 -22.5t22 -39.5q0 -17 -23 -40t-39 -22q-17 -1 -39.5 22z" />
    <glyph glyph-name="uniFED4" unicode="&#x641;" horiz-adv-x="655" arabic-form="medial" 
d="M0 0zM674 111v-111h-694v111h156q-7 29 -9.5 64.5t-2.5 93.5q0 82 19.5 127.5t67 65t134.5 19.5q59 0 108.5 -7.5t107.5 -25.5v-337h113zM463 369h-191q-26 0 -35 -10.5t-9 -40.5v-207h190q26 0 35.5 10t9.5 37v211zM305.5 611q-22.5 23 -22.5 40q0 18 22 39.5t40 22.5
q18 -1 40 -22.5t22 -39.5q0 -17 -23 -40t-39 -22q-17 -1 -39.5 22z" />
    <glyph glyph-name="uniFED6" unicode="&#x642;" horiz-adv-x="896" arabic-form="final" 
d="M58 0zM916 111v-111h-113v-92q0 -94 -40 -133.5t-134 -39.5h-422q-55 0 -87 24.5t-47 78t-15 143.5q0 56 8 115t21 105l94 -16q-25 -102 -25 -180q0 -99 15 -159h534v154h-177q-63 0 -97.5 22t-49.5 73.5t-15 146.5t20 146t67 72t135 21q66 0 115 -7.5t101 -25.5v-337
h112zM695.5 121q9.5 10 9.5 37v212h-186q-29 0 -39 -10.5t-10 -40.5v-208h190q26 0 35.5 10zM469.5 611q-22.5 23 -22.5 40q0 18 22 39.5t40 22.5q18 -1 40 -22.5t22 -39.5q0 -17 -23 -40t-39 -22q-17 -1 -39.5 22zM624.5 611q-22.5 23 -22.5 40q0 18 22 39.5t40 22.5
q18 -1 40 -22.5t22 -39.5q0 -17 -23 -40t-39 -22q-17 -1 -39.5 22z" />
    <glyph glyph-name="uniFED7" unicode="&#x642;" horiz-adv-x="655" arabic-form="initial" 
d="M0 0zM136 111q-7 29 -9.5 64.5t-2.5 93.5q0 82 19.5 127.5t67 65t134.5 19.5q59 0 108.5 -7.5t107.5 -25.5v-448h-581v111h156zM453.5 121q9.5 10 9.5 37v211h-191q-26 0 -35 -10.5t-9 -40.5v-207h190q26 0 35.5 10zM228.5 611q-22.5 23 -22.5 40q0 18 22 39.5t40 22.5
q18 -1 40 -22.5t22 -39.5q0 -17 -23 -40t-39 -22q-17 -1 -39.5 22zM383.5 611q-22.5 23 -22.5 40q0 18 22 39.5t40 22.5q18 -1 40 -22.5t22 -39.5q0 -17 -23 -40t-39 -22q-17 -1 -39.5 22z" />
    <glyph glyph-name="uniFED8" unicode="&#x642;" horiz-adv-x="655" arabic-form="medial" 
d="M0 0zM674 111v-111h-694v111h156q-7 29 -9.5 64.5t-2.5 93.5q0 82 19.5 127.5t67 65t134.5 19.5q59 0 108.5 -7.5t107.5 -25.5v-337h113zM463 369h-191q-26 0 -35 -10.5t-9 -40.5v-207h190q26 0 35.5 10t9.5 37v211zM228.5 611q-22.5 23 -22.5 40q0 18 22 39.5t40 22.5
q18 -1 40 -22.5t22 -39.5q0 -17 -23 -40t-39 -22q-17 -1 -39.5 22zM383.5 611q-22.5 23 -22.5 40q0 18 22 39.5t40 22.5q18 -1 40 -22.5t22 -39.5q0 -17 -23 -40t-39 -22q-17 -1 -39.5 22z" />
    <glyph glyph-name="uniFEDA" unicode="&#x643;" horiz-adv-x="893" arabic-form="final" 
d="M552 439l-230 -62v52l42 12q-10 23 -10 68q0 77 44 108.5t129 33.5v-62q-58 -2 -102 -23l-1 -78q0 -24 21 -24q5 0 23 4l84 23v-52zM913 111v-111h-699q-55 0 -87 21t-47 66.5t-15 122.5q0 47 8 96.5t21 86.5l94 -15q-25 -81 -25 -145q0 -77 16 -122h522v519h99v-519h113
z" />
    <glyph glyph-name="uniFEDB" unicode="&#x643;" horiz-adv-x="708" arabic-form="initial" 
d="M-20 111h536v194h-330q-50 0 -75.5 24.5t-25.5 71.5q0 68 45 161.5t106 154.5l81 -44q-52 -53 -91 -124.5t-50 -132.5h308q52 0 79.5 -12t39.5 -39.5t12 -79.5v-285h-635v111z" />
    <glyph glyph-name="uniFEDC" unicode="&#x643;" horiz-adv-x="708" arabic-form="medial" 
d="M728 111v-111h-748v111h536v194h-330q-50 0 -75.5 24.5t-25.5 71.5q0 68 45 161.5t106 154.5l81 -44q-52 -53 -91 -124.5t-50 -132.5h308q52 0 79.5 -12t39.5 -39.5t12 -79.5v-174h113z" />
    <glyph glyph-name="uniFEDE" unicode="&#x644;" horiz-adv-x="666" arabic-form="final" 
d="M686 111v-111h-113v-26q0 -90 -20 -134.5t-75 -62t-169 -17.5q-103 0 -153.5 19t-69 67t-18.5 144q0 63 8.5 130t22.5 117l92 -15q-25 -119 -25 -212q0 -86 12 -139h171q71 0 98.5 11t27.5 42v708h98v-521h113z" />
    <glyph glyph-name="uniFEDF" unicode="&#x644;" horiz-adv-x="329" arabic-form="initial" 
d="M-20 0v111h158v519h98v-630h-256z" />
    <glyph glyph-name="uniFEE0" unicode="&#x644;" horiz-adv-x="329" arabic-form="medial" 
d="M349 111v-111h-369v111h158v519h98v-519h113z" />
    <glyph glyph-name="uniFEE2" unicode="&#x645;" horiz-adv-x="665" arabic-form="final" 
d="M685 111v-111h-556q-16 -54 -16 -140q0 -65 29 -177l-96 -17q-14 43 -22.5 102t-8.5 115q0 112 25 165t82 61q-12 49 -12 125q0 95 41 205l-1 1q45 19 107 30t125 11q104 0 147 -32t43 -108v-230h113zM473 361q-35 9 -101 9q-69 0 -144 -14q-20 -70 -20 -122
q0 -78 14 -123h251v250z" />
    <glyph glyph-name="uniFEE3" unicode="&#x645;" horiz-adv-x="661" arabic-form="initial" 
d="M529 449q43 -32 43 -108v-341h-592v111h142q-12 48 -12 123q0 95 41 205l-1 1q46 20 108 30.5t124 10.5q104 0 147 -32zM474 361q-37 9 -102 9q-71 0 -144 -15q-20 -70 -20 -121q0 -78 14 -123h252v250z" />
    <glyph glyph-name="uniFEE4" unicode="&#x645;" horiz-adv-x="665" arabic-form="medial" 
d="M685 111v-111h-705v111h142q-12 48 -12 123q0 95 41 205l-1 1q46 20 108 30.5t124 10.5q104 0 147 -32t43 -108v-230h113zM474 361q-37 9 -102 9q-71 0 -144 -15q-20 -70 -20 -121q0 -78 14 -123h252v250z" />
    <glyph glyph-name="uniFEE6" unicode="&#x646;" horiz-adv-x="666" arabic-form="final" 
d="M68 0zM686 111v-111h-113v-26q0 -90 -20 -134.5t-75 -62t-169 -17.5q-103 0 -153.5 19t-69 67t-18.5 144q0 63 8.5 130t22.5 117l92 -15q-25 -119 -25 -212q0 -86 12 -139h171q71 0 98.5 11t27.5 42v546h98v-359h113zM284.5 611q-22.5 23 -22.5 40q0 18 22 39.5t40 22.5
q18 -1 40 -22.5t22 -39.5q0 -17 -23 -40t-39 -22q-17 -1 -39.5 22z" />
    <glyph glyph-name="uniFEE7" unicode="&#x646;" horiz-adv-x="329" arabic-form="initial" 
d="M0 0zM-20 111h158v359h98v-470h-256v111zM147.5 611q-22.5 23 -22.5 40q0 18 22 39.5t40 22.5q18 -1 40 -22.5t22 -39.5q0 -17 -23 -40t-39 -22q-17 -1 -39.5 22z" />
    <glyph glyph-name="uniFEE8" unicode="&#x646;" horiz-adv-x="329" arabic-form="medial" 
d="M0 0zM349 111v-111h-369v111h158v359h98v-359h113zM147.5 611q-22.5 23 -22.5 40q0 18 22 39.5t40 22.5q18 -1 40 -22.5t22 -39.5q0 -17 -23 -40t-39 -22q-17 -1 -39.5 22z" />
    <glyph glyph-name="uniFEEA" unicode="&#x647;" horiz-adv-x="625" arabic-form="final" 
d="M645 111v-111h-354q-92 0 -135.5 18t-60 66.5t-16.5 150.5t16.5 150.5t60 66.5t135.5 18h250v-359h104zM443 359h-198q-32 0 -46.5 -12t-14.5 -38v-148q0 -26 14.5 -38t46.5 -12h198v248z" />
    <glyph glyph-name="uniFEEB" unicode="&#x647;" horiz-adv-x="741" arabic-form="initial" 
d="M691 85v-85h-711v111h109q1 96 14.5 138.5t49 56.5t113.5 14q83 0 120 -14t51 -56.5t15 -138.5h132l-45 177q-17 63 -51.5 99t-93 52t-151.5 16l6 107q118 0 192.5 -21t120 -71.5t68.5 -142.5zM175 111h190v129h-143q-26 0 -36.5 -8.5t-10.5 -28.5v-92z" />
    <glyph glyph-name="uniFEEC" unicode="&#x647;" horiz-adv-x="741" arabic-form="medial" 
d="M761 110v-111h-121v1h-660v111h109q1 96 14.5 138.5t49 56.5t113.5 14q83 0 120 -14t51 -56.5t15 -138.5h132l-45 177q-17 63 -51.5 99t-93 52t-151.5 16l6 107q118 0 192.5 -21t120 -71.5t68.5 -142.5l55 -217h76zM175 111h190v129h-143q-26 0 -36.5 -8.5t-10.5 -28.5
v-92z" />
    <glyph glyph-name="uniFEEE" unicode="&#x648;" horiz-adv-x="618" arabic-form="final" 
d="M637 0h-142q-26 -75 -78 -147.5t-117 -123.5l-63 75q48 39 88 90.5t64 105.5h-150q-63 0 -97.5 22t-49.5 73.5t-15 146.5t20 146t67 72t135 21q66 0 115 -7.5t101 -25.5v-337h122v-111zM371 111q26 0 35.5 10t9.5 37v212h-186q-29 0 -39 -10.5t-10 -40.5v-208h190z" />
    <glyph glyph-name="uniFEF0" unicode="&#x649;" horiz-adv-x="866" arabic-form="final" 
d="M886 111v-111h-113v-72q0 -83 -30 -126.5t-107 -61.5t-229 -18q-144 0 -213.5 14.5t-97.5 56.5t-28 131q0 57 8.5 118t22.5 105l96 -16q-14 -58 -21.5 -101.5t-7.5 -81.5q0 -69 12 -116h282q86 0 131 4.5t64.5 15.5t19.5 33v115h-39q-52 0 -109.5 8.5t-99.5 22.5l16 104
q93 -24 171 -24h272z" />
    <glyph glyph-name="uniFEF2" unicode="&#x64a;" horiz-adv-x="866" arabic-form="final" 
d="M68 0zM886 111v-111h-113v-72q0 -83 -30 -126.5t-107 -61.5t-229 -18q-144 0 -213.5 14.5t-97.5 56.5t-28 131q0 57 8.5 118t22.5 105l96 -16q-14 -58 -21.5 -101.5t-7.5 -81.5q0 -69 12 -116h282q86 0 131 4.5t64.5 15.5t19.5 33v115h-39q-52 0 -109.5 8.5t-99.5 22.5
l16 104q93 -24 171 -24h272zM315.5 -432q-22.5 23 -22.5 40q0 18 22 39.5t40 22.5q18 -1 40 -22.5t22 -39.5q0 -17 -23 -40t-39 -22q-17 -1 -39.5 22zM470.5 -432q-22.5 23 -22.5 40q0 18 22 39.5t40 22.5q18 -1 40 -22.5t22 -39.5q0 -17 -23 -40t-39 -22q-17 -1 -39.5 22z
" />
    <glyph glyph-name="uniFEF3" unicode="&#x64a;" horiz-adv-x="329" arabic-form="initial" 
d="M0 0zM-20 111h158v359h98v-470h-256v111zM7.5 -165q-22.5 23 -22.5 40q0 18 22 39.5t40 22.5q18 -1 40 -22.5t22 -39.5q0 -17 -23 -40t-39 -22q-17 -1 -39.5 22zM162.5 -165q-22.5 23 -22.5 40q0 18 22 39.5t40 22.5q18 -1 40 -22.5t22 -39.5q0 -17 -23 -40t-39 -22
q-17 -1 -39.5 22z" />
    <glyph glyph-name="uniFEF4" unicode="&#x64a;" horiz-adv-x="329" arabic-form="medial" 
d="M0 0zM349 111v-111h-369v111h158v359h98v-359h113zM66.5 -182q-22.5 23 -22.5 40q0 18 22 39.5t40 22.5q18 -1 40 -22.5t22 -39.5q0 -17 -23 -40t-39 -22q-17 -1 -39.5 22zM221.5 -182q-22.5 23 -22.5 40q0 18 22 39.5t40 22.5q18 -1 40 -22.5t22 -39.5q0 -17 -23 -40
t-39 -22q-17 -1 -39.5 22z" />
    <glyph glyph-name=".notdef" horiz-adv-x="497" 
 />
    <glyph glyph-name=".null" 
 />
    <glyph glyph-name="nonmarkingreturn" horiz-adv-x="497" 
 />
    <glyph glyph-name="space" unicode=" " horiz-adv-x="239" 
 />
    <glyph glyph-name="exclam" unicode="!" horiz-adv-x="261" 
d="M59 625q0 20 27 20h88q28 0 28 -20l-32 -421h-79zM72.5 127q14.5 17 57.5 17t58 -17t15 -58q0 -42 -14.5 -58.5t-58.5 -16.5q-43 0 -57.5 16.5t-14.5 58.5q0 41 14.5 58z" />
    <glyph glyph-name="quotedbl" unicode="&#x22;" horiz-adv-x="438" 
d="M57 558v65q0 27 37 27h54q37 0 37 -27v-65l-38 -182h-52zM253 558v65q0 27 37 27h54q37 0 37 -27v-65l-38 -182h-52z" />
    <glyph glyph-name="numbersign" unicode="#" horiz-adv-x="756" 
d="M731 475l-20 -48q-7 -18 -15.5 -23.5t-24.5 -5.5h-83l-68 -173h110l-20 -49q-7 -18 -15.5 -23t-24.5 -5h-81l-64 -163q-6 -14 -14.5 -19.5t-28.5 -5.5h-55l74 188h-174l-64 -163q-6 -14 -14.5 -19.5t-28.5 -5.5h-55l74 188h-111l20 48q7 18 16 23.5t25 5.5h81l68 173
h-109l20 48q7 18 16 23.5t25 5.5h79l65 165q6 14 14.5 19.5t28.5 5.5h55l-75 -190h174l65 165q6 14 14.5 19.5t28.5 5.5h55l-75 -190h112zM500 398h-174l-68 -173h174z" />
    <glyph glyph-name="dollar" unicode="$" horiz-adv-x="540" 
d="M468.5 80q-20.5 -39 -65 -57.5t-119.5 -21.5l-11 -131h-77l12 132q-74 4 -152 24l17 97q62 -18 143 -23l14 164q-66 8 -101.5 26t-50 51t-14.5 91q0 72 19 113.5t60.5 60t114.5 18.5h4l11 130h77l-12 -133q59 -4 119 -18l-14 -92q-66 12 -113 14l-14 -163
q65 -7 102.5 -26.5t54 -56t16.5 -95.5q0 -65 -20.5 -104zM239 369l14 157q-25 0 -62 -5v-149zM362 252l-55 5l-14 -158q42 2 69 5v148z" />
    <glyph glyph-name="percent" unicode="%" horiz-adv-x="1186" 
d="M64 0zM77.5 563q13.5 44 50.5 60.5t116 16.5q78 0 115 -16.5t50.5 -60.5t13.5 -136q0 -94 -13 -137.5t-50 -59.5t-116 -16t-116 16t-50.5 60t-13.5 137q0 92 13.5 136zM147 315q0 -21 12 -27.5t51 -6.5h131v258q0 21 -13.5 28t-54.5 7h-126v-259zM489 -34.5
q-8 -5.5 -27 -5.5h-28l246 680q6 14 14.5 19.5t28.5 5.5h28l-246 -680q-8 -14 -16 -19.5zM776.5 339q13.5 44 50.5 60.5t116 16.5q78 0 115 -16.5t50.5 -60.5t13.5 -136q0 -94 -13 -137.5t-50 -59.5t-116 -16t-116 16t-50.5 60t-13.5 137q0 92 13.5 136zM846 91
q0 -21 12 -27.5t51 -6.5h131v258q0 21 -13.5 28t-54.5 7h-126v-259z" />
    <glyph glyph-name="ampersand" unicode="&#x26;" horiz-adv-x="602" 
d="M571 264h-55v-369l-69 -8l-19 139q-71 -24 -114.5 -32.5t-87.5 -8.5q-83 0 -122 45t-39 142q0 153 102 176v4l-61 19q4 106 26.5 163.5t71 81.5t135.5 24q38 0 82.5 -6.5t66.5 -15.5l-15 -100q-27 8 -69 13.5t-74 5.5q-54 0 -73.5 -15.5t-19.5 -59.5v-104h348zM395 264
h-198v-114q0 -40 22 -61t64 -21q67 0 136 20z" />
    <glyph glyph-name="quotesingle" unicode="'" horiz-adv-x="242" 
d="M57 558v65q0 27 37 27h54q37 0 37 -27v-65l-38 -182h-52z" />
    <glyph glyph-name="parenleft" unicode="(" horiz-adv-x="312" 
d="M35 312q0 351 216 431l16 -94q-57 -44 -85.5 -119.5t-28.5 -217.5t28.5 -217.5t85.5 -118.5l-16 -94q-216 80 -216 430z" />
    <glyph glyph-name="parenright" unicode=")" horiz-adv-x="312" 
d="M45 -24q57 43 85.5 118.5t28.5 217.5t-28.5 217.5t-85.5 119.5l16 94q216 -80 216 -431q0 -350 -216 -430z" />
    <glyph glyph-name="asterisk" unicode="*" horiz-adv-x="522" 
d="M396 435l32 -45l-88 -64l-32 45l-47 106l-47 -106l-32 -45l-88 64l32 45l86 78l-115 12l-53 17l34 103l53 -17l100 -58l-24 114v55h108v-55l-24 -114l101 58l53 17l33 -103l-53 -17l-115 -12zM262 528l-1 1l-1 -1h2z" />
    <glyph glyph-name="plus" unicode="+" horiz-adv-x="530" 
d="M457 265h-145v-145h-94v145h-145v94h145v145h94v-145h145v-94z" />
    <glyph glyph-name="comma" unicode="," horiz-adv-x="241" 
d="M67 -100l23 97q-26 5 -35.5 21t-9.5 53q0 44 16.5 60.5t60.5 16.5q41 0 57 -16.5t16 -60.5q-1 -23 -6.5 -41.5t-21.5 -53.5l-44 -94z" />
    <glyph glyph-name="hyphen" unicode="-" horiz-adv-x="350" 
d="M43.5 318.5q12.5 6.5 42.5 6.5h233v-64q0 -23 -12.5 -29.5t-42.5 -6.5h-233v64q0 23 12.5 29.5z" />
    <glyph glyph-name="period" unicode="." horiz-adv-x="241" 
d="M60 131q15 17 60 17q44 0 59.5 -17.5t15.5 -59.5q0 -43 -15.5 -60t-59.5 -17q-45 0 -60 16.5t-15 60.5q0 43 15 60z" />
    <glyph glyph-name="slash" unicode="/" horiz-adv-x="404" 
d="M63 -35q-9 -5 -27 -5h-36l325 680q7 15 16 20t27 5h36l-325 -680q-7 -15 -16 -20z" />
    <glyph glyph-name="zero" unicode="0" horiz-adv-x="635" 
d="M75.5 521q20.5 68 75 93.5t167.5 25.5q112 0 166 -25.5t74.5 -93.5t20.5 -209q0 -143 -20 -210.5t-73.5 -92t-167.5 -24.5t-168.5 25t-74.5 92t-20 210q0 141 20.5 209zM187 143q0 -22 7 -33t25 -15.5t54 -4.5h174v392q0 22 -7.5 33t-27 15.5t-57.5 4.5h-168v-392z" />
    <glyph glyph-name="one" unicode="1" horiz-adv-x="458" 
d="M33 102h153v416l-163 -17v109l286 30v-538h122v-102h-398v102z" />
    <glyph glyph-name="two" unicode="2" horiz-adv-x="560" 
d="M50 100q0 76 21.5 117.5t85.5 78t216 98.5v134q-29 7 -94 7q-98 0 -199 -19l-16 97q100 27 216 27t170.5 -39.5t54.5 -124.5q0 -67 -22.5 -105.5t-90 -75.5t-225.5 -102v-91h327v-102h-444v100z" />
    <glyph glyph-name="three" unicode="3" horiz-adv-x="514" 
d="M25 13l15 96q41 -9 92 -14t98 -5q77 0 106 7v163l-174 23v65l174 29v151q-27 7 -89 7q-46 0 -97 -5t-92 -14l-14 97q97 27 212 27q212 0 212 -167q0 -54 -21.5 -94t-61.5 -61v-5q43 -21 63 -57.5t20 -92.5q0 -65 -23.5 -104t-75 -56.5t-138.5 -17.5q-113 0 -206 28z" />
    <glyph glyph-name="four" unicode="4" horiz-adv-x="586" 
d="M25 132v66l213 427h237v-392h65v-101h-65v-132h-123v132h-327zM352 233v300h-36l-152 -300h188z" />
    <glyph glyph-name="five" unicode="5" horiz-adv-x="544" 
d="M55 12l16 97q101 -19 189 -19q72 0 106 7v141l-81 8q-89 9 -133 22t-60.5 37t-16.5 70l10 250h382l-9 -102h-250v-163l59 -6q89 -9 138.5 -29t71 -57t21.5 -99q0 -95 -54 -139.5t-170 -44.5q-127 0 -219 27z" />
    <glyph glyph-name="six" unicode="6" horiz-adv-x="576" 
d="M501.5 69q-23.5 -44 -75 -64t-139.5 -20q-98 0 -148 27t-69.5 95.5t-19.5 204.5q0 131 23.5 201t80 98.5t163.5 28.5q37 0 95 -8.5t87 -18.5l-16 -97q-36 8 -85 13.5t-89 5.5q-95 0 -127 -7v-155h125q114 0 166 -44t52 -141q0 -75 -23.5 -119zM240 279q-35 0 -46.5 -8
t-11.5 -34v-155h153q35 0 46.5 8t11.5 34v155h-153z" />
    <glyph glyph-name="seven" unicode="7" horiz-adv-x="475" 
d="M108 0l196 523h-274l-10 102h419v-76l-206 -549h-125z" />
    <glyph glyph-name="eight" unicode="8" horiz-adv-x="588" 
d="M471.5 600q53.5 -40 53.5 -133q0 -49 -12 -92t-33 -70v-7q26 -17 41.5 -51.5t15.5 -75.5q0 -75 -21.5 -114.5t-73 -55.5t-147.5 -16q-97 0 -149 16.5t-74 56t-22 113.5q0 48 16.5 90t44.5 63v7q-23 21 -35.5 57t-12.5 79q0 92 54 132.5t178 40.5q123 0 176.5 -40z
M383 343q10 0 16.5 5t6.5 13v182h-160q-39 0 -51.5 -7.5t-12.5 -32.5v-92l184 -64q11 -4 17 -4zM194 292q-12 0 -12 -17v-193h159q39 0 51.5 7.5t12.5 32.5l1 98l-190 66q-15 6 -22 6z" />
    <glyph glyph-name="nine" unicode="9" horiz-adv-x="576" 
d="M73.5 556q23.5 44 75 64t139.5 20q98 0 148 -27t69.5 -95t19.5 -204q0 -132 -23.5 -202t-80.5 -98.5t-164 -28.5q-40 0 -101 9t-90 19l15 97q38 -8 90 -13.5t94 -5.5q97 0 128 7v155h-125q-114 0 -166 44t-52 140q0 75 23.5 119zM182 389q0 -25 10 -33.5t40 -8.5h161v155
q0 25 -10 33.5t-40 8.5h-161v-155z" />
    <glyph glyph-name="colon" unicode=":" horiz-adv-x="234" 
d="M45 0zM60 131q15 17 60 17q44 0 59.5 -17.5t15.5 -59.5q0 -43 -15.5 -60t-59.5 -17q-45 0 -60 16.5t-15 60.5q0 43 15 60zM60 488q15 17 60 17q44 0 59.5 -17.5t15.5 -59.5q0 -43 -15.5 -60t-59.5 -17q-45 0 -60 16.5t-15 60.5q0 43 15 60z" />
    <glyph glyph-name="semicolon" unicode=";" horiz-adv-x="234" 
d="M45 0zM67 -100l23 97q-26 5 -35.5 21t-9.5 53q0 44 16.5 60.5t60.5 16.5q41 0 57 -16.5t16 -60.5q-1 -23 -6.5 -41.5t-21.5 -53.5l-44 -94zM60 488q15 17 60 17q44 0 59.5 -17.5t15.5 -59.5q0 -43 -15.5 -60t-59.5 -17q-45 0 -60 16.5t-15 60.5q0 43 15 60z" />
    <glyph glyph-name="less" unicode="&#x3c;" horiz-adv-x="530" 
d="M457 405l-278 -93l278 -93v-100l-384 132v122l384 132v-100z" />
    <glyph glyph-name="equal" unicode="=" horiz-adv-x="530" 
d="M73 160zM457 254v-94h-384v94h384zM457 464v-94h-384v94h384z" />
    <glyph glyph-name="greater" unicode="&#x3e;" horiz-adv-x="530" 
d="M457 373v-122l-384 -132v100l278 93l-278 93v100z" />
    <glyph glyph-name="question" unicode="?" horiz-adv-x="443" 
d="M128 365q-1 15 12 23.5t53 22.5l94 31v100q-38 6 -83 6q-61 0 -154 -20l-16 84q91 28 177 28q76 0 120.5 -14t65 -44.5t20.5 -83.5q0 -48 -14 -75t-54 -48t-126 -50l-5 -121h-78zM120.5 127q14.5 17 57.5 17t58 -17t15 -58q0 -42 -14.5 -58.5t-58.5 -16.5
q-43 0 -57.5 16.5t-14.5 58.5q0 41 14.5 58z" />
    <glyph glyph-name="at" unicode="@" horiz-adv-x="820" 
d="M668 539q77 -46 77 -143l-1 -396h-58l-32 50q-73 -61 -177 -61q-85 0 -121.5 35.5t-36.5 118.5q0 70 21.5 103t80 45.5t182.5 12.5h19v158q-28 4 -79 6.5t-97 2.5q-78 0 -130.5 -9.5t-88.5 -46t-36 -110.5v-219q0 -73 31 -109t78 -45.5t120 -9.5h191v-74
q-98 -18 -174 -18q-130 0 -214 32t-127 108.5t-43 207.5v81q0 181 96.5 253.5t273.5 72.5q168 0 245 -46zM605 90q16 11 16 43v98h-112q-45 0 -61.5 -11.5t-16.5 -43.5v-97h113q45 0 61 11z" />
    <glyph glyph-name="A" unicode="A" horiz-adv-x="572" 
d="M399 131h-225l-38 -131h-123l179 625h188l179 -625h-123zM372 225l-81 285h-9l-82 -285h172z" />
    <glyph glyph-name="B" unicode="B" horiz-adv-x="584" 
d="M516 264.5q25 -37.5 25 -88.5q0 -85 -45.5 -130.5t-131.5 -45.5h-283v625h250q93 0 136 -38t43 -119q0 -53 -15.5 -89t-47.5 -57v-6q44 -14 69 -51.5zM373 516q-15 19 -56 19h-113v-176h112q41 0 56.5 19t15.5 68q0 51 -15 70zM400 111.5q17 21.5 17 73.5
q0 48 -16.5 67.5t-56.5 19.5h-140v-182h139q40 0 57 21.5z" />
    <glyph glyph-name="C" unicode="C" horiz-adv-x="494" 
d="M393 -9q-41 -6 -97 -6q-97 0 -148 28.5t-71 98t-20 200.5q0 132 21.5 201.5t74.5 98t156 28.5q35 0 80.5 -6.5t70.5 -15.5l-16 -100q-33 8 -77 13.5t-72 5.5q-59 0 -82.5 -15t-23.5 -60v-361q52 -13 110 -13q80 0 160 25l11 -102q-36 -14 -77 -20z" />
    <glyph glyph-name="D" unicode="D" horiz-adv-x="631" 
d="M318 625q108 0 161.5 -25t74 -90.5t20.5 -197.5t-20.5 -197t-74 -90t-161.5 -25h-237v625h237zM204 100h160q44 0 61 15t17 55v285q0 40 -17 55t-61 15h-160v-425z" />
    <glyph glyph-name="E" unicode="E" horiz-adv-x="516" 
d="M204 102h266v-102h-389v625h388l-15 -102h-250v-163h228v-95h-228v-163z" />
    <glyph glyph-name="F" unicode="F" horiz-adv-x="455" 
d="M204 0h-123v625h356l-14 -102h-219v-178h193v-94h-193v-251z" />
    <glyph glyph-name="G" unicode="G" horiz-adv-x="571" 
d="M515 351v-329q-49 -20 -103.5 -28.5t-129.5 -8.5q-94 0 -141 26t-65.5 94.5t-18.5 206.5q0 133 21.5 202.5t75.5 97.5t159 28q42 0 94.5 -6.5t82.5 -15.5l-16 -100q-39 8 -91 13.5t-86 5.5q-61 0 -85 -15t-24 -60v-378h215v173h-85v94h197z" />
    <glyph glyph-name="H" unicode="H" horiz-adv-x="642" 
d="M561 625v-625h-123v263h-234v-263h-123v625h123v-268h234v268h123z" />
    <glyph glyph-name="I" unicode="I" horiz-adv-x="285" 
d="M204 625v-625h-123v625h123z" />
    <glyph glyph-name="J" unicode="J" horiz-adv-x="360" 
d="M109 100q24 0 36 5.5t12 24.5v393h-100v102h223v-483q0 -78 -38 -110t-117 -32h-93l-14 100h91z" />
    <glyph glyph-name="K" unicode="K" horiz-adv-x="568" 
d="M559 0h-134l-74 158q-18 35 -27.5 62.5t-9.5 53.5h-110v-274h-123v625h123v-257h110q0 46 37 116l69 141h134l-149 -304z" />
    <glyph glyph-name="L" unicode="L" horiz-adv-x="433" 
d="M81 625h123v-523h221v-102h-344v625z" />
    <glyph glyph-name="M" unicode="M" horiz-adv-x="799" 
d="M107 625h164l125 -433h7l125 433h164l41 -625h-122l-28 449h-6l-129 -449h-97l-129 449h-6l-28 -449h-122z" />
    <glyph glyph-name="N" unicode="N" horiz-adv-x="664" 
d="M86 625h120l218 -351q15 -25 20 -37t6 -27h6v415h123v-625h-121l-217 351q-15 24 -19.5 36t-6.5 28h-6v-415h-123v625z" />
    <glyph glyph-name="O" unicode="O" horiz-adv-x="642" 
d="M78.5 517.5q21.5 68.5 77 95.5t165.5 27t165 -27t77 -95.5t22 -205.5q0 -136 -22 -204.5t-77 -95.5t-165 -27t-165.5 27t-77 95t-21.5 205t21.5 205.5zM369 90q47 0 65.5 15t18.5 53v377h-181q-47 0 -65 -15t-18 -53v-377h180z" />
    <glyph glyph-name="P" unicode="P" horiz-adv-x="544" 
d="M204 0h-123v625h254q71 0 112 -21t59.5 -67.5t18.5 -127.5q0 -115 -41 -165.5t-134 -50.5h-146v-193zM334 288q35 0 48.5 9t13.5 33v151q0 24 -13.5 33t-48.5 9h-130v-235h130z" />
    <glyph glyph-name="Q" unicode="Q" horiz-adv-x="632" 
d="M582 -5l-32 -68l-177 58v34l-57 -34q-107 0 -161.5 27t-76 95.5t-21.5 204.5t21.5 205t76 96t161.5 27t161 -27.5t76 -96t22 -204.5q0 -114 -16 -176t-53 -93zM361 90q46 0 64 15t18 53v377h-172q-46 0 -63.5 -15t-17.5 -53v-377h171z" />
    <glyph glyph-name="R" unicode="R" horiz-adv-x="590" 
d="M425 0l-100 212h-121v-212h-123v625h259q71 0 112 -21t59.5 -67.5t18.5 -127.5q0 -73 -20 -117.5t-62 -63.5l110 -228h-133zM204 306h135q35 0 48.5 9t13.5 33v133q0 24 -13.5 33t-48.5 9h-135v-217z" />
    <glyph glyph-name="S" unicode="S" horiz-adv-x="532" 
d="M154 94.5q53 -6.5 103 -6.5q51 0 105 6v155l-94 8q-88 7 -134.5 24.5t-65.5 54t-19 102.5q0 75 20 119t64 63.5t120 19.5q106 0 209 -22l-15 -97q-83 16 -179 16q-50 0 -85 -5v-157l102 -7q80 -6 125.5 -26t65.5 -59t20 -106q0 -71 -23.5 -113t-75.5 -60.5t-140 -18.5
q-115 0 -216 27l18 101q42 -12 95 -18.5z" />
    <glyph glyph-name="T" unicode="T" horiz-adv-x="467" 
d="M295 0h-123v523h-159v102h442v-102h-160v-523z" />
    <glyph glyph-name="U" unicode="U" horiz-adv-x="637" 
d="M164 3q-52 18 -72.5 62.5t-20.5 133.5v426h123v-535h129q50 0 75.5 4.5t35 15.5t9.5 33v482h123v-426q0 -89 -20.5 -133.5t-72.5 -62.5t-154 -18q-103 0 -155 18z" />
    <glyph glyph-name="V" unicode="V" horiz-adv-x="544" 
d="M132 625l136 -510h9l135 510h123l-169 -625h-188l-169 625h123z" />
    <glyph glyph-name="W" unicode="W" horiz-adv-x="831" 
d="M807 625l-100 -625h-189l-102 476l-102 -476h-189l-100 625h123l78 -510h9l115 510h132l114 -510h9l79 510h123z" />
    <glyph glyph-name="X" unicode="X" horiz-adv-x="553" 
d="M407 0l-136 217l-128 -217h-134l195 326l-187 299h137l128 -204l120 204h134l-186 -313l195 -312h-138z" />
    <glyph glyph-name="Y" unicode="Y" horiz-adv-x="511" 
d="M502 625l-185 -413v-212h-123v212l-185 413h128l119 -285l118 285h128z" />
    <glyph glyph-name="Z" unicode="Z" horiz-adv-x="555" 
d="M33 81l322 436l-3 6h-271l-13 102h454v-81l-322 -436l3 -6h307v-102h-477v81z" />
    <glyph glyph-name="bracketleft" unicode="[" horiz-adv-x="293" 
d="M83 701.5q18 22.5 59 32.5t113 10l7 -94l-83 -7v-661l83 -7l-7 -94q-72 0 -113 10t-59 32.5t-18 62.5v653q0 40 18 62.5z" />
    <glyph glyph-name="backslash" unicode="\" horiz-adv-x="434" 
d="M44 665q19 0 27 -5.5t16 -19.5l342 -680h-38q-19 0 -27 5.5t-16 19.5l-343 680h39z" />
    <glyph glyph-name="bracketright" unicode="]" horiz-adv-x="293" 
d="M228 -14q0 -40 -18 -62.5t-59 -32.5t-113 -10l-7 94l83 7v661l-83 7l7 94q72 0 113 -10t59 -32.5t18 -62.5v-653z" />
    <glyph glyph-name="asciicircum" unicode="^" horiz-adv-x="530" 
d="M374 120l-108 296l-109 -296h-100l148 384h121l148 -384h-100z" />
    <glyph glyph-name="underscore" unicode="_" horiz-adv-x="518" 
d="M38.5 -0.5q13.5 7.5 47.5 7.5h407v-57q0 -27 -13.5 -34.5t-47.5 -7.5h-407v57q0 27 13.5 34.5z" />
    <glyph glyph-name="grave" unicode="`" horiz-adv-x="600" 
d="M65 551zM125 586q-12 2 -23 10l-29 25q-8 5 -8 12q0 5 7 13l48 58q6 7 10 7t9 -4l161 -117l-27 -39z" />
    <glyph glyph-name="a" unicode="a" horiz-adv-x="550" 
d="M429.5 477q44.5 -34 44.5 -114v-363h-59l-32 50q-71 -61 -177 -61q-84 0 -121 36t-37 118q0 70 21.5 103t80 45.5t182.5 12.5h19v103q-34 10 -90 10q-84 0 -175 -25l-16 88q41 14 97.5 22.5t111.5 8.5q106 0 150.5 -34zM334.5 90.5q16.5 11.5 16.5 42.5v98h-112
q-46 0 -62.5 -11.5t-16.5 -43.5v-97h113q45 0 61.5 11.5z" />
    <glyph glyph-name="b" unicode="b" horiz-adv-x="575" 
d="M448 491.5q40 -23.5 57 -80t17 -161.5q0 -104 -19 -159.5t-64 -78.5t-130 -23q-65 0 -117.5 7.5t-110.5 25.5v640l123 12v-181q43 22 130 22q74 0 114 -23.5zM392 417h-144q-26 0 -35 -5t-9 -20v-306h143q25 0 35 5t10 17v309z" />
    <glyph glyph-name="c" unicode="c" horiz-adv-x="452" 
d="M128 12.5q-41 23.5 -58 79t-17 158.5t17 159t58 79t116 23q41 0 87.5 -5.5t76.5 -13.5l-13 -90q-66 15 -130 15q-46 0 -64 -18.5t-18 -63.5v-242q31 -10 90 -10q32 0 62.5 5.5t71.5 19.5l12 -88q-74 -31 -175 -31q-75 0 -116 23.5z" />
    <glyph glyph-name="d" unicode="d" horiz-adv-x="575" 
d="M494 674v-674h-58l-25 42q-22 -31 -60 -44t-102 -13q-79 0 -120.5 22.5t-58.5 78.5t-17 164q0 103 16.5 158.5t56 79t111.5 23.5q91 0 134 -23v174zM361.5 88q9.5 5 9.5 20v306h-144q-25 0 -34.5 -5.5t-9.5 -20.5v-305h143q26 0 35.5 5z" />
    <glyph glyph-name="e" unicode="e" horiz-adv-x="548" 
d="M363 89q40 6 93 19l15 -88q-40 -15 -94.5 -23t-113.5 -8q-81 0 -126 24t-64.5 79.5t-19.5 157.5q0 99 21.5 155t69.5 81t132 25q83 0 127.5 -13.5t62.5 -46.5t18 -94q0 -70 -22.5 -103t-84.5 -45.5t-194 -12.5v-103q37 -10 99 -10q41 0 81 6zM200 403.5
q-17 -11.5 -17 -42.5v-92h110q46 0 63.5 11.5t17.5 43.5v91h-111q-46 0 -63 -11.5z" />
    <glyph glyph-name="f" unicode="f" horiz-adv-x="339" 
d="M234 591v-91h75v-83h-75v-417h-123v417h-66v83h66q4 68 17.5 105.5t41 53.5t76.5 16q47 0 96 -10l-7 -83z" />
    <glyph glyph-name="g" unicode="g" horiz-adv-x="516" 
d="M391 62.5q39 -12.5 54 -34t15 -63.5q0 -49 -20.5 -77.5t-65 -41.5t-120.5 -13q-56 0 -109.5 8t-95.5 23l16 90q51 -13 89 -19t77 -6q69 0 119 10v65q-100 7 -142.5 17t-42.5 28l28 98q-84 9 -118.5 51t-34.5 132q0 69 20 109t64.5 58t121.5 18q72 0 114 -14l74 57l61 -59
l-57 -68q16 -39 16 -101q0 -65 -17.5 -104t-56 -58t-105.5 -22l-5 -61q82 -10 121 -22.5zM160 220h110q36 0 50 12t14 43v166h-110q-36 0 -50 -12t-14 -43v-166z" />
    <glyph glyph-name="h" unicode="h" horiz-adv-x="580" 
d="M81 655l121 10v-195q31 21 69.5 31t89.5 10q70 0 107 -23.5t37 -68.5v-419h-123v410h-97q-47 0 -64 -11.5t-17 -42.5v-356h-123v655z" />
    <glyph glyph-name="i" unicode="i" horiz-adv-x="285" 
d="M71 0zM204 506v-506h-123v489zM86 591.5q-15 14.5 -15 55.5q0 42 15.5 57t56.5 15t55.5 -15t14.5 -57q0 -41 -14 -55.5t-56 -14.5t-57 14.5z" />
    <glyph glyph-name="j" unicode="j" horiz-adv-x="285" 
d="M0 0zM-19 -164l6 73q40 0 59.5 5t27 18t7.5 39v518l123 17v-555q0 -65 -32.5 -96t-101.5 -31q-53 0 -89 12zM86 591.5q-15 14.5 -15 55.5q0 42 15.5 57t56.5 15t55.5 -15t14.5 -57q0 -41 -14 -55.5t-56 -14.5t-57 14.5z" />
    <glyph glyph-name="k" unicode="k" horiz-adv-x="513" 
d="M204 226v-226h-123v650l123 15v-357h68l98 192h130l-125 -234l130 -266h-128l-104 226h-69z" />
    <glyph glyph-name="l" unicode="l" horiz-adv-x="280" 
d="M247 84l-7 -83q-45 -12 -76 -12q-44 0 -65.5 20t-21.5 63v578l123 15v-575q20 -4 47 -6z" />
    <glyph glyph-name="m" unicode="m" horiz-adv-x="860" 
d="M748 487.5q37 -23.5 37 -68.5v-419h-123v410h-93q-38 0 -54.5 -8t-19.5 -29v-373h-123v410h-94q-43 0 -58.5 -11t-15.5 -40v-359h-123v500h58l33 -50q74 61 179 61q99 0 131 -46q67 46 159 46q70 0 107 -23.5z" />
    <glyph glyph-name="n" unicode="n" horiz-adv-x="580" 
d="M81 500h58l33 -50q39 31 85.5 46t103.5 15q70 0 107 -23.5t37 -68.5v-419h-123v410h-104q-43 0 -58.5 -11t-15.5 -40v-359h-123v500z" />
    <glyph glyph-name="o" unicode="o" horiz-adv-x="562" 
d="M142.5 12q-48.5 23 -69 78.5t-20.5 159.5t20.5 159.5t69 78.5t138.5 23q91 0 139.5 -23t68.5 -78.5t20 -159.5t-20.5 -159.5t-69 -78.5t-138.5 -23t-138.5 23zM334 86q27 0 36.5 5.5t9.5 20.5v302h-151q-27 0 -36.5 -5.5t-9.5 -20.5v-302h151z" />
    <glyph glyph-name="p" unicode="p" horiz-adv-x="575" 
d="M449 488q40 -23 56.5 -78.5t16.5 -159.5q0 -105 -17 -161.5t-57 -80t-114 -23.5q-87 0 -130 22v-169l-123 -12v674h58l26 -44q23 31 62.5 43t106.5 12q75 0 115 -23zM392 414h-144q-25 0 -34.5 -5t-9.5 -17v-309h143q26 0 35.5 5t9.5 20v306z" />
    <glyph glyph-name="q" unicode="q" horiz-adv-x="575" 
d="M494 500v-662l-123 -12v181q-43 -22 -130 -22q-74 0 -114 23.5t-57 80t-17 161.5q0 104 16.5 159.5t56.5 78.5t115 23q67 0 106.5 -12t62.5 -43l26 44h58zM361.5 88q9.5 5 9.5 20v306h-144q-25 0 -34.5 -5t-9.5 -17v-309h143q26 0 35.5 5z" />
    <glyph glyph-name="r" unicode="r" horiz-adv-x="342" 
d="M180 424q41 38 74 59.5t65 31.5l11 -120q-31 -9 -67.5 -25.5t-58.5 -33.5v-336h-123v500h59z" />
    <glyph glyph-name="s" unicode="s" horiz-adv-x="490" 
d="M98 477.5q48 37.5 149 37.5q95 0 177 -22l-16 -88q-55 15 -121 15q-57 0 -107 -9v-99q113 -15 169.5 -33t78 -48.5t21.5 -86.5q0 -86 -50.5 -122.5t-168.5 -36.5q-94 0 -190 30l18 95q75 -30 163 -30q47 0 98 12v100q-121 16 -176 33t-74 46.5t-19 89.5q0 79 48 116.5z
" />
    <glyph glyph-name="t" unicode="t" horiz-adv-x="356" 
d="M231 417v-327q30 -5 68 -6l-6 -83q-57 -12 -98 -12q-44 0 -65.5 20t-21.5 63v345h-65v83h65v101l123 31v-132h85v-83h-85z" />
    <glyph glyph-name="u" unicode="u" horiz-adv-x="580" 
d="M500 0h-59l-32 50q-80 -61 -197 -61q-71 0 -103.5 27.5t-32.5 86.5v397h123v-421h103q43 0 59 11t16 40v370h123v-500z" />
    <glyph glyph-name="v" unicode="v" horiz-adv-x="477" 
d="M126 500l107 -394h10l107 394h121l-140 -500h-186l-140 500h121z" />
    <glyph glyph-name="w" unicode="w" horiz-adv-x="725" 
d="M719 500l-116 -500h-167l-74 324l-73 -324h-168l-116 500h121l84 -394h10l87 394h110l87 -394h10l84 394h121z" />
    <glyph glyph-name="x" unicode="x" horiz-adv-x="519" 
d="M365 0l-112 165l-101 -165h-131l167 260l-163 240h133l108 -158l97 158h131l-163 -254l168 -246h-134z" />
    <glyph glyph-name="y" unicode="y" horiz-adv-x="467" 
d="M461 500l-135 -465q-23 -81 -51 -126.5t-68.5 -65t-102.5 -19.5q-56 0 -95 12l5 65l81 10q36 5 55.5 14.5t31 28t21.5 55.5l7 26h-70l-135 465h121l102 -360h10l102 360h121z" />
    <glyph glyph-name="z" unicode="z" horiz-adv-x="486" 
d="M289 411h-222l-9 89h388v-68l-254 -337l3 -6h249v-89h-405v68l253 337z" />
    <glyph glyph-name="braceleft" unicode="{" horiz-adv-x="326" 
d="M280 -25l-7 -94q-71 0 -109.5 6.5t-60 30t-18.5 74.5l15 259l-65 17v86l65 17l-15 262q-3 51 17 74.5t58.5 30t112.5 6.5l7 -94l-83 -7l17 -196q1 -7 1 -21q0 -72 -57 -109v-12q57 -37 57 -109q0 -14 -1 -21l-17 -193z" />
    <glyph glyph-name="bar" unicode="|" horiz-adv-x="260" 
d="M167 704v-884h-74v884h74z" />
    <glyph glyph-name="braceright" unicode="}" horiz-adv-x="326" 
d="M112 175q-1 7 -1 21q0 72 57 109v12q-57 37 -57 109q0 14 1 21l17 196l-83 7l7 94q74 0 112.5 -6.5t58.5 -30t17 -74.5l-15 -262l65 -17v-86l-65 -17l15 -259q3 -51 -18.5 -74.5t-60 -30t-109.5 -6.5l-7 94l83 7z" />
    <glyph glyph-name="asciitilde" unicode="~" horiz-adv-x="530" 
d="M375 232q-25 0 -50 9t-60 27q-38 18 -62 27t-49 9q-43 0 -81 -32v88q37 33 81 33q25 0 49 -9t62 -27q35 -18 60 -27t50 -9q43 0 82 33v-88q-38 -34 -82 -34z" />
    <glyph glyph-name="uni00A0" unicode="&#xa0;" horiz-adv-x="497" 
 />
    <glyph glyph-name="exclamdown" unicode="&#xa1;" horiz-adv-x="261" 
d="M188.5 382q-14.5 -17 -57.5 -17t-58 17t-15 58q0 42 14.5 58.5t58.5 16.5q43 0 57.5 -16.5t14.5 -58.5q0 -41 -14.5 -58zM202 -116q0 -20 -27 -20h-88q-28 0 -28 20l32 421h79z" />
    <glyph glyph-name="cent" unicode="&#xa2;" horiz-adv-x="452" 
d="M267 54l-15 -184h-77l16 187q-53 8 -82.5 35t-42.5 80t-13 143q0 102 16.5 157.5t56 79t111.5 24.5l16 178h77l-16 -182q60 -5 94 -15l-13 -90q-66 15 -130 15q-46 0 -64 -18.5t-18 -63.5v-242q31 -10 90 -10q32 0 62.5 5.5t71.5 19.5l12 -88q-61 -26 -152 -31z" />
    <glyph glyph-name="sterling" unicode="&#xa3;" horiz-adv-x="542" 
d="M487 102l15 -102h-444v60l49 30l16 191h-65v69h71l3 39q8 93 33.5 147.5t73 79t125.5 24.5q30 0 73.5 -6.5t73.5 -15.5l-25 -100q-26 8 -64 13.5t-68 5.5q-46 0 -64.5 -20t-23.5 -74l-8 -93h151l-6 -69h-150l-15 -179h249z" />
    <glyph glyph-name="currency" unicode="&#xa4;" horiz-adv-x="678" 
d="M545.5 239.5q-8.5 -39.5 -28.5 -62.5l100 -139l-68 -41l-101 142q-40 -10 -108 -10q-70 0 -111 10l-101 -142l-68 41l101 138q-21 24 -29.5 63.5t-8.5 103.5q0 61 8.5 101t28.5 64l-100 140l67 41l101 -142q41 11 112 11q69 0 110 -10l101 141l67 -41l-100 -140
q20 -23 28 -62.5t8 -102.5q0 -64 -8.5 -103.5zM437 222v205q0 22 -14.5 30t-56.5 8h-127v-206q0 -23 13 -30t54 -7h131z" />
    <glyph glyph-name="yen" unicode="&#xa5;" horiz-adv-x="511" 
d="M381 354h80v-68h-111l-33 -73h144v-69h-144v-144h-123v144h-136v69h136l-33 73h-103v68h72l-121 271h128l119 -285l118 285h128z" />
    <glyph glyph-name="brokenbar" unicode="&#xa6;" horiz-adv-x="260" 
d="M167 704v-336h-74v336h74zM167 156v-336h-74v336h74z" />
    <glyph glyph-name="section" unicode="&#xa7;" horiz-adv-x="487" 
d="M441 95.5q9 -22.5 9 -57.5q0 -86 -50.5 -122.5t-168.5 -36.5q-92 0 -190 30l18 95q75 -30 163 -30q50 0 98 12v100q-122 17 -176.5 35t-73.5 48.5t-19 93.5q0 67 39 100q-23 16 -31 39t-8 62q0 79 48 116.5t149 37.5q95 0 177 -22l-16 -88q-51 15 -121 15q-64 0 -107 -9
v-99q113 -16 169 -35t78 -50.5t22 -89.5q0 -71 -40 -105q22 -17 31 -39.5zM325 169v138q-88 11 -148 24v-137q93 -12 148 -25z" />
    <glyph glyph-name="dieresis" unicode="&#xa8;" horiz-adv-x="600" 
d="M44 570zM56 583q-12 13 -12 49t12 50t48 14q35 0 46.5 -14t11.5 -50t-11.5 -49t-46.5 -13q-36 0 -48 13zM245 583q-12 13 -12 49t12 50t48 14q35 0 46.5 -14t11.5 -50t-11.5 -49t-46.5 -13q-36 0 -48 13z" />
    <glyph glyph-name="copyright" unicode="&#xa9;" horiz-adv-x="563" 
d="M91 240q-61 61 -61 191t61 190.5t191 60.5t190.5 -60.5t60.5 -190.5t-60.5 -191t-190.5 -61t-191 61zM407 234q46 21 66.5 68.5t20.5 128.5t-20.5 128t-66.5 68t-125 21q-80 0 -126.5 -21t-67 -68t-20.5 -128t20.5 -128.5t67 -68.5t126.5 -21q79 0 125 21zM192.5 309
q-28.5 35 -28.5 120q0 86 28.5 121.5t97.5 35.5q20 0 44.5 -3.5t36.5 -8.5l-13 -64q-28 7 -61 7q-25 0 -34 -5t-9 -18v-145q17 -3 36 -3q43 0 74 11l7 -71q-28 -12 -81 -12q-69 0 -97.5 35z" />
    <glyph glyph-name="ordfeminine" unicode="&#xaa;" horiz-adv-x="405" 
d="M330.5 721q36.5 -27 36.5 -91l-1 -280h-50l-27 39q-58 -48 -138 -48q-67 0 -96.5 28.5t-29.5 93.5q0 51 17.5 76t63 34.5t140.5 9.5h15v80q-27 6 -65 6q-54 0 -140 -19l-13 74q35 11 79.5 17.5t87.5 6.5q84 0 120.5 -27zM248.5 425.5q12.5 8.5 12.5 30.5v72h-80
q-35 0 -47.5 -8.5t-12.5 -31.5v-71h80q35 0 47.5 8.5zM52 278.5q10 9.5 39 9.5h260v-41q0 -27 -9.5 -36t-40.5 -9h-259v40q0 27 10 36.5z" />
    <glyph glyph-name="guillemotleft" unicode="&#xab;" horiz-adv-x="465" 
d="M25 207v85l161 159l45 -32l-96 -169l96 -169l-45 -32zM233 207v85l161 159l45 -32l-96 -169l96 -169l-45 -32z" />
    <glyph glyph-name="logicalnot" unicode="&#xac;" horiz-adv-x="530" 
d="M457 359v-219h-84v125h-300v94h384z" />
    <glyph glyph-name="registered" unicode="&#xae;" horiz-adv-x="563" 
d="M91 621.5q61 60.5 191 60.5t190.5 -60.5t60.5 -190.5t-60.5 -191t-190.5 -61t-191 61t-61 191t61 190.5zM88.5 302.5q20.5 -47.5 67 -68.5t126.5 -21q79 0 125 21t66.5 68.5t20.5 128.5t-20.5 128t-66.5 68t-125 21q-80 0 -126.5 -21t-67 -68t-20.5 -128t20.5 -128.5z
M282 376h-31v-95h-83v300h136q102 0 102 -102q0 -34 -11.5 -58t-33.5 -34l55 -106h-93zM287 440q17 0 23.5 4t6.5 15v36q0 11 -6 15t-24 4h-37v-74h37z" />
    <glyph glyph-name="macron" unicode="&#xaf;" horiz-adv-x="600" 
d="M72 582zM80 592q-8 10 -8 40v41h210q21 0 31 -4.5t12.5 -14t2.5 -30.5v-42h-209q-31 0 -39 10z" />
    <glyph glyph-name="degree" unicode="&#xb0;" horiz-adv-x="407" 
d="M86.5 646q36.5 38 117.5 38q80 0 116.5 -38t36.5 -115q0 -78 -36.5 -116t-116.5 -38q-81 0 -117.5 38t-36.5 116q0 77 36.5 115zM203 461q33 0 47.5 6.5t14.5 32.5v100h-57q-37 0 -52.5 -6.5t-15.5 -31.5v-101h63z" />
    <glyph glyph-name="plusminus" unicode="&#xb1;" horiz-adv-x="531" 
d="M73 0zM458 324h-145v-145h-94v145h-145v94h145v145h94v-145h145v-94zM457 94v-94h-384v94h384z" />
    <glyph glyph-name="uni00B2" unicode="&#xb2;" horiz-adv-x="436" 
d="M62 324zM62 388q0 51 14.5 77.5t60 50.5t153.5 64v89q-25 5 -66 5q-66 0 -142 -13l-9 61q63 18 146 18q79 0 116 -25.5t37 -80.5q0 -44 -14.5 -68t-62 -48.5t-160.5 -67.5v-61h229v-65h-302v64z" />
    <glyph glyph-name="uni00B3" unicode="&#xb3;" horiz-adv-x="408" 
d="M48 314zM48 332l9 61q63 -12 134 -12q56 0 75 4v109l-121 15v41l121 18v101q-22 5 -61 5q-67 0 -134 -13l-9 61q60 18 144 18q142 0 142 -109q0 -35 -14 -61t-41 -39v-3q28 -14 41.5 -38t13.5 -60q0 -41 -14 -66t-49 -37.5t-99 -12.5q-79 0 -138 18z" />
    <glyph glyph-name="acute" unicode="&#xb4;" horiz-adv-x="600" 
d="M125 558zM125 598l161 116q5 4 8 4q5 0 11 -6l47 -58q8 -8 8 -13q0 -6 -8 -13l-30 -24q-7 -7 -23 -11l-148 -35z" />
    <glyph glyph-name="uni00B5" unicode="&#xb5;" horiz-adv-x="585" 
d="M81 500h123v-421h87q43 0 67 13.5t24 56.5v351h123v-500h-59l-30 48q-24 -25 -61 -36.5t-77 -11.5h-96l-32 -165h-69v665z" />
    <glyph glyph-name="paragraph" unicode="&#xb6;" horiz-adv-x="604" 
d="M201 71v208q-69 9 -104.5 52.5t-35.5 117.5q0 176 193 176h279v-102h-50v-523h-118v523h-91v-523h-173v38z" />
    <glyph glyph-name="periodcentered" unicode="&#xb7;" horiz-adv-x="241" 
d="M60 299q15 17 60 17q44 0 59.5 -17.5t15.5 -59.5q0 -43 -15.5 -60t-59.5 -17q-45 0 -60 16.5t-15 60.5q0 43 15 60z" />
    <glyph glyph-name="cedilla" unicode="&#xb8;" horiz-adv-x="600" 
d="M0 0zM-3 -157l8 58h33q24 0 33.5 7.5t9.5 26.5v86h29q28 -14 45.5 -44.5t17.5 -65.5q0 -38 -27 -61.5t-72 -23.5q-37 0 -77 17z" />
    <glyph glyph-name="uni00B9" unicode="&#xb9;" horiz-adv-x="368" 
d="M45 324zM52 389h106v274l-113 -12v70l189 19v-351h85v-65h-267v65z" />
    <glyph glyph-name="ordmasculine" unicode="&#xba;" horiz-adv-x="507" 
d="M139 370q-41 19 -58 63.5t-17 126.5t17 126.5t58 63.5t115 19q75 0 115.5 -19t57.5 -63.5t17 -126.5t-17 -126.5t-57.5 -63.5t-115.5 -19q-74 0 -115 19zM296 434q23 0 30.5 4t7.5 16v232h-123q-22 0 -30 -4t-8 -16v-232h123zM96 280.5q11 9.5 43 9.5h284v-41
q0 -27 -10.5 -36t-43.5 -9h-284v40q0 27 11 36.5z" />
    <glyph glyph-name="guillemotright" unicode="&#xbb;" horiz-adv-x="465" 
d="M232 293v-85l-161 -159l-45 32l96 169l-96 169l45 32zM440 293v-85l-161 -159l-45 32l96 169l-96 169l45 32z" />
    <glyph glyph-name="onequarter" unicode="&#xbc;" horiz-adv-x="999" 
d="M45 0zM52 289h106v274l-113 -12v70l189 19v-351h85v-65h-267v65zM370 -34.5q-8 -5.5 -27 -5.5h-28l246 680q6 14 14.5 19.5t28.5 5.5h28l-246 -680q-8 -14 -16 -19.5zM588 86v42l155 278h151v-256h46v-64h-46v-86h-76v86h-230zM817 150v198h-27l-114 -198h141z" />
    <glyph glyph-name="onehalf" unicode="&#xbd;" horiz-adv-x="1016" 
d="M45 0zM52 289h106v274l-113 -12v70l189 19v-351h85v-65h-267v65zM370 -34.5q-8 -5.5 -27 -5.5h-28l246 680q6 14 14.5 19.5t28.5 5.5h28l-246 -680q-8 -14 -16 -19.5zM642 64q0 51 14.5 77.5t60 50.5t153.5 64v89q-25 5 -66 5q-66 0 -142 -13l-9 61q63 18 146 18
q79 0 116 -25.5t37 -80.5q0 -44 -14.5 -68t-62 -48.5t-160.5 -67.5v-61h229v-65h-302v64z" />
    <glyph glyph-name="threequarters" unicode="&#xbe;" horiz-adv-x="1039" 
d="M48 0zM48 232l9 61q63 -12 134 -12q56 0 75 4v109l-121 15v41l121 18v101q-22 5 -61 5q-67 0 -134 -13l-9 61q60 18 144 18q142 0 142 -109q0 -35 -14 -61t-41 -39v-3q28 -14 41.5 -38t13.5 -60q0 -41 -14 -66t-49 -37.5t-99 -12.5q-79 0 -138 18zM410 -34.5
q-8 -5.5 -27 -5.5h-28l246 680q6 14 14.5 19.5t28.5 5.5h28l-246 -680q-8 -14 -16 -19.5zM628 86v42l155 278h151v-256h46v-64h-46v-86h-76v86h-230zM857 150v198h-27l-114 -198h141z" />
    <glyph glyph-name="questiondown" unicode="&#xbf;" horiz-adv-x="443" 
d="M322.5 382q-14.5 -17 -57.5 -17t-58 17t-15 58q0 42 14.5 58.5t58.5 16.5q43 0 57.5 -16.5t14.5 -58.5q0 -41 -14.5 -58zM315 144q1 -15 -12 -23.5t-53 -22.5l-94 -31v-100q38 -6 83 -6q61 0 154 20l16 -84q-91 -28 -177 -28q-76 0 -120.5 14t-65 44.5t-20.5 83.5
q0 48 14 75t54 48t126 50l5 121h78z" />
    <glyph glyph-name="Agrave" unicode="&#xc0;" horiz-adv-x="572" 
d="M13 0zM399 131h-225l-38 -131h-123l179 625h188l179 -625h-123zM372 225l-81 285h-9l-82 -285h172zM229 711q-12 2 -23 10l-29 25q-8 5 -8 12q0 5 7 13l48 58q6 7 10 7t9 -4l161 -117l-27 -39z" />
    <glyph glyph-name="Aacute" unicode="&#xc1;" horiz-adv-x="572" 
d="M13 0zM399 131h-225l-38 -131h-123l179 625h188l179 -625h-123zM372 225l-81 285h-9l-82 -285h172zM194 723l161 116q5 4 8 4q5 0 11 -6l47 -58q8 -8 8 -13q0 -6 -8 -13l-30 -24q-7 -7 -23 -11l-148 -35z" />
    <glyph glyph-name="Acircumflex" unicode="&#xc2;" horiz-adv-x="572" 
d="M13 0zM399 131h-225l-38 -131h-123l179 625h188l179 -625h-123zM372 225l-81 285h-9l-82 -285h172zM162 714l100 120q4 7 11 7h25q6 0 12 -7l99 -120l-38 -37l-85 66l-86 -66z" />
    <glyph glyph-name="Atilde" unicode="&#xc3;" horiz-adv-x="572" 
d="M13 0zM399 131h-225l-38 -131h-123l179 625h188l179 -625h-123zM372 225l-81 285h-9l-82 -285h172zM275.5 692.5q-13.5 8.5 -41.5 35.5l-70 -35l-31 52q65 47 91 62t43 15q15 0 27.5 -7.5t42.5 -35.5l70 34l31 -51q-61 -46 -88.5 -62t-44.5 -16q-16 0 -29.5 8.5z" />
    <glyph glyph-name="Adieresis" unicode="&#xc4;" horiz-adv-x="572" 
d="M13 0zM399 131h-225l-38 -131h-123l179 625h188l179 -625h-123zM372 225l-81 285h-9l-82 -285h172zM144 708q-12 13 -12 49t12 50t48 14q35 0 46.5 -14t11.5 -50t-11.5 -49t-46.5 -13q-36 0 -48 13zM333 708q-12 13 -12 49t12 50t48 14q35 0 46.5 -14t11.5 -50t-11.5 -49
t-46.5 -13q-36 0 -48 13z" />
    <glyph glyph-name="Aring" unicode="&#xc5;" horiz-adv-x="572" 
d="M13 0zM399 131h-225l-38 -131h-123l179 625h188l179 -625h-123zM372 225l-81 285h-9l-82 -285h172zM207.5 686.5q-24.5 25.5 -24.5 77.5t24.5 77t78.5 25t78 -25t24 -77t-24 -77.5t-78 -25.5t-78.5 25.5zM284 718q22 0 32 4.5t10 21.5v65h-37q-24 0 -34.5 -4.5
t-10.5 -20.5v-66h40z" />
    <glyph glyph-name="AE" unicode="&#xc6;" horiz-adv-x="776" 
d="M175 625h506l-17 -106h-245l42 -161h179v-99h-154l39 -153h206v-106h-308l-31 128h-218l-31 -128h-130zM366 234l-66 276h-34l-67 -276h167z" />
    <glyph glyph-name="Ccedilla" unicode="&#xc7;" horiz-adv-x="494" 
d="M399.5 -8q-37.5 -6 -87.5 -7q23 -35 23 -74q0 -38 -27 -61.5t-72 -23.5q-37 0 -77 17l8 58h33q24 0 33.5 7.5t9.5 26.5v52q-74 7 -114 39.5t-56 99.5t-16 186q0 132 21.5 201.5t74.5 98t156 28.5q35 0 80.5 -6.5t70.5 -15.5l-16 -100q-33 8 -77 13.5t-72 5.5
q-59 0 -82.5 -15t-23.5 -60v-361q52 -13 110 -13q80 0 160 25l11 -102q-33 -13 -70.5 -19z" />
    <glyph glyph-name="Egrave" unicode="&#xc8;" horiz-adv-x="516" 
d="M81 0zM204 102h266v-102h-389v625h388l-15 -102h-250v-163h228v-95h-228v-163zM223 711q-12 2 -23 10l-29 25q-8 5 -8 12q0 5 7 13l48 58q6 7 10 7t9 -4l161 -117l-27 -39z" />
    <glyph glyph-name="Eacute" unicode="&#xc9;" horiz-adv-x="516" 
d="M81 0zM204 102h266v-102h-389v625h388l-15 -102h-250v-163h228v-95h-228v-163zM188 723l161 116q5 4 8 4q5 0 11 -6l47 -58q8 -8 8 -13q0 -6 -8 -13l-30 -24q-7 -7 -23 -11l-148 -35z" />
    <glyph glyph-name="Ecircumflex" unicode="&#xca;" horiz-adv-x="516" 
d="M81 0zM204 102h266v-102h-389v625h388l-15 -102h-250v-163h228v-95h-228v-163zM156 714l100 120q4 7 11 7h25q6 0 12 -7l99 -120l-38 -37l-85 66l-86 -66z" />
    <glyph glyph-name="Edieresis" unicode="&#xcb;" horiz-adv-x="516" 
d="M81 0zM204 102h266v-102h-389v625h388l-15 -102h-250v-163h228v-95h-228v-163zM138 708q-12 13 -12 49t12 50t48 14q35 0 46.5 -14t11.5 -50t-11.5 -49t-46.5 -13q-36 0 -48 13zM327 708q-12 13 -12 49t12 50t48 14q35 0 46.5 -14t11.5 -50t-11.5 -49t-46.5 -13
q-36 0 -48 13z" />
    <glyph glyph-name="Igrave" unicode="&#xcc;" horiz-adv-x="285" 
d="M25 0zM204 625v-625h-123v625h123zM85 711q-12 2 -23 10l-29 25q-8 5 -8 12q0 5 7 13l48 58q6 7 10 7t9 -4l161 -117l-27 -39z" />
    <glyph glyph-name="Iacute" unicode="&#xcd;" horiz-adv-x="285" 
d="M50 0zM204 625v-625h-123v625h123zM50 723l161 116q5 4 8 4q5 0 11 -6l47 -58q8 -8 8 -13q0 -6 -8 -13l-30 -24q-7 -7 -23 -11l-148 -35z" />
    <glyph glyph-name="Icircumflex" unicode="&#xce;" horiz-adv-x="285" 
d="M18 0zM204 625v-625h-123v625h123zM18 714l100 120q4 7 11 7h25q6 0 12 -7l99 -120l-38 -37l-85 66l-86 -66z" />
    <glyph glyph-name="Idieresis" unicode="&#xcf;" horiz-adv-x="285" 
d="M0 0zM204 625v-625h-123v625h123zM0 708q-12 13 -12 49t12 50t48 14q35 0 46.5 -14t11.5 -50t-11.5 -49t-46.5 -13q-36 0 -48 13zM189 708q-12 13 -12 49t12 50t48 14q35 0 46.5 -14t11.5 -50t-11.5 -49t-46.5 -13q-36 0 -48 13z" />
    <glyph glyph-name="Eth" unicode="&#xd0;" horiz-adv-x="631" 
d="M479.5 600q53.5 -25 74 -90.5t20.5 -197.5t-20.5 -197t-74 -90t-161.5 -25h-237v270h-59v40q0 27 9.5 36.5t35.5 9.5h14v269h237q108 0 161.5 -25zM442 455q0 40 -17 55t-61 15h-160v-169h99v-41q0 -27 -8.5 -36t-36.5 -9h-54v-170h160q44 0 61 15t17 55v285z" />
    <glyph glyph-name="Ntilde" unicode="&#xd1;" horiz-adv-x="664" 
d="M86 0zM86 625h120l218 -351q15 -25 20 -37t6 -27h6v415h123v-625h-121l-217 351q-15 24 -19.5 36t-6.5 28h-6v-415h-123v625zM329.5 692.5q-13.5 8.5 -41.5 35.5l-70 -35l-31 52q65 47 91 62t43 15q15 0 27.5 -7.5t42.5 -35.5l70 34l31 -51q-61 -46 -88.5 -62t-44.5 -16
q-16 0 -29.5 8.5z" />
    <glyph glyph-name="Ograve" unicode="&#xd2;" horiz-adv-x="642" 
d="M57 0zM78.5 517.5q21.5 68.5 77 95.5t165.5 27t165 -27t77 -95.5t22 -205.5q0 -136 -22 -204.5t-77 -95.5t-165 -27t-165.5 27t-77 95t-21.5 205t21.5 205.5zM369 90q47 0 65.5 15t18.5 53v377h-181q-47 0 -65 -15t-18 -53v-377h180zM264 711q-12 2 -23 10l-29 25
q-8 5 -8 12q0 5 7 13l48 58q6 7 10 7t9 -4l161 -117l-27 -39z" />
    <glyph glyph-name="Oacute" unicode="&#xd3;" horiz-adv-x="642" 
d="M57 0zM78.5 517.5q21.5 68.5 77 95.5t165.5 27t165 -27t77 -95.5t22 -205.5q0 -136 -22 -204.5t-77 -95.5t-165 -27t-165.5 27t-77 95t-21.5 205t21.5 205.5zM369 90q47 0 65.5 15t18.5 53v377h-181q-47 0 -65 -15t-18 -53v-377h180zM229 723l161 116q5 4 8 4q5 0 11 -6
l47 -58q8 -8 8 -13q0 -6 -8 -13l-30 -24q-7 -7 -23 -11l-148 -35z" />
    <glyph glyph-name="Ocircumflex" unicode="&#xd4;" horiz-adv-x="642" 
d="M57 0zM78.5 517.5q21.5 68.5 77 95.5t165.5 27t165 -27t77 -95.5t22 -205.5q0 -136 -22 -204.5t-77 -95.5t-165 -27t-165.5 27t-77 95t-21.5 205t21.5 205.5zM369 90q47 0 65.5 15t18.5 53v377h-181q-47 0 -65 -15t-18 -53v-377h180zM197 714l100 120q4 7 11 7h25
q6 0 12 -7l99 -120l-38 -37l-85 66l-86 -66z" />
    <glyph glyph-name="Otilde" unicode="&#xd5;" horiz-adv-x="642" 
d="M57 0zM78.5 517.5q21.5 68.5 77 95.5t165.5 27t165 -27t77 -95.5t22 -205.5q0 -136 -22 -204.5t-77 -95.5t-165 -27t-165.5 27t-77 95t-21.5 205t21.5 205.5zM369 90q47 0 65.5 15t18.5 53v377h-181q-47 0 -65 -15t-18 -53v-377h180zM310.5 692.5q-13.5 8.5 -41.5 35.5
l-70 -35l-31 52q65 47 91 62t43 15q15 0 27.5 -7.5t42.5 -35.5l70 34l31 -51q-61 -46 -88.5 -62t-44.5 -16q-16 0 -29.5 8.5z" />
    <glyph glyph-name="Odieresis" unicode="&#xd6;" horiz-adv-x="642" 
d="M57 0zM78.5 517.5q21.5 68.5 77 95.5t165.5 27t165 -27t77 -95.5t22 -205.5q0 -136 -22 -204.5t-77 -95.5t-165 -27t-165.5 27t-77 95t-21.5 205t21.5 205.5zM369 90q47 0 65.5 15t18.5 53v377h-181q-47 0 -65 -15t-18 -53v-377h180zM179 708q-12 13 -12 49t12 50t48 14
q35 0 46.5 -14t11.5 -50t-11.5 -49t-46.5 -13q-36 0 -48 13zM368 708q-12 13 -12 49t12 50t48 14q35 0 46.5 -14t11.5 -50t-11.5 -49t-46.5 -13q-36 0 -48 13z" />
    <glyph glyph-name="multiply" unicode="&#xd7;" horiz-adv-x="530" 
d="M330 312l123 -123l-65 -66l-123 123l-123 -123l-66 66l123 123l-123 123l66 66l123 -123l123 123l65 -66z" />
    <glyph glyph-name="Oslash" unicode="&#xd8;" horiz-adv-x="642" 
d="M563.5 517q21.5 -68 21.5 -205q0 -136 -22 -204.5t-77 -95.5t-165 -27q-66 0 -105 8l-18 -41q-7 -16 -16 -21.5t-27 -5.5h-36l38 86q-57 28 -78.5 96.5t-21.5 204.5q0 137 21.5 205.5t77 95.5t165.5 27q66 0 105 -8l18 41q7 16 16.5 22t26.5 6h36l-38 -87
q57 -29 78.5 -97zM191 90l193 445h-112q-47 0 -65 -15t-18 -53v-377h2zM453 535h-2l-193 -445h111q47 0 65.5 15t18.5 53v377z" />
    <glyph glyph-name="Ugrave" unicode="&#xd9;" horiz-adv-x="637" 
d="M71 0zM164 3q-52 18 -72.5 62.5t-20.5 133.5v426h123v-535h129q50 0 75.5 4.5t35 15.5t9.5 33v482h123v-426q0 -89 -20.5 -133.5t-72.5 -62.5t-154 -18q-103 0 -155 18zM263 711q-12 2 -23 10l-29 25q-8 5 -8 12q0 5 7 13l48 58q6 7 10 7t9 -4l161 -117l-27 -39z" />
    <glyph glyph-name="Uacute" unicode="&#xda;" horiz-adv-x="637" 
d="M71 0zM164 3q-52 18 -72.5 62.5t-20.5 133.5v426h123v-535h129q50 0 75.5 4.5t35 15.5t9.5 33v482h123v-426q0 -89 -20.5 -133.5t-72.5 -62.5t-154 -18q-103 0 -155 18zM228 723l161 116q5 4 8 4q5 0 11 -6l47 -58q8 -8 8 -13q0 -6 -8 -13l-30 -24q-7 -7 -23 -11
l-148 -35z" />
    <glyph glyph-name="Ucircumflex" unicode="&#xdb;" horiz-adv-x="637" 
d="M71 0zM164 3q-52 18 -72.5 62.5t-20.5 133.5v426h123v-535h129q50 0 75.5 4.5t35 15.5t9.5 33v482h123v-426q0 -89 -20.5 -133.5t-72.5 -62.5t-154 -18q-103 0 -155 18zM196 714l100 120q4 7 11 7h25q6 0 12 -7l99 -120l-38 -37l-85 66l-86 -66z" />
    <glyph glyph-name="Udieresis" unicode="&#xdc;" horiz-adv-x="637" 
d="M71 0zM164 3q-52 18 -72.5 62.5t-20.5 133.5v426h123v-535h129q50 0 75.5 4.5t35 15.5t9.5 33v482h123v-426q0 -89 -20.5 -133.5t-72.5 -62.5t-154 -18q-103 0 -155 18zM178 708q-12 13 -12 49t12 50t48 14q35 0 46.5 -14t11.5 -50t-11.5 -49t-46.5 -13q-36 0 -48 13z
M367 708q-12 13 -12 49t12 50t48 14q35 0 46.5 -14t11.5 -50t-11.5 -49t-46.5 -13q-36 0 -48 13z" />
    <glyph glyph-name="Yacute" unicode="&#xdd;" horiz-adv-x="511" 
d="M9 0zM502 625l-185 -413v-212h-123v212l-185 413h128l119 -285l118 285h128zM163 723l161 116q5 4 8 4q5 0 11 -6l47 -58q8 -8 8 -13q0 -6 -8 -13l-30 -24q-7 -7 -23 -11l-148 -35z" />
    <glyph glyph-name="Thorn" unicode="&#xde;" horiz-adv-x="544" 
d="M447 507.5q41 -20.5 59.5 -67t18.5 -127.5q0 -115 -41 -165.5t-134 -50.5h-146v-97h-123v625h123v-97h131q71 0 112 -20.5zM396 392q0 24 -13.5 33t-48.5 9h-130v-243h130q35 0 48.5 9t13.5 33v159z" />
    <glyph glyph-name="germandbls" unicode="&#xdf;" horiz-adv-x="643" 
d="M270 6l18 95q62 -21 124 -21q51 0 67 6v110q-74 32 -106 49.5t-43 32t-11 38.5q0 21 10.5 39t32.5 44q25 30 37.5 52t12.5 51q0 40 -26.5 59t-82.5 19q-37 0 -70 -7v-573h-123v417h-65v83h65q6 65 28 103t65 55t115 17q217 0 217 -152q0 -45 -22.5 -87.5t-79.5 -106.5
q67 -30 103 -56.5t51 -57.5t15 -76q0 -79 -46 -116.5t-144 -37.5q-74 0 -142 21z" />
    <glyph glyph-name="agrave" unicode="&#xe0;" horiz-adv-x="550" 
d="M48 0zM429.5 477q44.5 -34 44.5 -114v-363h-59l-32 50q-71 -61 -177 -61q-84 0 -121 36t-37 118q0 70 21.5 103t80 45.5t182.5 12.5h19v103q-34 10 -90 10q-84 0 -175 -25l-16 88q41 14 97.5 22.5t111.5 8.5q106 0 150.5 -34zM334.5 90.5q16.5 11.5 16.5 42.5v98h-112
q-46 0 -62.5 -11.5t-16.5 -43.5v-97h113q45 0 61.5 11.5zM222 586q-12 2 -23 10l-29 25q-8 5 -8 12q0 5 7 13l48 58q6 7 10 7t9 -4l161 -117l-27 -39z" />
    <glyph glyph-name="aacute" unicode="&#xe1;" horiz-adv-x="550" 
d="M48 0zM429.5 477q44.5 -34 44.5 -114v-363h-59l-32 50q-71 -61 -177 -61q-84 0 -121 36t-37 118q0 70 21.5 103t80 45.5t182.5 12.5h19v103q-34 10 -90 10q-84 0 -175 -25l-16 88q41 14 97.5 22.5t111.5 8.5q106 0 150.5 -34zM334.5 90.5q16.5 11.5 16.5 42.5v98h-112
q-46 0 -62.5 -11.5t-16.5 -43.5v-97h113q45 0 61.5 11.5zM187 598l161 116q5 4 8 4q5 0 11 -6l47 -58q8 -8 8 -13q0 -6 -8 -13l-30 -24q-7 -7 -23 -11l-148 -35z" />
    <glyph glyph-name="acircumflex" unicode="&#xe2;" horiz-adv-x="550" 
d="M48 0zM429.5 477q44.5 -34 44.5 -114v-363h-59l-32 50q-71 -61 -177 -61q-84 0 -121 36t-37 118q0 70 21.5 103t80 45.5t182.5 12.5h19v103q-34 10 -90 10q-84 0 -175 -25l-16 88q41 14 97.5 22.5t111.5 8.5q106 0 150.5 -34zM334.5 90.5q16.5 11.5 16.5 42.5v98h-112
q-46 0 -62.5 -11.5t-16.5 -43.5v-97h113q45 0 61.5 11.5zM155 589l100 120q4 7 11 7h25q6 0 12 -7l99 -120l-38 -37l-85 66l-86 -66z" />
    <glyph glyph-name="atilde" unicode="&#xe3;" horiz-adv-x="550" 
d="M48 0zM429.5 477q44.5 -34 44.5 -114v-363h-59l-32 50q-71 -61 -177 -61q-84 0 -121 36t-37 118q0 70 21.5 103t80 45.5t182.5 12.5h19v103q-34 10 -90 10q-84 0 -175 -25l-16 88q41 14 97.5 22.5t111.5 8.5q106 0 150.5 -34zM334.5 90.5q16.5 11.5 16.5 42.5v98h-112
q-46 0 -62.5 -11.5t-16.5 -43.5v-97h113q45 0 61.5 11.5zM268.5 567.5q-13.5 8.5 -41.5 35.5l-70 -35l-31 52q65 47 91 62t43 15q15 0 27.5 -7.5t42.5 -35.5l70 34l31 -51q-61 -46 -88.5 -62t-44.5 -16q-16 0 -29.5 8.5z" />
    <glyph glyph-name="adieresis" unicode="&#xe4;" horiz-adv-x="550" 
d="M48 0zM429.5 477q44.5 -34 44.5 -114v-363h-59l-32 50q-71 -61 -177 -61q-84 0 -121 36t-37 118q0 70 21.5 103t80 45.5t182.5 12.5h19v103q-34 10 -90 10q-84 0 -175 -25l-16 88q41 14 97.5 22.5t111.5 8.5q106 0 150.5 -34zM334.5 90.5q16.5 11.5 16.5 42.5v98h-112
q-46 0 -62.5 -11.5t-16.5 -43.5v-97h113q45 0 61.5 11.5zM137 583q-12 13 -12 49t12 50t48 14q35 0 46.5 -14t11.5 -50t-11.5 -49t-46.5 -13q-36 0 -48 13zM326 583q-12 13 -12 49t12 50t48 14q35 0 46.5 -14t11.5 -50t-11.5 -49t-46.5 -13q-36 0 -48 13z" />
    <glyph glyph-name="aring" unicode="&#xe5;" horiz-adv-x="550" 
d="M48 0zM429.5 477q44.5 -34 44.5 -114v-363h-59l-32 50q-71 -61 -177 -61q-84 0 -121 36t-37 118q0 70 21.5 103t80 45.5t182.5 12.5h19v103q-34 10 -90 10q-84 0 -175 -25l-16 88q41 14 97.5 22.5t111.5 8.5q106 0 150.5 -34zM334.5 90.5q16.5 11.5 16.5 42.5v98h-112
q-46 0 -62.5 -11.5t-16.5 -43.5v-97h113q45 0 61.5 11.5zM200.5 561.5q-24.5 25.5 -24.5 77.5t24.5 77t78.5 25t78 -25t24 -77t-24 -77.5t-78 -25.5t-78.5 25.5zM277 593q22 0 32 4.5t10 21.5v65h-37q-24 0 -34.5 -4.5t-10.5 -20.5v-66h40z" />
    <glyph glyph-name="ae" unicode="&#xe6;" horiz-adv-x="839" 
d="M654.5 89q40.5 6 92.5 19l15 -88q-42 -15 -96.5 -23t-111.5 -8q-66 0 -106 14.5t-64 47.5q-72 -62 -178 -62q-84 0 -121 36t-37 118q0 70 21.5 103t80 45.5t182.5 12.5h19v103q-34 10 -90 10q-84 0 -175 -25l-16 88q41 14 97.5 22.5t111.5 8.5q102 0 146 -31
q49 31 142 31q83 0 127.5 -13.5t62.5 -46.5t18 -94q0 -70 -22.5 -103t-84.5 -45.5t-194 -12.5v-103q40 -10 99 -10q41 0 81.5 6zM491 403.5q-17 -11.5 -17 -42.5v-92h110q46 0 63.5 11.5t17.5 43.5v91h-111q-46 0 -63 -11.5zM334.5 90.5q16.5 11.5 16.5 42.5v98h-112
q-46 0 -62.5 -11.5t-16.5 -43.5v-97h113q45 0 61.5 11.5z" />
    <glyph glyph-name="ccedilla" unicode="&#xe7;" horiz-adv-x="452" 
d="M279 -10q27 -35 27 -79q0 -38 -27 -61.5t-72 -23.5q-37 0 -77 17l8 58h33q24 0 33.5 7.5t9.5 26.5v55q-62 4 -97 29.5t-49.5 80t-14.5 150.5q0 103 17 159t58 79t116 23q41 0 87.5 -5.5t76.5 -13.5l-13 -90q-66 15 -130 15q-46 0 -64 -18.5t-18 -63.5v-242q31 -10 90 -10
q32 0 62.5 5.5t71.5 19.5l12 -88q-62 -26 -140 -30z" />
    <glyph glyph-name="egrave" unicode="&#xe8;" horiz-adv-x="548" 
d="M53 0zM363 89q40 6 93 19l15 -88q-40 -15 -94.5 -23t-113.5 -8q-81 0 -126 24t-64.5 79.5t-19.5 157.5q0 99 21.5 155t69.5 81t132 25q83 0 127.5 -13.5t62.5 -46.5t18 -94q0 -70 -22.5 -103t-84.5 -45.5t-194 -12.5v-103q37 -10 99 -10q41 0 81 6zM200 403.5
q-17 -11.5 -17 -42.5v-92h110q46 0 63.5 11.5t17.5 43.5v91h-111q-46 0 -63 -11.5zM220 586q-12 2 -23 10l-29 25q-8 5 -8 12q0 5 7 13l48 58q6 7 10 7t9 -4l161 -117l-27 -39z" />
    <glyph glyph-name="eacute" unicode="&#xe9;" horiz-adv-x="548" 
d="M53 0zM363 89q40 6 93 19l15 -88q-40 -15 -94.5 -23t-113.5 -8q-81 0 -126 24t-64.5 79.5t-19.5 157.5q0 99 21.5 155t69.5 81t132 25q83 0 127.5 -13.5t62.5 -46.5t18 -94q0 -70 -22.5 -103t-84.5 -45.5t-194 -12.5v-103q37 -10 99 -10q41 0 81 6zM200 403.5
q-17 -11.5 -17 -42.5v-92h110q46 0 63.5 11.5t17.5 43.5v91h-111q-46 0 -63 -11.5zM185 598l161 116q5 4 8 4q5 0 11 -6l47 -58q8 -8 8 -13q0 -6 -8 -13l-30 -24q-7 -7 -23 -11l-148 -35z" />
    <glyph glyph-name="ecircumflex" unicode="&#xea;" horiz-adv-x="548" 
d="M53 0zM363 89q40 6 93 19l15 -88q-40 -15 -94.5 -23t-113.5 -8q-81 0 -126 24t-64.5 79.5t-19.5 157.5q0 99 21.5 155t69.5 81t132 25q83 0 127.5 -13.5t62.5 -46.5t18 -94q0 -70 -22.5 -103t-84.5 -45.5t-194 -12.5v-103q37 -10 99 -10q41 0 81 6zM200 403.5
q-17 -11.5 -17 -42.5v-92h110q46 0 63.5 11.5t17.5 43.5v91h-111q-46 0 -63 -11.5zM153 589l100 120q4 7 11 7h25q6 0 12 -7l99 -120l-38 -37l-85 66l-86 -66z" />
    <glyph glyph-name="edieresis" unicode="&#xeb;" horiz-adv-x="548" 
d="M53 0zM363 89q40 6 93 19l15 -88q-40 -15 -94.5 -23t-113.5 -8q-81 0 -126 24t-64.5 79.5t-19.5 157.5q0 99 21.5 155t69.5 81t132 25q83 0 127.5 -13.5t62.5 -46.5t18 -94q0 -70 -22.5 -103t-84.5 -45.5t-194 -12.5v-103q37 -10 99 -10q41 0 81 6zM200 403.5
q-17 -11.5 -17 -42.5v-92h110q46 0 63.5 11.5t17.5 43.5v91h-111q-46 0 -63 -11.5zM135 583q-12 13 -12 49t12 50t48 14q35 0 46.5 -14t11.5 -50t-11.5 -49t-46.5 -13q-36 0 -48 13zM324 583q-12 13 -12 49t12 50t48 14q35 0 46.5 -14t11.5 -50t-11.5 -49t-46.5 -13
q-36 0 -48 13z" />
    <glyph glyph-name="igrave" unicode="&#xec;" horiz-adv-x="285" 
d="M25 0zM204 506v-506h-123v489zM85 586q-12 2 -23 10l-29 25q-8 5 -8 12q0 5 7 13l48 58q6 7 10 7t9 -4l161 -117l-27 -39z" />
    <glyph glyph-name="iacute" unicode="&#xed;" horiz-adv-x="285" 
d="M50 0zM204 506v-506h-123v489zM50 598l161 116q5 4 8 4q5 0 11 -6l47 -58q8 -8 8 -13q0 -6 -8 -13l-30 -24q-7 -7 -23 -11l-148 -35z" />
    <glyph glyph-name="icircumflex" unicode="&#xee;" horiz-adv-x="285" 
d="M18 0zM204 506v-506h-123v489zM18 589l100 120q4 7 11 7h25q6 0 12 -7l99 -120l-38 -37l-85 66l-86 -66z" />
    <glyph glyph-name="idieresis" unicode="&#xef;" horiz-adv-x="285" 
d="M0 0zM204 506v-506h-123v489zM0 583q-12 13 -12 49t12 50t48 14q35 0 46.5 -14t11.5 -50t-11.5 -49t-46.5 -13q-36 0 -48 13zM189 583q-12 13 -12 49t12 50t48 14q35 0 46.5 -14t11.5 -50t-11.5 -49t-46.5 -13q-36 0 -48 13z" />
    <glyph glyph-name="eth" unicode="&#xf0;" horiz-adv-x="565" 
d="M525 591q0 -17 -19 -24l-47 -16q22 -53 34 -106.5t12 -100.5v-120q0 -92 -20 -142.5t-68 -71.5t-136 -21t-136 20t-68 68.5t-20 137.5t20 137.5t68 68.5t136 20h95q-9 37 -24 75l-81 -27l-10 30q-7 20 -7 33q0 17 19 23l44 15q-19 33 -41 64l109 31q23 -31 38 -60l85 28
l11 -30q6 -19 6 -32zM375 344h-144q-25 0 -34.5 -5.5t-9.5 -20.5v-232h143q26 0 35.5 5.5t9.5 20.5v232z" />
    <glyph glyph-name="ntilde" unicode="&#xf1;" horiz-adv-x="580" 
d="M81 0zM81 500h58l33 -50q39 31 85.5 46t103.5 15q70 0 107 -23.5t37 -68.5v-419h-123v410h-104q-43 0 -58.5 -11t-15.5 -40v-359h-123v500zM289.5 567.5q-13.5 8.5 -41.5 35.5l-70 -35l-31 52q65 47 91 62t43 15q15 0 27.5 -7.5t42.5 -35.5l70 34l31 -51
q-61 -46 -88.5 -62t-44.5 -16q-16 0 -29.5 8.5z" />
    <glyph glyph-name="ograve" unicode="&#xf2;" horiz-adv-x="562" 
d="M53 0zM142.5 12q-48.5 23 -69 78.5t-20.5 159.5t20.5 159.5t69 78.5t138.5 23q91 0 139.5 -23t68.5 -78.5t20 -159.5t-20.5 -159.5t-69 -78.5t-138.5 -23t-138.5 23zM334 86q27 0 36.5 5.5t9.5 20.5v302h-151q-27 0 -36.5 -5.5t-9.5 -20.5v-302h151zM224 586
q-12 2 -23 10l-29 25q-8 5 -8 12q0 5 7 13l48 58q6 7 10 7t9 -4l161 -117l-27 -39z" />
    <glyph glyph-name="oacute" unicode="&#xf3;" horiz-adv-x="562" 
d="M53 0zM142.5 12q-48.5 23 -69 78.5t-20.5 159.5t20.5 159.5t69 78.5t138.5 23q91 0 139.5 -23t68.5 -78.5t20 -159.5t-20.5 -159.5t-69 -78.5t-138.5 -23t-138.5 23zM334 86q27 0 36.5 5.5t9.5 20.5v302h-151q-27 0 -36.5 -5.5t-9.5 -20.5v-302h151zM189 598l161 116
q5 4 8 4q5 0 11 -6l47 -58q8 -8 8 -13q0 -6 -8 -13l-30 -24q-7 -7 -23 -11l-148 -35z" />
    <glyph glyph-name="ocircumflex" unicode="&#xf4;" horiz-adv-x="562" 
d="M53 0zM142.5 12q-48.5 23 -69 78.5t-20.5 159.5t20.5 159.5t69 78.5t138.5 23q91 0 139.5 -23t68.5 -78.5t20 -159.5t-20.5 -159.5t-69 -78.5t-138.5 -23t-138.5 23zM334 86q27 0 36.5 5.5t9.5 20.5v302h-151q-27 0 -36.5 -5.5t-9.5 -20.5v-302h151zM157 589l100 120
q4 7 11 7h25q6 0 12 -7l99 -120l-38 -37l-85 66l-86 -66z" />
    <glyph glyph-name="otilde" unicode="&#xf5;" horiz-adv-x="562" 
d="M53 0zM142.5 12q-48.5 23 -69 78.5t-20.5 159.5t20.5 159.5t69 78.5t138.5 23q91 0 139.5 -23t68.5 -78.5t20 -159.5t-20.5 -159.5t-69 -78.5t-138.5 -23t-138.5 23zM334 86q27 0 36.5 5.5t9.5 20.5v302h-151q-27 0 -36.5 -5.5t-9.5 -20.5v-302h151zM270.5 567.5
q-13.5 8.5 -41.5 35.5l-70 -35l-31 52q65 47 91 62t43 15q15 0 27.5 -7.5t42.5 -35.5l70 34l31 -51q-61 -46 -88.5 -62t-44.5 -16q-16 0 -29.5 8.5z" />
    <glyph glyph-name="odieresis" unicode="&#xf6;" horiz-adv-x="562" 
d="M53 0zM142.5 12q-48.5 23 -69 78.5t-20.5 159.5t20.5 159.5t69 78.5t138.5 23q91 0 139.5 -23t68.5 -78.5t20 -159.5t-20.5 -159.5t-69 -78.5t-138.5 -23t-138.5 23zM334 86q27 0 36.5 5.5t9.5 20.5v302h-151q-27 0 -36.5 -5.5t-9.5 -20.5v-302h151zM139 583
q-12 13 -12 49t12 50t48 14q35 0 46.5 -14t11.5 -50t-11.5 -49t-46.5 -13q-36 0 -48 13zM328 583q-12 13 -12 49t12 50t48 14q35 0 46.5 -14t11.5 -50t-11.5 -49t-46.5 -13q-36 0 -48 13z" />
    <glyph glyph-name="divide" unicode="&#xf7;" horiz-adv-x="530" 
d="M220.5 528q11.5 13 44.5 13t44.5 -13t11.5 -45q0 -33 -11 -45t-45 -12t-45 12t-11 45q0 32 11.5 45zM457 359v-94h-384v94h384zM220.5 172q11.5 13 44.5 13t44.5 -13t11.5 -45q0 -33 -11 -45t-45 -12t-45 12t-11 45q0 32 11.5 45z" />
    <glyph glyph-name="oslash" unicode="&#xf8;" horiz-adv-x="562" 
d="M490.5 405q18.5 -55 18.5 -155q0 -104 -20.5 -159.5t-69 -78.5t-138.5 -23q-53 0 -88 7l-35 -74q-7 -15 -16 -20t-27 -5h-36l57 119q-46 25 -64.5 79.5t-18.5 154.5q0 104 20.5 159.5t69 78.5t138.5 23q53 0 88 -7l35 73q7 15 16 20t27 5h36l-56 -117q45 -25 63.5 -80z
M183 115l143 299h-97q-27 0 -36.5 -5.5t-9.5 -20.5v-273zM370.5 91.5q9.5 5.5 9.5 20.5v274l-144 -300h98q27 0 36.5 5.5z" />
    <glyph glyph-name="ugrave" unicode="&#xf9;" horiz-adv-x="580" 
d="M76 0zM500 0h-59l-32 50q-80 -61 -197 -61q-71 0 -103.5 27.5t-32.5 86.5v397h123v-421h103q43 0 59 11t16 40v370h123v-500zM233 586q-12 2 -23 10l-29 25q-8 5 -8 12q0 5 7 13l48 58q6 7 10 7t9 -4l161 -117l-27 -39z" />
    <glyph glyph-name="uacute" unicode="&#xfa;" horiz-adv-x="580" 
d="M76 0zM500 0h-59l-32 50q-80 -61 -197 -61q-71 0 -103.5 27.5t-32.5 86.5v397h123v-421h103q43 0 59 11t16 40v370h123v-500zM198 598l161 116q5 4 8 4q5 0 11 -6l47 -58q8 -8 8 -13q0 -6 -8 -13l-30 -24q-7 -7 -23 -11l-148 -35z" />
    <glyph glyph-name="ucircumflex" unicode="&#xfb;" horiz-adv-x="580" 
d="M76 0zM500 0h-59l-32 50q-80 -61 -197 -61q-71 0 -103.5 27.5t-32.5 86.5v397h123v-421h103q43 0 59 11t16 40v370h123v-500zM166 589l100 120q4 7 11 7h25q6 0 12 -7l99 -120l-38 -37l-85 66l-86 -66z" />
    <glyph glyph-name="udieresis" unicode="&#xfc;" horiz-adv-x="580" 
d="M76 0zM500 0h-59l-32 50q-80 -61 -197 -61q-71 0 -103.5 27.5t-32.5 86.5v397h123v-421h103q43 0 59 11t16 40v370h123v-500zM148 583q-12 13 -12 49t12 50t48 14q35 0 46.5 -14t11.5 -50t-11.5 -49t-46.5 -13q-36 0 -48 13zM337 583q-12 13 -12 49t12 50t48 14
q35 0 46.5 -14t11.5 -50t-11.5 -49t-46.5 -13q-36 0 -48 13z" />
    <glyph glyph-name="yacute" unicode="&#xfd;" horiz-adv-x="467" 
d="M5 0zM461 500l-135 -465q-23 -81 -51 -126.5t-68.5 -65t-102.5 -19.5q-56 0 -95 12l5 65l81 10q36 5 55.5 14.5t31 28t21.5 55.5l7 26h-70l-135 465h121l102 -360h10l102 360h121zM142 598l161 116q5 4 8 4q5 0 11 -6l47 -58q8 -8 8 -13q0 -6 -8 -13l-30 -24
q-7 -7 -23 -11l-148 -35z" />
    <glyph glyph-name="thorn" unicode="&#xfe;" horiz-adv-x="575" 
d="M449 488q40 -23 56.5 -78.5t16.5 -159.5q0 -105 -17 -161.5t-57 -80t-114 -23.5q-87 0 -130 22v-169l-123 -12v824l123 15v-176q43 22 130 22q75 0 115 -23zM392 414h-144q-25 0 -34.5 -5t-9.5 -17v-309h143q26 0 35.5 5t9.5 20v306z" />
    <glyph glyph-name="ydieresis" unicode="&#xff;" horiz-adv-x="467" 
d="M5 0zM461 500l-135 -465q-23 -81 -51 -126.5t-68.5 -65t-102.5 -19.5q-56 0 -95 12l5 65l81 10q36 5 55.5 14.5t31 28t21.5 55.5l7 26h-70l-135 465h121l102 -360h10l102 360h121zM92 583q-12 13 -12 49t12 50t48 14q35 0 46.5 -14t11.5 -50t-11.5 -49t-46.5 -13
q-36 0 -48 13zM281 583q-12 13 -12 49t12 50t48 14q35 0 46.5 -14t11.5 -50t-11.5 -49t-46.5 -13q-36 0 -48 13z" />
    <glyph glyph-name="Amacron" unicode="&#x100;" horiz-adv-x="572" 
d="M13 0zM399 131h-225l-38 -131h-123l179 625h188l179 -625h-123zM372 225l-81 285h-9l-82 -285h172zM166 717q-8 10 -8 40v41h210q21 0 31 -4.5t12.5 -14t2.5 -30.5v-42h-209q-31 0 -39 10z" />
    <glyph glyph-name="amacron" unicode="&#x101;" horiz-adv-x="550" 
d="M48 0zM429.5 477q44.5 -34 44.5 -114v-363h-59l-32 50q-71 -61 -177 -61q-84 0 -121 36t-37 118q0 70 21.5 103t80 45.5t182.5 12.5h19v103q-34 10 -90 10q-84 0 -175 -25l-16 88q41 14 97.5 22.5t111.5 8.5q106 0 150.5 -34zM334.5 90.5q16.5 11.5 16.5 42.5v98h-112
q-46 0 -62.5 -11.5t-16.5 -43.5v-97h113q45 0 61.5 11.5zM159 592q-8 10 -8 40v41h210q21 0 31 -4.5t12.5 -14t2.5 -30.5v-42h-209q-31 0 -39 10z" />
    <glyph glyph-name="Abreve" unicode="&#x102;" horiz-adv-x="572" 
d="M13 0zM399 131h-225l-38 -131h-123l179 625h188l179 -625h-123zM372 225l-81 285h-9l-82 -285h172zM205.5 716q-33.5 28 -45.5 87l72 12q6 -22 21 -34t33 -12q17 0 32 12t21 34l72 -12q-13 -56 -46.5 -85.5t-78.5 -29.5q-47 0 -80.5 28z" />
    <glyph glyph-name="abreve" unicode="&#x103;" horiz-adv-x="550" 
d="M48 0zM429.5 477q44.5 -34 44.5 -114v-363h-59l-32 50q-71 -61 -177 -61q-84 0 -121 36t-37 118q0 70 21.5 103t80 45.5t182.5 12.5h19v103q-34 10 -90 10q-84 0 -175 -25l-16 88q41 14 97.5 22.5t111.5 8.5q106 0 150.5 -34zM334.5 90.5q16.5 11.5 16.5 42.5v98h-112
q-46 0 -62.5 -11.5t-16.5 -43.5v-97h113q45 0 61.5 11.5zM198.5 591q-33.5 28 -45.5 87l72 12q6 -22 21 -34t33 -12q17 0 32 12t21 34l72 -12q-13 -56 -46.5 -85.5t-78.5 -29.5q-47 0 -80.5 28z" />
    <glyph glyph-name="Aogonek" unicode="&#x104;" horiz-adv-x="572" 
d="M581 -155q-43 -19 -82 -19q-43 0 -67.5 24.5t-24.5 66.5q0 25 14.5 46.5t40.5 36.5h-26l-37 131h-225l-38 -131h-123l179 625h188l179 -625h-2l-18 -4q-26 -5 -34 -14t-8 -30v-17q0 -34 30 -34h45zM372 225l-81 285h-9l-82 -285h172z" />
    <glyph glyph-name="aogonek" unicode="&#x105;" horiz-adv-x="550" 
d="M498 -155q-43 -19 -82 -19q-43 0 -67.5 24.5t-24.5 66.5q0 32 22 57t61 39l-24 37q-71 -61 -177 -61q-84 0 -121 36t-37 118q0 70 21.5 103t80 45.5t182.5 12.5h19v103q-34 10 -90 10q-84 0 -175 -25l-16 88q41 14 97.5 22.5t111.5 8.5q106 0 150.5 -34t44.5 -114v-363
l-18 -4q-26 -5 -34 -14t-8 -30v-17q0 -34 30 -34h45zM334.5 90.5q16.5 11.5 16.5 42.5v98h-112q-46 0 -62.5 -11.5t-16.5 -43.5v-97h113q45 0 61.5 11.5z" />
    <glyph glyph-name="Cacute" unicode="&#x106;" horiz-adv-x="494" 
d="M57 0zM393 -9q-41 -6 -97 -6q-97 0 -148 28.5t-71 98t-20 200.5q0 132 21.5 201.5t74.5 98t156 28.5q35 0 80.5 -6.5t70.5 -15.5l-16 -100q-33 8 -77 13.5t-72 5.5q-59 0 -82.5 -15t-23.5 -60v-361q52 -13 110 -13q80 0 160 25l11 -102q-36 -14 -77 -20zM195 723l161 116
q5 4 8 4q5 0 11 -6l47 -58q8 -8 8 -13q0 -6 -8 -13l-30 -24q-7 -7 -23 -11l-148 -35z" />
    <glyph glyph-name="cacute" unicode="&#x107;" horiz-adv-x="452" 
d="M53 0zM128 12.5q-41 23.5 -58 79t-17 158.5t17 159t58 79t116 23q41 0 87.5 -5.5t76.5 -13.5l-13 -90q-66 15 -130 15q-46 0 -64 -18.5t-18 -63.5v-242q31 -10 90 -10q32 0 62.5 5.5t71.5 19.5l12 -88q-74 -31 -175 -31q-75 0 -116 23.5zM155 598l161 116q5 4 8 4
q5 0 11 -6l47 -58q8 -8 8 -13q0 -6 -8 -13l-30 -24q-7 -7 -23 -11l-148 -35z" />
    <glyph glyph-name="Ccircumflex" unicode="&#x108;" horiz-adv-x="494" 
d="M57 0zM393 -9q-41 -6 -97 -6q-97 0 -148 28.5t-71 98t-20 200.5q0 132 21.5 201.5t74.5 98t156 28.5q35 0 80.5 -6.5t70.5 -15.5l-16 -100q-33 8 -77 13.5t-72 5.5q-59 0 -82.5 -15t-23.5 -60v-361q52 -13 110 -13q80 0 160 25l11 -102q-36 -14 -77 -20zM163 714l100 120
q4 7 11 7h25q6 0 12 -7l99 -120l-38 -37l-85 66l-86 -66z" />
    <glyph glyph-name="ccircumflex" unicode="&#x109;" horiz-adv-x="452" 
d="M53 0zM128 12.5q-41 23.5 -58 79t-17 158.5t17 159t58 79t116 23q41 0 87.5 -5.5t76.5 -13.5l-13 -90q-66 15 -130 15q-46 0 -64 -18.5t-18 -63.5v-242q31 -10 90 -10q32 0 62.5 5.5t71.5 19.5l12 -88q-74 -31 -175 -31q-75 0 -116 23.5zM123 589l100 120q4 7 11 7h25
q6 0 12 -7l99 -120l-38 -37l-85 66l-86 -66z" />
    <glyph glyph-name="Cdotaccent" unicode="&#x10a;" horiz-adv-x="494" 
d="M57 0zM393 -9q-41 -6 -97 -6q-97 0 -148 28.5t-71 98t-20 200.5q0 132 21.5 201.5t74.5 98t156 28.5q35 0 80.5 -6.5t70.5 -15.5l-16 -100q-33 8 -77 13.5t-72 5.5q-59 0 -82.5 -15t-23.5 -60v-361q52 -13 110 -13q80 0 160 25l11 -102q-36 -14 -77 -20zM231 716.5
q-15 14.5 -15 55.5q0 42 15.5 57t56.5 15t55.5 -15t14.5 -57q0 -41 -14 -55.5t-56 -14.5t-57 14.5z" />
    <glyph glyph-name="cdotaccent" unicode="&#x10b;" horiz-adv-x="452" 
d="M53 0zM128 12.5q-41 23.5 -58 79t-17 158.5t17 159t58 79t116 23q41 0 87.5 -5.5t76.5 -13.5l-13 -90q-66 15 -130 15q-46 0 -64 -18.5t-18 -63.5v-242q31 -10 90 -10q32 0 62.5 5.5t71.5 19.5l12 -88q-74 -31 -175 -31q-75 0 -116 23.5zM191 591.5q-15 14.5 -15 55.5
q0 42 15.5 57t56.5 15t55.5 -15t14.5 -57q0 -41 -14 -55.5t-56 -14.5t-57 14.5z" />
    <glyph glyph-name="Ccaron" unicode="&#x10c;" horiz-adv-x="494" 
d="M57 0zM393 -9q-41 -6 -97 -6q-97 0 -148 28.5t-71 98t-20 200.5q0 132 21.5 201.5t74.5 98t156 28.5q35 0 80.5 -6.5t70.5 -15.5l-16 -100q-33 8 -77 13.5t-72 5.5q-59 0 -82.5 -15t-23.5 -60v-361q52 -13 110 -13q80 0 160 25l11 -102q-36 -14 -77 -20zM287 775l85 66
l38 -37l-99 -121q-6 -6 -12 -6h-25q-7 0 -11 6l-100 121l38 37z" />
    <glyph glyph-name="ccaron" unicode="&#x10d;" horiz-adv-x="452" 
d="M53 0zM128 12.5q-41 23.5 -58 79t-17 158.5t17 159t58 79t116 23q41 0 87.5 -5.5t76.5 -13.5l-13 -90q-66 15 -130 15q-46 0 -64 -18.5t-18 -63.5v-242q31 -10 90 -10q32 0 62.5 5.5t71.5 19.5l12 -88q-74 -31 -175 -31q-75 0 -116 23.5zM247 650l85 66l38 -37l-99 -121
q-6 -6 -12 -6h-25q-7 0 -11 6l-100 121l38 37z" />
    <glyph glyph-name="Dcaron" unicode="&#x10e;" horiz-adv-x="631" 
d="M81 0zM318 625q108 0 161.5 -25t74 -90.5t20.5 -197.5t-20.5 -197t-74 -90t-161.5 -25h-237v625h237zM204 100h160q44 0 61 15t17 55v285q0 40 -17 55t-61 15h-160v-425zM316 775l85 66l38 -37l-99 -121q-6 -6 -12 -6h-25q-7 0 -11 6l-100 121l38 37z" />
    <glyph glyph-name="dcaron" unicode="&#x10f;" horiz-adv-x="680" 
d="M53 0zM494 674v-674h-58l-25 42q-22 -31 -60 -44t-102 -13q-79 0 -120.5 22.5t-58.5 78.5t-17 164q0 103 16.5 158.5t56 79t111.5 23.5q91 0 134 -23v174zM361.5 88q9.5 5 9.5 20v306h-144q-25 0 -34.5 -5.5t-9.5 -20.5v-305h143q26 0 35.5 5zM564 458l22 100
q-29 4 -41.5 18.5t-12.5 48.5q0 42 16.5 58.5t57.5 16.5q40 0 57 -16.5t17 -58.5q0 -31 -7 -52.5t-25 -60.5l-34 -69z" />
    <glyph glyph-name="Dcroat" unicode="&#x110;" horiz-adv-x="631" 
d="M22 0zM479.5 600q53.5 -25 74 -90.5t20.5 -197.5t-20.5 -197t-74 -90t-161.5 -25h-237v270h-59v40q0 27 9.5 36.5t35.5 9.5h14v269h237q108 0 161.5 -25zM442 455q0 40 -17 55t-61 15h-160v-169h99v-41q0 -27 -8.5 -36t-36.5 -9h-54v-170h160q44 0 61 15t17 55v285z" />
    <glyph glyph-name="dcroat" unicode="&#x111;" horiz-adv-x="575" 
d="M560 611v-22q0 -15 -7.5 -20t-32.5 -5h-26v-564h-58l-25 42q-22 -31 -60 -44t-102 -13q-79 0 -120.5 22.5t-58.5 78.5t-17 164q0 103 16.5 158.5t56 79t111.5 23.5q91 0 134 -23v76h-64v22q0 15 8.5 20t32.5 5h23v51l123 12v-63h66zM361.5 88q9.5 5 9.5 20v306h-144
q-25 0 -34.5 -5.5t-9.5 -20.5v-305h143q26 0 35.5 5z" />
    <glyph glyph-name="Emacron" unicode="&#x112;" horiz-adv-x="516" 
d="M81 0zM204 102h266v-102h-389v625h388l-15 -102h-250v-163h228v-95h-228v-163zM160 717q-8 10 -8 40v41h210q21 0 31 -4.5t12.5 -14t2.5 -30.5v-42h-209q-31 0 -39 10z" />
    <glyph glyph-name="emacron" unicode="&#x113;" horiz-adv-x="548" 
d="M53 0zM363 89q40 6 93 19l15 -88q-40 -15 -94.5 -23t-113.5 -8q-81 0 -126 24t-64.5 79.5t-19.5 157.5q0 99 21.5 155t69.5 81t132 25q83 0 127.5 -13.5t62.5 -46.5t18 -94q0 -70 -22.5 -103t-84.5 -45.5t-194 -12.5v-103q37 -10 99 -10q41 0 81 6zM200 403.5
q-17 -11.5 -17 -42.5v-92h110q46 0 63.5 11.5t17.5 43.5v91h-111q-46 0 -63 -11.5zM157 592q-8 10 -8 40v41h210q21 0 31 -4.5t12.5 -14t2.5 -30.5v-42h-209q-31 0 -39 10z" />
    <glyph glyph-name="Ebreve" unicode="&#x114;" horiz-adv-x="516" 
d="M81 0zM204 102h266v-102h-389v625h388l-15 -102h-250v-163h228v-95h-228v-163zM199.5 716q-33.5 28 -45.5 87l72 12q6 -22 21 -34t33 -12q17 0 32 12t21 34l72 -12q-13 -56 -46.5 -85.5t-78.5 -29.5q-47 0 -80.5 28z" />
    <glyph glyph-name="ebreve" unicode="&#x115;" horiz-adv-x="548" 
d="M53 0zM363 89q40 6 93 19l15 -88q-40 -15 -94.5 -23t-113.5 -8q-81 0 -126 24t-64.5 79.5t-19.5 157.5q0 99 21.5 155t69.5 81t132 25q83 0 127.5 -13.5t62.5 -46.5t18 -94q0 -70 -22.5 -103t-84.5 -45.5t-194 -12.5v-103q37 -10 99 -10q41 0 81 6zM200 403.5
q-17 -11.5 -17 -42.5v-92h110q46 0 63.5 11.5t17.5 43.5v91h-111q-46 0 -63 -11.5zM196.5 591q-33.5 28 -45.5 87l72 12q6 -22 21 -34t33 -12q17 0 32 12t21 34l72 -12q-13 -56 -46.5 -85.5t-78.5 -29.5q-47 0 -80.5 28z" />
    <glyph glyph-name="Edotaccent" unicode="&#x116;" horiz-adv-x="516" 
d="M81 0zM204 102h266v-102h-389v625h388l-15 -102h-250v-163h228v-95h-228v-163zM224 716.5q-15 14.5 -15 55.5q0 42 15.5 57t56.5 15t55.5 -15t14.5 -57q0 -41 -14 -55.5t-56 -14.5t-57 14.5z" />
    <glyph glyph-name="edotaccent" unicode="&#x117;" horiz-adv-x="548" 
d="M53 0zM363 89q40 6 93 19l15 -88q-40 -15 -94.5 -23t-113.5 -8q-81 0 -126 24t-64.5 79.5t-19.5 157.5q0 99 21.5 155t69.5 81t132 25q83 0 127.5 -13.5t62.5 -46.5t18 -94q0 -70 -22.5 -103t-84.5 -45.5t-194 -12.5v-103q37 -10 99 -10q41 0 81 6zM200 403.5
q-17 -11.5 -17 -42.5v-92h110q46 0 63.5 11.5t17.5 43.5v91h-111q-46 0 -63 -11.5zM221 591.5q-15 14.5 -15 55.5q0 42 15.5 57t56.5 15t55.5 -15t14.5 -57q0 -41 -14 -55.5t-56 -14.5t-57 14.5z" />
    <glyph glyph-name="Eogonek" unicode="&#x118;" horiz-adv-x="516" 
d="M494 -155q-43 -19 -82 -19q-43 0 -67.5 24.5t-24.5 66.5q0 25 14.5 46.5t40.5 36.5h-294v625h388l-15 -102h-250v-163h228v-95h-228v-163h266v-102l-18 -4q-26 -5 -34 -14t-8 -30v-17q0 -34 30 -34h45z" />
    <glyph glyph-name="eogonek" unicode="&#x119;" horiz-adv-x="548" 
d="M496 -135q-43 -19 -82 -19q-43 0 -67.5 24.5t-24.5 66.5q0 30 21 56q-35 -4 -80 -4q-81 0 -126 24t-64.5 79.5t-19.5 157.5q0 99 21.5 155t69.5 81t132 25q83 0 127.5 -13.5t62.5 -46.5t18 -94q0 -70 -22.5 -103t-84.5 -45.5t-194 -12.5v-103q37 -10 99 -10q41 0 81 6
t93 19l14 -83l2 -5l-3 -1q-35 -11 -44 -13q-7 -4 -10 -12t-3 -22v-17q0 -34 30 -34h45zM200 403.5q-17 -11.5 -17 -42.5v-92h110q46 0 63.5 11.5t17.5 43.5v91h-111q-46 0 -63 -11.5z" />
    <glyph glyph-name="Ecaron" unicode="&#x11a;" horiz-adv-x="516" 
d="M81 0zM204 102h266v-102h-389v625h388l-15 -102h-250v-163h228v-95h-228v-163zM280 775l85 66l38 -37l-99 -121q-6 -6 -12 -6h-25q-7 0 -11 6l-100 121l38 37z" />
    <glyph glyph-name="ecaron" unicode="&#x11b;" horiz-adv-x="548" 
d="M53 0zM363 89q40 6 93 19l15 -88q-40 -15 -94.5 -23t-113.5 -8q-81 0 -126 24t-64.5 79.5t-19.5 157.5q0 99 21.5 155t69.5 81t132 25q83 0 127.5 -13.5t62.5 -46.5t18 -94q0 -70 -22.5 -103t-84.5 -45.5t-194 -12.5v-103q37 -10 99 -10q41 0 81 6zM200 403.5
q-17 -11.5 -17 -42.5v-92h110q46 0 63.5 11.5t17.5 43.5v91h-111q-46 0 -63 -11.5zM277 650l85 66l38 -37l-99 -121q-6 -6 -12 -6h-25q-7 0 -11 6l-100 121l38 37z" />
    <glyph glyph-name="Gcircumflex" unicode="&#x11c;" horiz-adv-x="571" 
d="M57 0zM515 351v-329q-49 -20 -103.5 -28.5t-129.5 -8.5q-94 0 -141 26t-65.5 94.5t-18.5 206.5q0 133 21.5 202.5t75.5 97.5t159 28q42 0 94.5 -6.5t82.5 -15.5l-16 -100q-39 8 -91 13.5t-86 5.5q-61 0 -85 -15t-24 -60v-378h215v173h-85v94h197zM189 714l100 120
q4 7 11 7h25q6 0 12 -7l99 -120l-38 -37l-85 66l-86 -66z" />
    <glyph glyph-name="gcircumflex" unicode="&#x11d;" horiz-adv-x="516" 
d="M40 0zM391 62.5q39 -12.5 54 -34t15 -63.5q0 -49 -20.5 -77.5t-65 -41.5t-120.5 -13q-56 0 -109.5 8t-95.5 23l16 90q51 -13 89 -19t77 -6q69 0 119 10v65q-100 7 -142.5 17t-42.5 28l28 98q-84 9 -118.5 51t-34.5 132q0 69 20 109t64.5 58t121.5 18q72 0 114 -14l74 57
l61 -59l-57 -68q16 -39 16 -101q0 -65 -17.5 -104t-56 -58t-105.5 -22l-5 -61q82 -10 121 -22.5zM160 220h110q36 0 50 12t14 43v166h-110q-36 0 -50 -12t-14 -43v-166zM134 589l100 120q4 7 11 7h25q6 0 12 -7l99 -120l-38 -37l-85 66l-86 -66z" />
    <glyph glyph-name="Gbreve" unicode="&#x11e;" horiz-adv-x="571" 
d="M57 0zM515 351v-329q-49 -20 -103.5 -28.5t-129.5 -8.5q-94 0 -141 26t-65.5 94.5t-18.5 206.5q0 133 21.5 202.5t75.5 97.5t159 28q42 0 94.5 -6.5t82.5 -15.5l-16 -100q-39 8 -91 13.5t-86 5.5q-61 0 -85 -15t-24 -60v-378h215v173h-85v94h197zM232.5 716
q-33.5 28 -45.5 87l72 12q6 -22 21 -34t33 -12q17 0 32 12t21 34l72 -12q-13 -56 -46.5 -85.5t-78.5 -29.5q-47 0 -80.5 28z" />
    <glyph glyph-name="gbreve" unicode="&#x11f;" horiz-adv-x="516" 
d="M40 0zM391 62.5q39 -12.5 54 -34t15 -63.5q0 -49 -20.5 -77.5t-65 -41.5t-120.5 -13q-56 0 -109.5 8t-95.5 23l16 90q51 -13 89 -19t77 -6q69 0 119 10v65q-100 7 -142.5 17t-42.5 28l28 98q-84 9 -118.5 51t-34.5 132q0 69 20 109t64.5 58t121.5 18q72 0 114 -14l74 57
l61 -59l-57 -68q16 -39 16 -101q0 -65 -17.5 -104t-56 -58t-105.5 -22l-5 -61q82 -10 121 -22.5zM160 220h110q36 0 50 12t14 43v166h-110q-36 0 -50 -12t-14 -43v-166zM177.5 591q-33.5 28 -45.5 87l72 12q6 -22 21 -34t33 -12q17 0 32 12t21 34l72 -12
q-13 -56 -46.5 -85.5t-78.5 -29.5q-47 0 -80.5 28z" />
    <glyph glyph-name="Gdotaccent" unicode="&#x120;" horiz-adv-x="571" 
d="M57 0zM515 351v-329q-49 -20 -103.5 -28.5t-129.5 -8.5q-94 0 -141 26t-65.5 94.5t-18.5 206.5q0 133 21.5 202.5t75.5 97.5t159 28q42 0 94.5 -6.5t82.5 -15.5l-16 -100q-39 8 -91 13.5t-86 5.5q-61 0 -85 -15t-24 -60v-378h215v173h-85v94h197zM257 716.5
q-15 14.5 -15 55.5q0 42 15.5 57t56.5 15t55.5 -15t14.5 -57q0 -41 -14 -55.5t-56 -14.5t-57 14.5z" />
    <glyph glyph-name="gdotaccent" unicode="&#x121;" horiz-adv-x="516" 
d="M40 0zM391 62.5q39 -12.5 54 -34t15 -63.5q0 -49 -20.5 -77.5t-65 -41.5t-120.5 -13q-56 0 -109.5 8t-95.5 23l16 90q51 -13 89 -19t77 -6q69 0 119 10v65q-100 7 -142.5 17t-42.5 28l28 98q-84 9 -118.5 51t-34.5 132q0 69 20 109t64.5 58t121.5 18q72 0 114 -14l74 57
l61 -59l-57 -68q16 -39 16 -101q0 -65 -17.5 -104t-56 -58t-105.5 -22l-5 -61q82 -10 121 -22.5zM160 220h110q36 0 50 12t14 43v166h-110q-36 0 -50 -12t-14 -43v-166zM202 591.5q-15 14.5 -15 55.5q0 42 15.5 57t56.5 15t55.5 -15t14.5 -57q0 -41 -14 -55.5t-56 -14.5
t-57 14.5z" />
    <glyph glyph-name="Gcommaaccent" unicode="&#x122;" horiz-adv-x="571" 
d="M57 0zM515 351v-329q-49 -20 -103.5 -28.5t-129.5 -8.5q-94 0 -141 26t-65.5 94.5t-18.5 206.5q0 133 21.5 202.5t75.5 97.5t159 28q42 0 94.5 -6.5t82.5 -15.5l-16 -100q-39 8 -91 13.5t-86 5.5q-61 0 -85 -15t-24 -60v-378h215v173h-85v94h197zM251 -282l22 100
q-29 4 -41.5 18.5t-12.5 48.5q0 42 16.5 58.5t57.5 16.5q40 0 57 -16.5t17 -58.5q0 -31 -7 -52.5t-25 -60.5l-34 -69z" />
    <glyph glyph-name="gcommaaccent" unicode="&#x123;" horiz-adv-x="516" 
d="M40 0zM391 62.5q39 -12.5 54 -34t15 -63.5q0 -49 -20.5 -77.5t-65 -41.5t-120.5 -13q-56 0 -109.5 8t-95.5 23l16 90q51 -13 89 -19t77 -6q69 0 119 10v65q-100 7 -142.5 17t-42.5 28l28 98q-84 9 -118.5 51t-34.5 132q0 69 20 109t64.5 58t121.5 18q72 0 114 -14l74 57
l61 -59l-57 -68q16 -39 16 -101q0 -65 -17.5 -104t-56 -58t-105.5 -22l-5 -61q82 -10 121 -22.5zM160 220h110q36 0 50 12t14 43v166h-110q-36 0 -50 -12t-14 -43v-166zM300 805l-22 -100q29 -3 41 -17.5t12 -48.5q0 -42 -16.5 -59t-56.5 -17q-41 0 -57.5 17t-16.5 59
q0 30 7 52.5t25 59.5l34 69z" />
    <glyph glyph-name="Hcircumflex" unicode="&#x124;" horiz-adv-x="642" 
d="M81 0zM561 625v-625h-123v263h-234v-263h-123v625h123v-268h234v268h123zM197 714l100 120q4 7 11 7h25q6 0 12 -7l99 -120l-38 -37l-85 66l-86 -66z" />
    <glyph glyph-name="hcircumflex" unicode="&#x125;" horiz-adv-x="580" 
d="M18 0zM81 655l121 10v-195q31 21 69.5 31t89.5 10q70 0 107 -23.5t37 -68.5v-419h-123v410h-97q-47 0 -64 -11.5t-17 -42.5v-356h-123v655zM18 719l100 120q4 7 11 7h25q6 0 12 -7l99 -120l-38 -37l-85 66l-86 -66z" />
    <glyph glyph-name="Hbar" unicode="&#x126;" horiz-adv-x="642" 
d="M624 529v-38q0 -27 -9 -36t-36 -9h-18v-446h-123v263h-234v-263h-123v446h-63v38q0 27 9.5 36t35.5 9h18v96h123v-96h234v96h123v-96h63zM438 446h-234v-89h234v89z" />
    <glyph glyph-name="hbar" unicode="&#x127;" horiz-adv-x="580" 
d="M468 487.5q37 -23.5 37 -68.5v-419h-123v410h-97q-47 0 -64 -11.5t-17 -42.5v-356h-123v550h-65v22q0 15 8.5 20t32.5 5h24v58l121 10v-68h67v-22q0 -15 -7.5 -20t-32.5 -5h-27v-80q31 21 69.5 31t89.5 10q70 0 107 -23.5z" />
    <glyph glyph-name="Itilde" unicode="&#x128;" horiz-adv-x="285" 
d="M0 0zM204 625v-625h-123v625h123zM131.5 692.5q-13.5 8.5 -41.5 35.5l-70 -35l-31 52q65 47 91 62t43 15q15 0 27.5 -7.5t42.5 -35.5l70 34l31 -51q-61 -46 -88.5 -62t-44.5 -16q-16 0 -29.5 8.5z" />
    <glyph glyph-name="itilde" unicode="&#x129;" horiz-adv-x="285" 
d="M0 0zM204 506v-506h-123v489zM131.5 567.5q-13.5 8.5 -41.5 35.5l-70 -35l-31 52q65 47 91 62t43 15q15 0 27.5 -7.5t42.5 -35.5l70 34l31 -51q-61 -46 -88.5 -62t-44.5 -16q-16 0 -29.5 8.5z" />
    <glyph glyph-name="Imacron" unicode="&#x12a;" horiz-adv-x="285" 
d="M14 0zM204 625v-625h-123v625h123zM22 717q-8 10 -8 40v41h210q21 0 31 -4.5t12.5 -14t2.5 -30.5v-42h-209q-31 0 -39 10z" />
    <glyph glyph-name="imacron" unicode="&#x12b;" horiz-adv-x="285" 
d="M14 0zM204 506v-506h-123v489zM22 592q-8 10 -8 40v41h210q21 0 31 -4.5t12.5 -14t2.5 -30.5v-42h-209q-31 0 -39 10z" />
    <glyph glyph-name="Ibreve" unicode="&#x12c;" horiz-adv-x="285" 
d="M16 0zM204 625v-625h-123v625h123zM61.5 716q-33.5 28 -45.5 87l72 12q6 -22 21 -34t33 -12q17 0 32 12t21 34l72 -12q-13 -56 -46.5 -85.5t-78.5 -29.5q-47 0 -80.5 28z" />
    <glyph glyph-name="ibreve" unicode="&#x12d;" horiz-adv-x="285" 
d="M16 0zM204 506v-506h-123v489zM61.5 591q-33.5 28 -45.5 87l72 12q6 -22 21 -34t33 -12q17 0 32 12t21 34l72 -12q-13 -56 -46.5 -85.5t-78.5 -29.5q-47 0 -80.5 28z" />
    <glyph glyph-name="Iogonek" unicode="&#x12e;" horiz-adv-x="285" 
d="M228 -155q-43 -19 -82 -19q-43 0 -67.5 24.5t-24.5 66.5q0 25 14.5 46.5t40.5 36.5h-28v625h123v-625l-18 -4q-26 -5 -34 -14t-8 -30v-17q0 -34 30 -34h45z" />
    <glyph glyph-name="iogonek" unicode="&#x12f;" horiz-adv-x="285" 
d="M86 591.5q-15 14.5 -15 55.5q0 42 15.5 57t56.5 15t55.5 -15t14.5 -57q0 -41 -14 -55.5t-56 -14.5t-57 14.5zM228 -155q-43 -19 -82 -19q-43 0 -67.5 24.5t-24.5 66.5q0 25 14.5 46.5t40.5 36.5h-28v489l123 17v-506l-18 -4q-26 -5 -34 -14t-8 -30v-17q0 -34 30 -34h45z
" />
    <glyph glyph-name="Idotaccent" unicode="&#x130;" horiz-adv-x="285" 
d="M71 0zM204 625v-625h-123v625h123zM86 716.5q-15 14.5 -15 55.5q0 42 15.5 57t56.5 15t55.5 -15t14.5 -57q0 -41 -14 -55.5t-56 -14.5t-57 14.5z" />
    <glyph glyph-name="dotlessi" unicode="&#x131;" horiz-adv-x="285" 
d="M204 506v-506h-123v489z" />
    <glyph glyph-name="IJ" unicode="&#x132;" horiz-adv-x="645" 
d="M81 0zM204 625v-625h-123v625h123zM394 100q24 0 36 5.5t12 24.5v393h-100v102h223v-483q0 -78 -38 -110t-117 -32h-93l-14 100h91z" />
    <glyph glyph-name="ij" unicode="&#x133;" horiz-adv-x="570" 
d="M71 0zM204 506v-506h-123v489zM86 591.5q-15 14.5 -15 55.5q0 42 15.5 57t56.5 15t55.5 -15t14.5 -57q0 -41 -14 -55.5t-56 -14.5t-57 14.5zM266 -164l6 73q40 0 59.5 5t27 18t7.5 39v518l123 17v-555q0 -65 -32.5 -96t-101.5 -31q-53 0 -89 12zM371 591.5
q-15 14.5 -15 55.5q0 42 15.5 57t56.5 15t55.5 -15t14.5 -57q0 -41 -14 -55.5t-56 -14.5t-57 14.5z" />
    <glyph glyph-name="Jcircumflex" unicode="&#x134;" horiz-adv-x="360" 
d="M18 0zM109 100q24 0 36 5.5t12 24.5v393h-100v102h223v-483q0 -78 -38 -110t-117 -32h-93l-14 100h91zM57 714l100 120q4 7 11 7h25q6 0 12 -7l99 -120l-38 -37l-85 66l-86 -66z" />
    <glyph glyph-name="jcircumflex" unicode="&#x135;" horiz-adv-x="285" 
d="M0 0zM-19 -164l6 73q40 0 59.5 5t27 18t7.5 39v518l123 17v-555q0 -65 -32.5 -96t-101.5 -31q-53 0 -89 12zM18 589l100 120q4 7 11 7h25q6 0 12 -7l99 -120l-38 -37l-85 66l-86 -66z" />
    <glyph glyph-name="Kcommaaccent" unicode="&#x136;" horiz-adv-x="568" 
d="M81 0zM559 0h-134l-74 158q-18 35 -27.5 62.5t-9.5 53.5h-110v-274h-123v625h123v-257h110q0 46 37 116l69 141h134l-149 -304zM260 -282l22 100q-29 4 -41.5 18.5t-12.5 48.5q0 42 16.5 58.5t57.5 16.5q40 0 57 -16.5t17 -58.5q0 -31 -7 -52.5t-25 -60.5l-34 -69z" />
    <glyph glyph-name="kcommaaccent" unicode="&#x137;" horiz-adv-x="513" 
d="M81 0zM204 226v-226h-123v650l123 15v-357h68l98 192h130l-125 -234l130 -266h-128l-104 226h-69zM231 -282l22 100q-29 4 -41.5 18.5t-12.5 48.5q0 42 16.5 58.5t57.5 16.5q40 0 57 -16.5t17 -58.5q0 -31 -7 -52.5t-25 -60.5l-34 -69z" />
    <glyph glyph-name="kgreenlandic" unicode="&#x138;" horiz-adv-x="526" 
d="M204 210v-210h-123v500h123v-208h81l98 208h129l-125 -250l130 -250h-127l-105 210h-81z" />
    <glyph glyph-name="Lacute" unicode="&#x139;" horiz-adv-x="433" 
d="M50 0zM81 625h123v-523h221v-102h-344v625zM50 723l161 116q5 4 8 4q5 0 11 -6l47 -58q8 -8 8 -13q0 -6 -8 -13l-30 -24q-7 -7 -23 -11l-148 -35z" />
    <glyph glyph-name="lacute" unicode="&#x13a;" horiz-adv-x="280" 
d="M46 0zM247 84l-7 -83q-45 -12 -76 -12q-44 0 -65.5 20t-21.5 63v578l123 15v-575q20 -4 47 -6zM46 728l161 116q5 4 8 4q5 0 11 -6l47 -58q8 -8 8 -13q0 -6 -8 -13l-30 -24q-7 -7 -23 -11l-148 -35z" />
    <glyph glyph-name="Lcommaaccent" unicode="&#x13b;" horiz-adv-x="433" 
d="M81 0zM81 625h123v-523h221v-102h-344v625zM210 -282l22 100q-29 4 -41.5 18.5t-12.5 48.5q0 42 16.5 58.5t57.5 16.5q40 0 57 -16.5t17 -58.5q0 -31 -7 -52.5t-25 -60.5l-34 -69z" />
    <glyph glyph-name="lcommaaccent" unicode="&#x13c;" horiz-adv-x="280" 
d="M64 0zM247 84l-7 -83q-45 -12 -76 -12q-44 0 -65.5 20t-21.5 63v578l123 15v-575q20 -4 47 -6zM96 -282l22 100q-29 4 -41.5 18.5t-12.5 48.5q0 42 16.5 58.5t57.5 16.5q40 0 57 -16.5t17 -58.5q0 -31 -7 -52.5t-25 -60.5l-34 -69z" />
    <glyph glyph-name="Lcaron" unicode="&#x13d;" horiz-adv-x="433" 
d="M81 0zM81 625h123v-523h221v-102h-344v625zM210 -282l22 100q-29 4 -41.5 18.5t-12.5 48.5q0 42 16.5 58.5t57.5 16.5q40 0 57 -16.5t17 -58.5q0 -31 -7 -52.5t-25 -60.5l-34 -69z" />
    <glyph glyph-name="lcaron" unicode="&#x13e;" horiz-adv-x="357" 
d="M77 0zM247 84l-7 -83q-45 -12 -76 -12q-44 0 -65.5 20t-21.5 63v578l123 15v-575q20 -4 47 -6zM266 458l22 100q-29 4 -41.5 18.5t-12.5 48.5q0 42 16.5 58.5t57.5 16.5q40 0 57 -16.5t17 -58.5q0 -31 -7 -52.5t-25 -60.5l-34 -69z" />
    <glyph glyph-name="Ldot" unicode="&#x13f;" horiz-adv-x="433" 
d="M81 625h123v-523h221v-102h-344v625zM297 386q12 14 48 14q35 0 47.5 -14t12.5 -48q0 -35 -12 -48t-48 -13t-48 13t-12 48q0 34 12 48z" />
    <glyph glyph-name="ldot" unicode="&#x140;" horiz-adv-x="379" 
d="M77 0zM247 84l-7 -83q-45 -12 -76 -12q-44 0 -65.5 20t-21.5 63v578l123 15v-575q20 -4 47 -6zM261 397q15 17 60 17q44 0 59.5 -17.5t15.5 -59.5q0 -43 -15.5 -60t-59.5 -17q-45 0 -60 16.5t-15 60.5q0 43 15 60z" />
    <glyph glyph-name="Lslash" unicode="&#x141;" horiz-adv-x="433" 
d="M425 102v-102h-344v276l-58 -19l-10 30q-7 20 -7 33q0 17 19 23l56 19v263h123v-223l56 19l11 -30q6 -19 6 -32q0 -17 -19 -24l-54 -18v-215h221z" />
    <glyph glyph-name="lslash" unicode="&#x142;" horiz-adv-x="280" 
d="M273 350q0 -17 -19 -24l-54 -18v-218q20 -4 47 -6l-7 -83q-45 -12 -76 -12q-44 0 -65.5 20t-21.5 63v195l-58 -19l-10 30q-7 20 -7 33q0 17 19 23l56 19v297l123 15v-272l56 19l11 -30q6 -19 6 -32z" />
    <glyph glyph-name="Nacute" unicode="&#x143;" horiz-adv-x="664" 
d="M86 0zM86 625h120l218 -351q15 -25 20 -37t6 -27h6v415h123v-625h-121l-217 351q-15 24 -19.5 36t-6.5 28h-6v-415h-123v625zM248 723l161 116q5 4 8 4q5 0 11 -6l47 -58q8 -8 8 -13q0 -6 -8 -13l-30 -24q-7 -7 -23 -11l-148 -35z" />
    <glyph glyph-name="nacute" unicode="&#x144;" horiz-adv-x="580" 
d="M81 0zM81 500h58l33 -50q39 31 85.5 46t103.5 15q70 0 107 -23.5t37 -68.5v-419h-123v410h-104q-43 0 -58.5 -11t-15.5 -40v-359h-123v500zM208 598l161 116q5 4 8 4q5 0 11 -6l47 -58q8 -8 8 -13q0 -6 -8 -13l-30 -24q-7 -7 -23 -11l-148 -35z" />
    <glyph glyph-name="Ncommaaccent" unicode="&#x145;" horiz-adv-x="664" 
d="M86 0zM86 625h120l218 -351q15 -25 20 -37t6 -27h6v415h123v-625h-121l-217 351q-15 24 -19.5 36t-6.5 28h-6v-415h-123v625zM291 -282l22 100q-29 4 -41.5 18.5t-12.5 48.5q0 42 16.5 58.5t57.5 16.5q40 0 57 -16.5t17 -58.5q0 -31 -7 -52.5t-25 -60.5l-34 -69z" />
    <glyph glyph-name="ncommaaccent" unicode="&#x146;" horiz-adv-x="580" 
d="M81 0zM81 500h58l33 -50q39 31 85.5 46t103.5 15q70 0 107 -23.5t37 -68.5v-419h-123v410h-104q-43 0 -58.5 -11t-15.5 -40v-359h-123v500zM248 -282l22 100q-29 4 -41.5 18.5t-12.5 48.5q0 42 16.5 58.5t57.5 16.5q40 0 57 -16.5t17 -58.5q0 -31 -7 -52.5t-25 -60.5
l-34 -69z" />
    <glyph glyph-name="Ncaron" unicode="&#x147;" horiz-adv-x="664" 
d="M86 0zM86 625h120l218 -351q15 -25 20 -37t6 -27h6v415h123v-625h-121l-217 351q-15 24 -19.5 36t-6.5 28h-6v-415h-123v625zM340 775l85 66l38 -37l-99 -121q-6 -6 -12 -6h-25q-7 0 -11 6l-100 121l38 37z" />
    <glyph glyph-name="ncaron" unicode="&#x148;" horiz-adv-x="580" 
d="M81 0zM81 500h58l33 -50q39 31 85.5 46t103.5 15q70 0 107 -23.5t37 -68.5v-419h-123v410h-104q-43 0 -58.5 -11t-15.5 -40v-359h-123v500zM300 650l85 66l38 -37l-99 -121q-6 -6 -12 -6h-25q-7 0 -11 6l-100 121l38 37z" />
    <glyph glyph-name="Eng" unicode="&#x14a;" horiz-adv-x="664" 
d="M579 0h-3v-49q0 -65 -32.5 -96t-101.5 -31q-53 0 -89 12l6 73q40 0 59.5 5t27 18t7.5 39v37l-212 343q-15 24 -19.5 36t-6.5 28h-6v-415h-123v625h120l218 -351q15 -25 20 -37t6 -27h3v279h3v136h123v-625z" />
    <glyph glyph-name="eng" unicode="&#x14b;" horiz-adv-x="580" 
d="M468 487.5q37 -23.5 37 -68.5v-468q0 -65 -33 -96t-102 -31q-48 0 -89 12l7 60q41 1 60 5.5t26.5 17.5t7.5 39v452h-104q-43 0 -58.5 -11t-15.5 -40v-359h-123v500h58l33 -50q39 31 85.5 46t103.5 15q70 0 107 -23.5z" />
    <glyph glyph-name="Omacron" unicode="&#x14c;" horiz-adv-x="642" 
d="M57 0zM78.5 517.5q21.5 68.5 77 95.5t165.5 27t165 -27t77 -95.5t22 -205.5q0 -136 -22 -204.5t-77 -95.5t-165 -27t-165.5 27t-77 95t-21.5 205t21.5 205.5zM369 90q47 0 65.5 15t18.5 53v377h-181q-47 0 -65 -15t-18 -53v-377h180zM201 717q-8 10 -8 40v41h210
q21 0 31 -4.5t12.5 -14t2.5 -30.5v-42h-209q-31 0 -39 10z" />
    <glyph glyph-name="omacron" unicode="&#x14d;" horiz-adv-x="562" 
d="M53 0zM142.5 12q-48.5 23 -69 78.5t-20.5 159.5t20.5 159.5t69 78.5t138.5 23q91 0 139.5 -23t68.5 -78.5t20 -159.5t-20.5 -159.5t-69 -78.5t-138.5 -23t-138.5 23zM334 86q27 0 36.5 5.5t9.5 20.5v302h-151q-27 0 -36.5 -5.5t-9.5 -20.5v-302h151zM161 592q-8 10 -8 40
v41h210q21 0 31 -4.5t12.5 -14t2.5 -30.5v-42h-209q-31 0 -39 10z" />
    <glyph glyph-name="Obreve" unicode="&#x14e;" horiz-adv-x="642" 
d="M57 0zM78.5 517.5q21.5 68.5 77 95.5t165.5 27t165 -27t77 -95.5t22 -205.5q0 -136 -22 -204.5t-77 -95.5t-165 -27t-165.5 27t-77 95t-21.5 205t21.5 205.5zM369 90q47 0 65.5 15t18.5 53v377h-181q-47 0 -65 -15t-18 -53v-377h180zM240.5 716q-33.5 28 -45.5 87l72 12
q6 -22 21 -34t33 -12q17 0 32 12t21 34l72 -12q-13 -56 -46.5 -85.5t-78.5 -29.5q-47 0 -80.5 28z" />
    <glyph glyph-name="obreve" unicode="&#x14f;" horiz-adv-x="562" 
d="M53 0zM142.5 12q-48.5 23 -69 78.5t-20.5 159.5t20.5 159.5t69 78.5t138.5 23q91 0 139.5 -23t68.5 -78.5t20 -159.5t-20.5 -159.5t-69 -78.5t-138.5 -23t-138.5 23zM334 86q27 0 36.5 5.5t9.5 20.5v302h-151q-27 0 -36.5 -5.5t-9.5 -20.5v-302h151zM200.5 591
q-33.5 28 -45.5 87l72 12q6 -22 21 -34t33 -12q17 0 32 12t21 34l72 -12q-13 -56 -46.5 -85.5t-78.5 -29.5q-47 0 -80.5 28z" />
    <glyph glyph-name="Ohungarumlaut" unicode="&#x150;" horiz-adv-x="642" 
d="M57 0zM78.5 517.5q21.5 68.5 77 95.5t165.5 27t165 -27t77 -95.5t22 -205.5q0 -136 -22 -204.5t-77 -95.5t-165 -27t-165.5 27t-77 95t-21.5 205t21.5 205.5zM369 90q47 0 65.5 15t18.5 53v377h-181q-47 0 -65 -15t-18 -53v-377h180zM120 725l135 113q3 3 9 6q5 0 11 -7
l48 -59q6 -6 6 -12q0 -5 -5 -10l-32 -28q-10 -8 -25 -12l-121 -31zM350 725l135 113q3 3 9 6q5 0 11 -7l48 -59q6 -6 6 -12q0 -5 -5 -10l-32 -28q-10 -8 -25 -12l-121 -31z" />
    <glyph glyph-name="ohungarumlaut" unicode="&#x151;" horiz-adv-x="562" 
d="M53 0zM142.5 12q-48.5 23 -69 78.5t-20.5 159.5t20.5 159.5t69 78.5t138.5 23q91 0 139.5 -23t68.5 -78.5t20 -159.5t-20.5 -159.5t-69 -78.5t-138.5 -23t-138.5 23zM334 86q27 0 36.5 5.5t9.5 20.5v302h-151q-27 0 -36.5 -5.5t-9.5 -20.5v-302h151zM80 600l135 113
q3 3 9 6q5 0 11 -7l48 -59q6 -6 6 -12q0 -5 -5 -10l-32 -28q-10 -8 -25 -12l-121 -31zM310 600l135 113q3 3 9 6q5 0 11 -7l48 -59q6 -6 6 -12q0 -5 -5 -10l-32 -28q-10 -8 -25 -12l-121 -31z" />
    <glyph glyph-name="OE" unicode="&#x152;" horiz-adv-x="888" 
d="M842 102v-102h-521q-110 0 -165.5 25.5t-77 90.5t-21.5 196t21.5 196.5t77 91t165.5 25.5h520l-15 -102h-250v-163h228v-95h-228v-163h266zM453 523h-181q-47 0 -65 -15t-18 -53v-353h180q47 0 65.5 15t18.5 53v353z" />
    <glyph glyph-name="oe" unicode="&#x153;" horiz-adv-x="873" 
d="M688 89q41 6 93 19l15 -88q-42 -15 -96.5 -23t-111.5 -8q-52 0 -87 10.5t-58 34.5q-25 -24 -64 -34.5t-98 -10.5q-90 0 -138.5 23t-69 78.5t-20.5 159.5t20.5 159.5t69 78.5t138.5 23q61 0 101 -11t64 -36q47 47 155 47q83 0 127.5 -13.5t62.5 -46.5t18 -94
q0 -70 -22.5 -103t-84.5 -45.5t-194 -12.5v-103q40 -10 98 -10q41 0 82 6zM525 403.5q-17 -11.5 -17 -42.5v-92h110q46 0 63 11.5t17 43.5v91h-110q-46 0 -63 -11.5zM380 414h-151q-27 0 -36.5 -5.5t-9.5 -20.5v-302h151q27 0 36.5 5.5t9.5 20.5v302z" />
    <glyph glyph-name="Racute" unicode="&#x154;" horiz-adv-x="590" 
d="M81 0zM425 0l-100 212h-121v-212h-123v625h259q71 0 112 -21t59.5 -67.5t18.5 -127.5q0 -73 -20 -117.5t-62 -63.5l110 -228h-133zM204 306h135q35 0 48.5 9t13.5 33v133q0 24 -13.5 33t-48.5 9h-135v-217zM211 723l161 116q5 4 8 4q5 0 11 -6l47 -58q8 -8 8 -13
q0 -6 -8 -13l-30 -24q-7 -7 -23 -11l-148 -35z" />
    <glyph glyph-name="racute" unicode="&#x155;" horiz-adv-x="342" 
d="M81 0zM180 424q41 38 74 59.5t65 31.5l11 -120q-31 -9 -67.5 -25.5t-58.5 -33.5v-336h-123v500h59zM105 598l161 116q5 4 8 4q5 0 11 -6l47 -58q8 -8 8 -13q0 -6 -8 -13l-30 -24q-7 -7 -23 -11l-148 -35z" />
    <glyph glyph-name="Rcommaaccent" unicode="&#x156;" horiz-adv-x="590" 
d="M81 0zM425 0l-100 212h-121v-212h-123v625h259q71 0 112 -21t59.5 -67.5t18.5 -127.5q0 -73 -20 -117.5t-62 -63.5l110 -228h-133zM204 306h135q35 0 48.5 9t13.5 33v133q0 24 -13.5 33t-48.5 9h-135v-217zM253 -282l22 100q-29 4 -41.5 18.5t-12.5 48.5q0 42 16.5 58.5
t57.5 16.5q40 0 57 -16.5t17 -58.5q0 -31 -7 -52.5t-25 -60.5l-34 -69z" />
    <glyph glyph-name="rcommaaccent" unicode="&#x157;" horiz-adv-x="342" 
d="M68 0zM180 424q41 38 74 59.5t65 31.5l11 -120q-31 -9 -67.5 -25.5t-58.5 -33.5v-336h-123v500h59zM100 -282l22 100q-29 4 -41.5 18.5t-12.5 48.5q0 42 16.5 58.5t57.5 16.5q40 0 57 -16.5t17 -58.5q0 -31 -7 -52.5t-25 -60.5l-34 -69z" />
    <glyph glyph-name="Rcaron" unicode="&#x158;" horiz-adv-x="590" 
d="M81 0zM425 0l-100 212h-121v-212h-123v625h259q71 0 112 -21t59.5 -67.5t18.5 -127.5q0 -73 -20 -117.5t-62 -63.5l110 -228h-133zM204 306h135q35 0 48.5 9t13.5 33v133q0 24 -13.5 33t-48.5 9h-135v-217zM303 775l85 66l38 -37l-99 -121q-6 -6 -12 -6h-25q-7 0 -11 6
l-100 121l38 37z" />
    <glyph glyph-name="rcaron" unicode="&#x159;" horiz-adv-x="342" 
d="M73 0zM180 424q41 38 74 59.5t65 31.5l11 -120q-31 -9 -67.5 -25.5t-58.5 -33.5v-336h-123v500h59zM197 650l85 66l38 -37l-99 -121q-6 -6 -12 -6h-25q-7 0 -11 6l-100 121l38 37z" />
    <glyph glyph-name="Sacute" unicode="&#x15a;" horiz-adv-x="532" 
d="M41 0zM154 94.5q53 -6.5 103 -6.5q51 0 105 6v155l-94 8q-88 7 -134.5 24.5t-65.5 54t-19 102.5q0 75 20 119t64 63.5t120 19.5q106 0 209 -22l-15 -97q-83 16 -179 16q-50 0 -85 -5v-157l102 -7q80 -6 125.5 -26t65.5 -59t20 -106q0 -71 -23.5 -113t-75.5 -60.5
t-140 -18.5q-115 0 -216 27l18 101q42 -12 95 -18.5zM174 723l161 116q5 4 8 4q5 0 11 -6l47 -58q8 -8 8 -13q0 -6 -8 -13l-30 -24q-7 -7 -23 -11l-148 -35z" />
    <glyph glyph-name="sacute" unicode="&#x15b;" horiz-adv-x="490" 
d="M40 0zM98 477.5q48 37.5 149 37.5q95 0 177 -22l-16 -88q-55 15 -121 15q-57 0 -107 -9v-99q113 -15 169.5 -33t78 -48.5t21.5 -86.5q0 -86 -50.5 -122.5t-168.5 -36.5q-94 0 -190 30l18 95q75 -30 163 -30q47 0 98 12v100q-121 16 -176 33t-74 46.5t-19 89.5
q0 79 48 116.5zM156 598l161 116q5 4 8 4q5 0 11 -6l47 -58q8 -8 8 -13q0 -6 -8 -13l-30 -24q-7 -7 -23 -11l-148 -35z" />
    <glyph glyph-name="Scircumflex" unicode="&#x15c;" horiz-adv-x="532" 
d="M41 0zM154 94.5q53 -6.5 103 -6.5q51 0 105 6v155l-94 8q-88 7 -134.5 24.5t-65.5 54t-19 102.5q0 75 20 119t64 63.5t120 19.5q106 0 209 -22l-15 -97q-83 16 -179 16q-50 0 -85 -5v-157l102 -7q80 -6 125.5 -26t65.5 -59t20 -106q0 -71 -23.5 -113t-75.5 -60.5
t-140 -18.5q-115 0 -216 27l18 101q42 -12 95 -18.5zM142 714l100 120q4 7 11 7h25q6 0 12 -7l99 -120l-38 -37l-85 66l-86 -66z" />
    <glyph glyph-name="scircumflex" unicode="&#x15d;" horiz-adv-x="490" 
d="M40 0zM98 477.5q48 37.5 149 37.5q95 0 177 -22l-16 -88q-55 15 -121 15q-57 0 -107 -9v-99q113 -15 169.5 -33t78 -48.5t21.5 -86.5q0 -86 -50.5 -122.5t-168.5 -36.5q-94 0 -190 30l18 95q75 -30 163 -30q47 0 98 12v100q-121 16 -176 33t-74 46.5t-19 89.5
q0 79 48 116.5zM124 589l100 120q4 7 11 7h25q6 0 12 -7l99 -120l-38 -37l-85 66l-86 -66z" />
    <glyph glyph-name="Scedilla" unicode="&#x15e;" horiz-adv-x="532" 
d="M452.5 37.5q-43.5 -43.5 -145.5 -50.5q24 -35 24 -76q0 -38 -27 -61.5t-72 -23.5q-37 0 -77 17l8 58h33q24 0 33.5 7.5t9.5 26.5v50q-106 2 -198 27l18 101q42 -12 95 -18.5t103 -6.5q51 0 105 6v155l-94 8q-88 7 -134.5 24.5t-65.5 54t-19 102.5q0 75 20 119t64 63.5
t120 19.5q106 0 209 -22l-15 -97q-83 16 -179 16q-50 0 -85 -5v-157l102 -7q80 -6 125.5 -26t65.5 -59t20 -106q0 -96 -43.5 -139.5z" />
    <glyph glyph-name="scedilla" unicode="&#x15f;" horiz-adv-x="490" 
d="M411 32q-38 -37 -125 -45q25 -33 25 -76q0 -38 -27 -61.5t-72 -23.5q-37 0 -77 17l8 58h33q24 0 33.5 7.5t9.5 26.5v50q-87 1 -179 30l18 95q75 -30 163 -30q47 0 98 12v100q-121 16 -176 33t-74 46.5t-19 89.5q0 79 48 116.5t149 37.5q95 0 177 -22l-16 -88
q-55 15 -121 15q-57 0 -107 -9v-99q113 -15 169.5 -33t78 -48.5t21.5 -86.5q0 -75 -38 -112z" />
    <glyph glyph-name="Scaron" unicode="&#x160;" horiz-adv-x="532" 
d="M41 0zM154 94.5q53 -6.5 103 -6.5q51 0 105 6v155l-94 8q-88 7 -134.5 24.5t-65.5 54t-19 102.5q0 75 20 119t64 63.5t120 19.5q106 0 209 -22l-15 -97q-83 16 -179 16q-50 0 -85 -5v-157l102 -7q80 -6 125.5 -26t65.5 -59t20 -106q0 -71 -23.5 -113t-75.5 -60.5
t-140 -18.5q-115 0 -216 27l18 101q42 -12 95 -18.5zM266 775l85 66l38 -37l-99 -121q-6 -6 -12 -6h-25q-7 0 -11 6l-100 121l38 37z" />
    <glyph glyph-name="scaron" unicode="&#x161;" horiz-adv-x="490" 
d="M40 0zM98 477.5q48 37.5 149 37.5q95 0 177 -22l-16 -88q-55 15 -121 15q-57 0 -107 -9v-99q113 -15 169.5 -33t78 -48.5t21.5 -86.5q0 -86 -50.5 -122.5t-168.5 -36.5q-94 0 -190 30l18 95q75 -30 163 -30q47 0 98 12v100q-121 16 -176 33t-74 46.5t-19 89.5
q0 79 48 116.5zM248 650l85 66l38 -37l-99 -121q-6 -6 -12 -6h-25q-7 0 -11 6l-100 121l38 37z" />
    <glyph glyph-name="uni0162" unicode="&#x162;" horiz-adv-x="467" 
d="M295 0h-32q16 -18 25.5 -41t9.5 -48q0 -38 -27 -61.5t-72 -23.5q-37 0 -77 17l8 58h33q24 0 33.5 7.5t9.5 26.5v65h-34v523h-159v102h442v-102h-160v-523z" />
    <glyph glyph-name="uni0163" unicode="&#x163;" horiz-adv-x="356" 
d="M231 417v-327q30 -5 68 -6l-6 -83q-41 -9 -76 -11q26 -36 26 -79q0 -38 -27 -61.5t-72 -23.5q-37 0 -77 17l8 58h33q24 0 33.5 7.5t9.5 26.5v61q-43 16 -43 76v345h-65v83h65v101l123 31v-132h85v-83h-85z" />
    <glyph glyph-name="Tcaron" unicode="&#x164;" horiz-adv-x="467" 
d="M13 0zM295 0h-123v523h-159v102h442v-102h-160v-523zM233 775l85 66l38 -37l-99 -121q-6 -6 -12 -6h-25q-7 0 -11 6l-100 121l38 37z" />
    <glyph glyph-name="tcaron" unicode="&#x165;" horiz-adv-x="433" 
d="M43 0zM231 417v-327q30 -5 68 -6l-6 -83q-57 -12 -98 -12q-44 0 -65.5 20t-21.5 63v345h-65v83h65v101l123 31v-132h85v-83h-85zM342 458l22 100q-29 4 -41.5 18.5t-12.5 48.5q0 42 16.5 58.5t57.5 16.5q40 0 57 -16.5t17 -58.5q0 -31 -7 -52.5t-25 -60.5l-34 -69z" />
    <glyph glyph-name="Tbar" unicode="&#x166;" horiz-adv-x="467" 
d="M295 523v-184h79v-41q0 -27 -8.5 -36t-36.5 -9h-34v-253h-123v253h-79v40q0 27 9.5 36.5t35.5 9.5h34v184h-159v102h442v-102h-160z" />
    <glyph glyph-name="tbar" unicode="&#x167;" horiz-adv-x="356" 
d="M231 417v-115h80v-41q0 -27 -8.5 -36t-36.5 -9h-35v-126q30 -5 68 -6l-6 -83q-57 -12 -98 -12q-44 0 -65.5 20t-21.5 63v144h-78v40q0 27 9.5 36.5t35.5 9.5h33v115h-65v83h65v101l123 31v-132h85v-83h-85z" />
    <glyph glyph-name="Utilde" unicode="&#x168;" horiz-adv-x="637" 
d="M71 0zM164 3q-52 18 -72.5 62.5t-20.5 133.5v426h123v-535h129q50 0 75.5 4.5t35 15.5t9.5 33v482h123v-426q0 -89 -20.5 -133.5t-72.5 -62.5t-154 -18q-103 0 -155 18zM309.5 692.5q-13.5 8.5 -41.5 35.5l-70 -35l-31 52q65 47 91 62t43 15q15 0 27.5 -7.5t42.5 -35.5
l70 34l31 -51q-61 -46 -88.5 -62t-44.5 -16q-16 0 -29.5 8.5z" />
    <glyph glyph-name="utilde" unicode="&#x169;" horiz-adv-x="580" 
d="M76 0zM500 0h-59l-32 50q-80 -61 -197 -61q-71 0 -103.5 27.5t-32.5 86.5v397h123v-421h103q43 0 59 11t16 40v370h123v-500zM279.5 567.5q-13.5 8.5 -41.5 35.5l-70 -35l-31 52q65 47 91 62t43 15q15 0 27.5 -7.5t42.5 -35.5l70 34l31 -51q-61 -46 -88.5 -62t-44.5 -16
q-16 0 -29.5 8.5z" />
    <glyph glyph-name="Umacron" unicode="&#x16a;" horiz-adv-x="637" 
d="M71 0zM164 3q-52 18 -72.5 62.5t-20.5 133.5v426h123v-535h129q50 0 75.5 4.5t35 15.5t9.5 33v482h123v-426q0 -89 -20.5 -133.5t-72.5 -62.5t-154 -18q-103 0 -155 18zM200 717q-8 10 -8 40v41h210q21 0 31 -4.5t12.5 -14t2.5 -30.5v-42h-209q-31 0 -39 10z" />
    <glyph glyph-name="umacron" unicode="&#x16b;" horiz-adv-x="580" 
d="M76 0zM500 0h-59l-32 50q-80 -61 -197 -61q-71 0 -103.5 27.5t-32.5 86.5v397h123v-421h103q43 0 59 11t16 40v370h123v-500zM170 592q-8 10 -8 40v41h210q21 0 31 -4.5t12.5 -14t2.5 -30.5v-42h-209q-31 0 -39 10z" />
    <glyph glyph-name="Ubreve" unicode="&#x16c;" horiz-adv-x="637" 
d="M71 0zM164 3q-52 18 -72.5 62.5t-20.5 133.5v426h123v-535h129q50 0 75.5 4.5t35 15.5t9.5 33v482h123v-426q0 -89 -20.5 -133.5t-72.5 -62.5t-154 -18q-103 0 -155 18zM239.5 716q-33.5 28 -45.5 87l72 12q6 -22 21 -34t33 -12q17 0 32 12t21 34l72 -12
q-13 -56 -46.5 -85.5t-78.5 -29.5q-47 0 -80.5 28z" />
    <glyph glyph-name="ubreve" unicode="&#x16d;" horiz-adv-x="580" 
d="M76 0zM500 0h-59l-32 50q-80 -61 -197 -61q-71 0 -103.5 27.5t-32.5 86.5v397h123v-421h103q43 0 59 11t16 40v370h123v-500zM209.5 591q-33.5 28 -45.5 87l72 12q6 -22 21 -34t33 -12q17 0 32 12t21 34l72 -12q-13 -56 -46.5 -85.5t-78.5 -29.5q-47 0 -80.5 28z" />
    <glyph glyph-name="Uring" unicode="&#x16e;" horiz-adv-x="637" 
d="M71 0zM164 3q-52 18 -72.5 62.5t-20.5 133.5v426h123v-535h129q50 0 75.5 4.5t35 15.5t9.5 33v482h123v-426q0 -89 -20.5 -133.5t-72.5 -62.5t-154 -18q-103 0 -155 18zM241.5 686.5q-24.5 25.5 -24.5 77.5t24.5 77t78.5 25t78 -25t24 -77t-24 -77.5t-78 -25.5
t-78.5 25.5zM318 718q22 0 32 4.5t10 21.5v65h-37q-24 0 -34.5 -4.5t-10.5 -20.5v-66h40z" />
    <glyph glyph-name="uring" unicode="&#x16f;" horiz-adv-x="580" 
d="M76 0zM500 0h-59l-32 50q-80 -61 -197 -61q-71 0 -103.5 27.5t-32.5 86.5v397h123v-421h103q43 0 59 11t16 40v370h123v-500zM211.5 561.5q-24.5 25.5 -24.5 77.5t24.5 77t78.5 25t78 -25t24 -77t-24 -77.5t-78 -25.5t-78.5 25.5zM288 593q22 0 32 4.5t10 21.5v65h-37
q-24 0 -34.5 -4.5t-10.5 -20.5v-66h40z" />
    <glyph glyph-name="Uhungarumlaut" unicode="&#x170;" horiz-adv-x="637" 
d="M71 0zM164 3q-52 18 -72.5 62.5t-20.5 133.5v426h123v-535h129q50 0 75.5 4.5t35 15.5t9.5 33v482h123v-426q0 -89 -20.5 -133.5t-72.5 -62.5t-154 -18q-103 0 -155 18zM119 725l135 113q3 3 9 6q5 0 11 -7l48 -59q6 -6 6 -12q0 -5 -5 -10l-32 -28q-10 -8 -25 -12
l-121 -31zM349 725l135 113q3 3 9 6q5 0 11 -7l48 -59q6 -6 6 -12q0 -5 -5 -10l-32 -28q-10 -8 -25 -12l-121 -31z" />
    <glyph glyph-name="uhungarumlaut" unicode="&#x171;" horiz-adv-x="580" 
d="M76 0zM500 0h-59l-32 50q-80 -61 -197 -61q-71 0 -103.5 27.5t-32.5 86.5v397h123v-421h103q43 0 59 11t16 40v370h123v-500zM89 600l135 113q3 3 9 6q5 0 11 -7l48 -59q6 -6 6 -12q0 -5 -5 -10l-32 -28q-10 -8 -25 -12l-121 -31zM319 600l135 113q3 3 9 6q5 0 11 -7
l48 -59q6 -6 6 -12q0 -5 -5 -10l-32 -28q-10 -8 -25 -12l-121 -31z" />
    <glyph glyph-name="Uogonek" unicode="&#x172;" horiz-adv-x="637" 
d="M566 625v-426q0 -84 -18 -128t-63.5 -63.5t-132.5 -22.5h-2q-26 -5 -34 -14t-8 -30v-17q0 -34 30 -34h45l9 -56q-43 -19 -82 -19q-43 0 -67.5 24.5t-24.5 66.5q0 49 50 80q-80 4 -121.5 24.5t-58.5 64t-17 124.5v426h123v-535h129q50 0 75.5 4.5t35 15.5t9.5 33v482h123z
" />
    <glyph glyph-name="uogonek" unicode="&#x173;" horiz-adv-x="580" 
d="M523 -155q-43 -19 -82 -19q-43 0 -67.5 24.5t-24.5 66.5q0 32 22 56.5t61 39.5l-23 37q-80 -61 -197 -61q-71 0 -103.5 27.5t-32.5 86.5v397h123v-421h103q43 0 59 11t16 40v370h123v-500h-1l-18 -4q-26 -5 -34 -14t-8 -30v-17q0 -34 30 -34h45z" />
    <glyph glyph-name="Wcircumflex" unicode="&#x174;" horiz-adv-x="831" 
d="M25 0zM807 625l-100 -625h-189l-102 476l-102 -476h-189l-100 625h123l78 -510h9l115 510h132l114 -510h9l79 510h123zM292 714l100 120q4 7 11 7h25q6 0 12 -7l99 -120l-38 -37l-85 66l-86 -66z" />
    <glyph glyph-name="wcircumflex" unicode="&#x175;" horiz-adv-x="725" 
d="M5 0zM719 500l-116 -500h-167l-74 324l-73 -324h-168l-116 500h121l84 -394h10l87 394h110l87 -394h10l84 394h121zM238 589l100 120q4 7 11 7h25q6 0 12 -7l99 -120l-38 -37l-85 66l-86 -66z" />
    <glyph glyph-name="Ycircumflex" unicode="&#x176;" horiz-adv-x="511" 
d="M9 0zM502 625l-185 -413v-212h-123v212l-185 413h128l119 -285l118 285h128zM131 714l100 120q4 7 11 7h25q6 0 12 -7l99 -120l-38 -37l-85 66l-86 -66z" />
    <glyph glyph-name="ycircumflex" unicode="&#x177;" horiz-adv-x="467" 
d="M5 0zM461 500l-135 -465q-23 -81 -51 -126.5t-68.5 -65t-102.5 -19.5q-56 0 -95 12l5 65l81 10q36 5 55.5 14.5t31 28t21.5 55.5l7 26h-70l-135 465h121l102 -360h10l102 360h121zM110 589l100 120q4 7 11 7h25q6 0 12 -7l99 -120l-38 -37l-85 66l-86 -66z" />
    <glyph glyph-name="Ydieresis" unicode="&#x178;" horiz-adv-x="511" 
d="M9 0zM502 625l-185 -413v-212h-123v212l-185 413h128l119 -285l118 285h128zM113 708q-12 13 -12 49t12 50t48 14q35 0 46.5 -14t11.5 -50t-11.5 -49t-46.5 -13q-36 0 -48 13zM302 708q-12 13 -12 49t12 50t48 14q35 0 46.5 -14t11.5 -50t-11.5 -49t-46.5 -13
q-36 0 -48 13z" />
    <glyph glyph-name="Zacute" unicode="&#x179;" horiz-adv-x="555" 
d="M33 0zM33 81l322 436l-3 6h-271l-13 102h454v-81l-322 -436l3 -6h307v-102h-477v81zM218 723l161 116q5 4 8 4q5 0 11 -6l47 -58q8 -8 8 -13q0 -6 -8 -13l-30 -24q-7 -7 -23 -11l-148 -35z" />
    <glyph glyph-name="zacute" unicode="&#x17a;" horiz-adv-x="486" 
d="M39 0zM289 411h-222l-9 89h388v-68l-254 -337l3 -6h249v-89h-405v68l253 337zM169 598l161 116q5 4 8 4q5 0 11 -6l47 -58q8 -8 8 -13q0 -6 -8 -13l-30 -24q-7 -7 -23 -11l-148 -35z" />
    <glyph glyph-name="Zdotaccent" unicode="&#x17b;" horiz-adv-x="555" 
d="M33 0zM33 81l322 436l-3 6h-271l-13 102h454v-81l-322 -436l3 -6h307v-102h-477v81zM254 716.5q-15 14.5 -15 55.5q0 42 15.5 57t56.5 15t55.5 -15t14.5 -57q0 -41 -14 -55.5t-56 -14.5t-57 14.5z" />
    <glyph glyph-name="zdotaccent" unicode="&#x17c;" horiz-adv-x="486" 
d="M39 0zM289 411h-222l-9 89h388v-68l-254 -337l3 -6h249v-89h-405v68l253 337zM205 591.5q-15 14.5 -15 55.5q0 42 15.5 57t56.5 15t55.5 -15t14.5 -57q0 -41 -14 -55.5t-56 -14.5t-57 14.5z" />
    <glyph glyph-name="Zcaron" unicode="&#x17d;" horiz-adv-x="555" 
d="M33 0zM33 81l322 436l-3 6h-271l-13 102h454v-81l-322 -436l3 -6h307v-102h-477v81zM310 775l85 66l38 -37l-99 -121q-6 -6 -12 -6h-25q-7 0 -11 6l-100 121l38 37z" />
    <glyph glyph-name="zcaron" unicode="&#x17e;" horiz-adv-x="486" 
d="M39 0zM289 411h-222l-9 89h388v-68l-254 -337l3 -6h249v-89h-405v68l253 337zM261 650l85 66l38 -37l-99 -121q-6 -6 -12 -6h-25q-7 0 -11 6l-100 121l38 37z" />
    <glyph glyph-name="florin" unicode="&#x192;" horiz-adv-x="433" 
d="M289.5 517q-18.5 -20 -23.5 -74l-8 -93h135l-6 -69h-135l-27 -320q-7 -72 -44 -104.5t-109 -32.5q-46 0 -88 12l13 73q41 1 61 5.5t28 17.5t10 39l27 310h-68v69h74l3 39q8 93 32 147.5t69.5 79t120.5 24.5q28 0 65 -6t62 -16l-26 -100q-20 8 -49 13.5t-52 5.5
q-46 0 -64.5 -20z" />
    <glyph glyph-name="Aringacute" unicode="&#x1fa;" horiz-adv-x="572" 
d="M13 0zM399 131h-225l-38 -131h-123l179 625h188l179 -625h-123zM372 225l-81 285h-9l-82 -285h172zM207.5 686.5q-24.5 25.5 -24.5 77.5t24.5 77t78.5 25t78 -25t24 -77t-24 -77.5t-78 -25.5t-78.5 25.5zM284 718q22 0 32 4.5t10 21.5v65h-37q-24 0 -34.5 -4.5
t-10.5 -20.5v-66h40zM194 944l161 116q5 4 8 4q5 0 11 -6l47 -58q8 -8 8 -13q0 -6 -8 -13l-30 -24q-7 -7 -23 -11l-148 -35z" />
    <glyph glyph-name="aringacute" unicode="&#x1fb;" horiz-adv-x="550" 
d="M48 0zM429.5 477q44.5 -34 44.5 -114v-363h-59l-32 50q-71 -61 -177 -61q-84 0 -121 36t-37 118q0 70 21.5 103t80 45.5t182.5 12.5h19v103q-34 10 -90 10q-84 0 -175 -25l-16 88q41 14 97.5 22.5t111.5 8.5q106 0 150.5 -34zM334.5 90.5q16.5 11.5 16.5 42.5v98h-112
q-46 0 -62.5 -11.5t-16.5 -43.5v-97h113q45 0 61.5 11.5zM200.5 561.5q-24.5 25.5 -24.5 77.5t24.5 77t78.5 25t78 -25t24 -77t-24 -77.5t-78 -25.5t-78.5 25.5zM277 593q22 0 32 4.5t10 21.5v65h-37q-24 0 -34.5 -4.5t-10.5 -20.5v-66h40zM187 819l161 116q5 4 8 4
q5 0 11 -6l47 -58q8 -8 8 -13q0 -6 -8 -13l-30 -24q-7 -7 -23 -11l-148 -35z" />
    <glyph glyph-name="AEacute" unicode="&#x1fc;" horiz-adv-x="776" 
d="M13 0zM175 625h506l-17 -106h-245l42 -161h179v-99h-154l39 -153h206v-106h-308l-31 128h-218l-31 -128h-130zM366 234l-66 276h-34l-67 -276h167zM296 723l161 116q5 4 8 4q5 0 11 -6l47 -58q8 -8 8 -13q0 -6 -8 -13l-30 -24q-7 -7 -23 -11l-148 -35z" />
    <glyph glyph-name="aeacute" unicode="&#x1fd;" horiz-adv-x="839" 
d="M48 0zM654.5 89q40.5 6 92.5 19l15 -88q-42 -15 -96.5 -23t-111.5 -8q-66 0 -106 14.5t-64 47.5q-72 -62 -178 -62q-84 0 -121 36t-37 118q0 70 21.5 103t80 45.5t182.5 12.5h19v103q-34 10 -90 10q-84 0 -175 -25l-16 88q41 14 97.5 22.5t111.5 8.5q102 0 146 -31
q49 31 142 31q83 0 127.5 -13.5t62.5 -46.5t18 -94q0 -70 -22.5 -103t-84.5 -45.5t-194 -12.5v-103q40 -10 99 -10q41 0 81.5 6zM491 403.5q-17 -11.5 -17 -42.5v-92h110q46 0 63.5 11.5t17.5 43.5v91h-111q-46 0 -63 -11.5zM334.5 90.5q16.5 11.5 16.5 42.5v98h-112
q-46 0 -62.5 -11.5t-16.5 -43.5v-97h113q45 0 61.5 11.5zM328 598l161 116q5 4 8 4q5 0 11 -6l47 -58q8 -8 8 -13q0 -6 -8 -13l-30 -24q-7 -7 -23 -11l-148 -35z" />
    <glyph glyph-name="Oslashacute" unicode="&#x1fe;" horiz-adv-x="642" 
d="M57 0zM563.5 517q21.5 -68 21.5 -205q0 -136 -22 -204.5t-77 -95.5t-165 -27q-66 0 -105 8l-18 -41q-7 -16 -16 -21.5t-27 -5.5h-36l38 86q-57 28 -78.5 96.5t-21.5 204.5q0 137 21.5 205.5t77 95.5t165.5 27q66 0 105 -8l18 41q7 16 16.5 22t26.5 6h36l-38 -87
q57 -29 78.5 -97zM191 90l193 445h-112q-47 0 -65 -15t-18 -53v-377h2zM453 535h-2l-193 -445h111q47 0 65.5 15t18.5 53v377zM229 723l161 116q5 4 8 4q5 0 11 -6l47 -58q8 -8 8 -13q0 -6 -8 -13l-30 -24q-7 -7 -23 -11l-148 -35z" />
    <glyph glyph-name="oslashacute" unicode="&#x1ff;" horiz-adv-x="562" 
d="M53 0zM490.5 405q18.5 -55 18.5 -155q0 -104 -20.5 -159.5t-69 -78.5t-138.5 -23q-53 0 -88 7l-35 -74q-7 -15 -16 -20t-27 -5h-36l57 119q-46 25 -64.5 79.5t-18.5 154.5q0 104 20.5 159.5t69 78.5t138.5 23q53 0 88 -7l35 73q7 15 16 20t27 5h36l-56 -117
q45 -25 63.5 -80zM183 115l143 299h-97q-27 0 -36.5 -5.5t-9.5 -20.5v-273zM370.5 91.5q9.5 5.5 9.5 20.5v274l-144 -300h98q27 0 36.5 5.5zM189 598l161 116q5 4 8 4q5 0 11 -6l47 -58q8 -8 8 -13q0 -6 -8 -13l-30 -24q-7 -7 -23 -11l-148 -35z" />
    <glyph glyph-name="Scommaaccent" unicode="&#x218;" horiz-adv-x="532" 
d="M41 0zM154 94.5q53 -6.5 103 -6.5q51 0 105 6v155l-94 8q-88 7 -134.5 24.5t-65.5 54t-19 102.5q0 75 20 119t64 63.5t120 19.5q106 0 209 -22l-15 -97q-83 16 -179 16q-50 0 -85 -5v-157l102 -7q80 -6 125.5 -26t65.5 -59t20 -106q0 -71 -23.5 -113t-75.5 -60.5
t-140 -18.5q-115 0 -216 27l18 101q42 -12 95 -18.5zM224 -282l22 100q-29 4 -41.5 18.5t-12.5 48.5q0 42 16.5 58.5t57.5 16.5q40 0 57 -16.5t17 -58.5q0 -31 -7 -52.5t-25 -60.5l-34 -69z" />
    <glyph glyph-name="scommaaccent" unicode="&#x219;" horiz-adv-x="490" 
d="M40 0zM98 477.5q48 37.5 149 37.5q95 0 177 -22l-16 -88q-55 15 -121 15q-57 0 -107 -9v-99q113 -15 169.5 -33t78 -48.5t21.5 -86.5q0 -86 -50.5 -122.5t-168.5 -36.5q-94 0 -190 30l18 95q75 -30 163 -30q47 0 98 12v100q-121 16 -176 33t-74 46.5t-19 89.5
q0 79 48 116.5zM204 -282l22 100q-29 4 -41.5 18.5t-12.5 48.5q0 42 16.5 58.5t57.5 16.5q40 0 57 -16.5t17 -58.5q0 -31 -7 -52.5t-25 -60.5l-34 -69z" />
    <glyph glyph-name="uni021A" unicode="&#x21a;" horiz-adv-x="467" 
d="M13 0zM295 0h-123v523h-159v102h442v-102h-160v-523zM191 -282l22 100q-29 4 -41.5 18.5t-12.5 48.5q0 42 16.5 58.5t57.5 16.5q40 0 57 -16.5t17 -58.5q0 -31 -7 -52.5t-25 -60.5l-34 -69z" />
    <glyph glyph-name="uni021B" unicode="&#x21b;" horiz-adv-x="356" 
d="M43 0zM231 417v-327q30 -5 68 -6l-6 -83q-57 -12 -98 -12q-44 0 -65.5 20t-21.5 63v345h-65v83h65v101l123 31v-132h85v-83h-85zM136 -282l22 100q-29 4 -41.5 18.5t-12.5 48.5q0 42 16.5 58.5t57.5 16.5q40 0 57 -16.5t17 -58.5q0 -31 -7 -52.5t-25 -60.5l-34 -69z" />
    <glyph glyph-name="uni0237" unicode="&#x237;" horiz-adv-x="285" 
d="M-19 -164l6 73q40 0 59.5 5t27 18t7.5 39v518l123 17v-555q0 -65 -32.5 -96t-101.5 -31q-53 0 -89 12z" />
    <glyph glyph-name="circumflex" unicode="&#x2c6;" horiz-adv-x="600" 
d="M68 552zM68 589l100 120q4 7 11 7h25q6 0 12 -7l99 -120l-38 -37l-85 66l-86 -66z" />
    <glyph glyph-name="caron" unicode="&#x2c7;" horiz-adv-x="600" 
d="M68 552zM192 650l85 66l38 -37l-99 -121q-6 -6 -12 -6h-25q-7 0 -11 6l-100 121l38 37z" />
    <glyph glyph-name="breve" unicode="&#x2d8;" horiz-adv-x="600" 
d="M66 563zM111.5 591q-33.5 28 -45.5 87l72 12q6 -22 21 -34t33 -12q17 0 32 12t21 34l72 -12q-13 -56 -46.5 -85.5t-78.5 -29.5q-47 0 -80.5 28z" />
    <glyph glyph-name="dotaccent" unicode="&#x2d9;" horiz-adv-x="600" 
d="M60 577zM75 591.5q-15 14.5 -15 55.5q0 42 15.5 57t56.5 15t55.5 -15t14.5 -57q0 -41 -14 -55.5t-56 -14.5t-57 14.5z" />
    <glyph glyph-name="ring" unicode="&#x2da;" horiz-adv-x="600" 
d="M30 536zM54.5 561.5q-24.5 25.5 -24.5 77.5t24.5 77t78.5 25t78 -25t24 -77t-24 -77.5t-78 -25.5t-78.5 25.5zM131 593q22 0 32 4.5t10 21.5v65h-37q-24 0 -34.5 -4.5t-10.5 -20.5v-66h40z" />
    <glyph glyph-name="ogonek" unicode="&#x2db;" horiz-adv-x="600" 
d="M0 0zM24.5 -149.5q-24.5 24.5 -24.5 66.5t38 72t102 38l10 -27l-18 -4q-26 -5 -34 -14t-8 -30v-17q0 -34 30 -34h45l9 -56q-43 -19 -82 -19q-43 0 -67.5 24.5z" />
    <glyph glyph-name="tilde" unicode="&#x2dc;" horiz-adv-x="600" 
d="M76 559zM218.5 567.5q-13.5 8.5 -41.5 35.5l-70 -35l-31 52q65 47 91 62t43 15q15 0 27.5 -7.5t42.5 -35.5l70 34l31 -51q-61 -46 -88.5 -62t-44.5 -16q-16 0 -29.5 8.5z" />
    <glyph glyph-name="hungarumlaut" unicode="&#x2dd;" horiz-adv-x="600" 
d="M38 560zM38 600l135 113q3 3 9 6q5 0 11 -7l48 -59q6 -6 6 -12q0 -5 -5 -10l-32 -28q-10 -8 -25 -12l-121 -31zM268 600l135 113q3 3 9 6q5 0 11 -7l48 -59q6 -6 6 -12q0 -5 -5 -10l-32 -28q-10 -8 -25 -12l-121 -31z" />
    <glyph glyph-name="gravecomb" unicode="&#x300;" 
d="M-304 586q-12 2 -23 10l-29 25q-8 5 -8 12q0 5 7 13l48 58q6 7 10 7t9 -4l161 -117l-27 -39z" />
    <glyph glyph-name="acutecomb" unicode="&#x301;" 
d="M-304 598l161 116q5 4 8 4q5 0 11 -6l47 -58q8 -8 8 -13q0 -6 -8 -13l-30 -24q-7 -7 -23 -11l-148 -35z" />
    <glyph glyph-name="uni0302" unicode="&#x302;" 
d="M-317 589l100 120q4 7 11 7h25q6 0 12 -7l99 -120l-38 -37l-85 66l-86 -66z" />
    <glyph glyph-name="tildecomb" unicode="&#x303;" 
d="M-239.5 567.5q-13.5 8.5 -41.5 35.5l-70 -35l-31 52q65 47 91 62t43 15q15 0 27.5 -7.5t42.5 -35.5l70 34l31 -51q-61 -46 -88.5 -62t-44.5 -16q-16 0 -29.5 8.5z" />
    <glyph glyph-name="uni0304" unicode="&#x304;" 
d="M-319 592q-8 10 -8 40v41h210q21 0 31 -4.5t12.5 -14t2.5 -30.5v-42h-209q-31 0 -39 10z" />
    <glyph glyph-name="uni0306" unicode="&#x306;" 
d="M-273.5 591q-33.5 28 -45.5 87l72 12q6 -22 21 -34t33 -12q17 0 32 12t21 34l72 -12q-13 -56 -46.5 -85.5t-78.5 -29.5q-47 0 -80.5 28z" />
    <glyph glyph-name="uni0307" unicode="&#x307;" 
d="M-188 591.5q-15 14.5 -15 55.5q0 42 15.5 57t56.5 15t55.5 -15t14.5 -57q0 -41 -14 -55.5t-56 -14.5t-57 14.5z" />
    <glyph glyph-name="uni0308" unicode="&#x308;" 
d="M-340 583q-12 13 -12 49t12 50t48 14q35 0 46.5 -14t11.5 -50t-11.5 -49t-46.5 -13q-36 0 -48 13zM-151 583q-12 13 -12 49t12 50t48 14q35 0 46.5 -14t11.5 -50t-11.5 -49t-46.5 -13q-36 0 -48 13z" />
    <glyph glyph-name="uni030A" unicode="&#x30a;" 
d="M-210.5 561.5q-24.5 25.5 -24.5 77.5t24.5 77t78.5 25t78 -25t24 -77t-24 -77.5t-78 -25.5t-78.5 25.5zM-134 593q22 0 32 4.5t10 21.5v65h-37q-24 0 -34.5 -4.5t-10.5 -20.5v-66h40z" />
    <glyph glyph-name="uni030B" unicode="&#x30b;" 
d="M-437 600l135 113q3 3 9 6q5 0 11 -7l48 -59q6 -6 6 -12q0 -5 -5 -10l-32 -28q-10 -8 -25 -12l-121 -31zM-207 600l135 113q3 3 9 6q5 0 11 -7l48 -59q6 -6 6 -12q0 -5 -5 -10l-32 -28q-10 -8 -25 -12l-121 -31z" />
    <glyph glyph-name="uni030C" unicode="&#x30c;" 
d="M-193 650l85 66l38 -37l-99 -121q-6 -6 -12 -6h-25q-7 0 -11 6l-100 121l38 37z" />
    <glyph glyph-name="uni0312" unicode="&#x312;" 
d="M-90 805l-22 -100q29 -3 41 -17.5t12 -48.5q0 -42 -16.5 -59t-56.5 -17q-41 0 -57.5 17t-16.5 59q0 30 7 52.5t25 59.5l34 69z" />
    <glyph glyph-name="uni0326" unicode="&#x326;" 
d="M-145 -282l22 100q-29 4 -41.5 18.5t-12.5 48.5q0 42 16.5 58.5t57.5 16.5q40 0 57 -16.5t17 -58.5q0 -31 -7 -52.5t-25 -60.5l-34 -69z" />
    <glyph glyph-name="uni0327" unicode="&#x327;" 
d="M-179 -157l8 58h33q24 0 33.5 7.5t9.5 26.5v86h29q28 -14 45.5 -44.5t17.5 -65.5q0 -38 -27 -61.5t-72 -23.5q-37 0 -77 17z" />
    <glyph glyph-name="uni0328" unicode="&#x328;" 
d="M-156.5 -149.5q-24.5 24.5 -24.5 66.5t38 72t102 38l10 -27l-18 -4q-26 -5 -34 -14t-8 -30v-17q0 -34 30 -34h45l9 -56q-43 -19 -82 -19q-43 0 -67.5 24.5z" />
    <glyph glyph-name="uni0335" unicode="&#x335;" 
d="M-298.5 309.5q9.5 9.5 35.5 9.5h236v-41q0 -27 -8.5 -36t-36.5 -9h-236v40q0 27 9.5 36.5z" />
    <glyph glyph-name="uni0336" unicode="&#x336;" 
d="M-622.5 308q9.5 9 35.5 9h561v-38q0 -27 -9 -36t-36 -9h-561v38q0 27 9.5 36z" />
    <glyph glyph-name="uni0337" unicode="&#x337;" 
d="M-264 288q-7 20 -7 33q0 17 19 23l235 78l11 -30q6 -19 6 -32q0 -17 -19 -24l-235 -78z" />
    <glyph glyph-name="uni0338" unicode="&#x338;" 
d="M-341 -35q-9 -5 -27 -5h-36l325 680q7 15 16 20t27 5h36l-325 -680q-7 -15 -16 -20z" />
    <glyph glyph-name="uni0394" unicode="&#x394;" horiz-adv-x="668" 
d="M47 0zM622 52l-19 -52h-537l-19 52l214 573h149zM466 119q0 9 -2 14l-136 365h-14l-151 -402h274q29 0 29 23z" />
    <glyph glyph-name="uni03A9" unicode="&#x3a9;" horiz-adv-x="680" 
d="M186 275q0 -34 9 -50.5t26 -22t46 -5.5l-15 -197h-210v77l133 8l5 58q-50 11 -77 35t-38 70t-11 127q0 107 26 163t86.5 79t173.5 23t173.5 -23t86 -79t25.5 -163q0 -81 -11 -127t-37.5 -70t-76.5 -35l5 -58l133 -8v-77h-210l-15 197h81v288q0 37 -17 48.5t-54 11.5h-237
v-270z" />
    <glyph glyph-name="pi" unicode="&#x3c0;" horiz-adv-x="626" 
d="M510 92q37 -4 47 -5l-7 -84q-49 -12 -76 -12q-44 0 -65.5 20t-21.5 63v326h-97q-45 0 -49 -38l-58 -362h-91l29 408l-49 12v80h401q5 14 6 36l93 -7q0 -49 -5 -75t-18 -38t-39 -15v-309z" />
    <glyph glyph-name="uni060C" unicode="&#x60c;" horiz-adv-x="241" 
d="M174 242l-23 -97q26 -5 35.5 -21t9.5 -53q0 -44 -16.5 -60.5t-60.5 -16.5q-41 0 -57 16.5t-16 60.5q1 23 6.5 41.5t21.5 53.5l44 94z" />
    <glyph glyph-name="uni0615" unicode="&#x615;" 
d="M119 782.5q19 -17.5 19 -60.5v-132h-302v51h30v222h74v-117q35 54 115 54q45 0 64 -17.5zM64 641v97q-16 8 -41 8q-42 0 -61.5 -25.5t-21.5 -79.5h124z" />
    <glyph glyph-name="uni061B" unicode="&#x61b;" horiz-adv-x="241" 
d="M45 0zM60 131q15 17 60 17q44 0 59.5 -17.5t15.5 -59.5q0 -43 -15.5 -60t-59.5 -17q-45 0 -60 16.5t-15 60.5q0 43 15 60zM174 522l-23 -97q26 -5 35.5 -21t9.5 -53q0 -44 -16.5 -60.5t-60.5 -16.5q-41 0 -57 16.5t-16 60.5q1 23 6.5 41.5t21.5 53.5l44 94z" />
    <glyph glyph-name="uni061F" unicode="&#x61f;" horiz-adv-x="443" 
d="M225 204l-5 121q-86 29 -126 50t-54 48t-14 75q0 53 20.5 83.5t65 44.5t120.5 14q86 0 177 -28l-16 -84q-93 20 -154 20q-45 0 -83 -6v-100l94 -31q40 -14 53 -22.5t12 -23.5l-12 -161h-78zM322.5 10.5q-14.5 -16.5 -57.5 -16.5q-44 0 -58.5 16.5t-14.5 58.5q0 41 15 58
t58 17t57.5 -17t14.5 -58q0 -42 -14.5 -58.5z" />
    <glyph glyph-name="uni0621" unicode="&#x621;" horiz-adv-x="431" 
d="M408 217v-104l-388 -104v104l99 26q-29 43 -29 129q0 119 66.5 174t208.5 55v-111q-47 0 -94 -10.5t-78 -27.5v-128q0 -25 7.5 -36.5t25.5 -11.5q13 0 36 6z" />
    <glyph glyph-name="uni0622" unicode="&#x622;" horiz-adv-x="285" 
d="M19 0zM93 470h98v-470h-98v470zM132.5 616.5q-11.5 7.5 -35.5 33.5l-61 -29l-17 32q49 37 71 49t36 12q12 0 22.5 -7.5t36.5 -33.5l61 28l17 -31q-45 -35 -68 -48t-38 -13q-13 0 -24.5 7.5z" />
    <glyph glyph-name="uni0623" unicode="&#x623;" horiz-adv-x="285" 
d="M27 0zM93 470h98v-470h-98v470zM257 691v-52l-230 -62v52l42 12q-10 23 -10 68q0 77 44 108.5t129 33.5v-62q-58 -2 -102 -23l-1 -78q0 -24 21 -24q5 0 23 4z" />
    <glyph glyph-name="uni0624" unicode="&#x624;" horiz-adv-x="608" 
d="M77 0zM414 473.5q49 -7.5 101 -25.5v-337q0 -61 -28.5 -132.5t-77.5 -137t-109 -112.5l-63 75q48 39 88 90.5t64 105.5h-150q-63 0 -97.5 22t-49.5 73.5t-15 146.5t20 146t67 72t135 21q66 0 115 -7.5zM371 111q26 0 35.5 10t9.5 37v212h-186q-29 0 -39 -10.5t-10 -40.5
v-208h190zM413 691v-52l-230 -62v52l42 12q-10 23 -10 68q0 77 44 108.5t129 33.5v-62q-58 -2 -102 -23l-1 -78q0 -24 21 -24q5 0 23 4z" />
    <glyph glyph-name="uni0625" unicode="&#x625;" horiz-adv-x="285" 
d="M27 0zM93 630h98v-630h-98v630zM257 -238v-52l-230 -62v52l42 12q-10 23 -10 68q0 77 44 108.5t129 33.5v-62q-58 -2 -102 -23l-1 -78q0 -24 21 -24q5 0 23 4z" />
    <glyph glyph-name="uni0626" unicode="&#x626;" horiz-adv-x="859" 
d="M59 0zM76.5 42q8.5 61 22.5 105l96 -16q-14 -58 -21.5 -101.5t-7.5 -81.5q0 -69 12 -116h282q86 0 131 4.5t64.5 15.5t19.5 33v185l-138 16q-67 8 -102 27.5t-48.5 58t-13.5 106.5q0 78 16.5 121t58 62t117.5 19q105 0 198 -20l-17 -106q-90 15 -166 15q-67 0 -103 -5
v-164l154 -16q56 -6 87 -26t43 -57t12 -100v-73q0 -83 -30 -126.5t-107 -61.5t-229 -18q-144 0 -213.5 14.5t-97.5 56.5t-28 131q0 57 8.5 118zM289 381v-52l-230 -62v52l42 12q-10 23 -10 68q0 77 44 108.5t129 33.5v-62q-58 -2 -102 -23l-1 -78q0 -24 21 -24q5 0 23 4z
" />
    <glyph glyph-name="uni0627" unicode="&#x627;" horiz-adv-x="285" 
d="M93 630h98v-630h-98v630z" />
    <glyph glyph-name="uni0628" unicode="&#x628;" horiz-adv-x="893" 
d="M65 0zM127 21q-32 21 -47 66.5t-15 122.5q0 47 8 96.5t21 86.5l94 -15q-25 -81 -25 -145q0 -77 16 -122h522v359h99v-470h-586q-55 0 -87 21zM404.5 -190q-22.5 23 -22.5 40q0 18 22 39.5t40 22.5q18 -1 40 -22.5t22 -39.5q0 -17 -22.5 -40t-39.5 -22q-17 -1 -39.5 22z
" />
    <glyph glyph-name="uni0629" unicode="&#x629;" horiz-adv-x="634" 
d="M79 0zM541 0h-250q-92 0 -135.5 18t-60 66.5t-16.5 150.5t16.5 150.5t60 66.5t135.5 18h250v-470zM245 359q-32 0 -46.5 -12t-14.5 -38v-148q0 -26 14.5 -38t46.5 -12h198v248h-198zM210.5 611q-22.5 23 -22.5 40q0 18 22 39.5t40 22.5q18 -1 40 -22.5t22 -39.5
q0 -17 -23 -40t-39 -22q-17 -1 -39.5 22zM365.5 611q-22.5 23 -22.5 40q0 18 22 39.5t40 22.5q18 -1 40 -22.5t22 -39.5q0 -17 -23 -40t-39 -22q-17 -1 -39.5 22z" />
    <glyph glyph-name="uni062A" unicode="&#x62a;" horiz-adv-x="893" 
d="M65 0zM127 21q-32 21 -47 66.5t-15 122.5q0 47 8 96.5t21 86.5l94 -15q-25 -81 -25 -145q0 -77 16 -122h522v359h99v-470h-586q-55 0 -87 21zM327.5 511q-22.5 23 -22.5 40q0 18 22 39.5t40 22.5q18 -1 40 -22.5t22 -39.5q0 -17 -23 -40t-39 -22q-17 -1 -39.5 22z
M482.5 511q-22.5 23 -22.5 40q0 18 22 39.5t40 22.5q18 -1 40 -22.5t22 -39.5q0 -17 -23 -40t-39 -22q-17 -1 -39.5 22z" />
    <glyph glyph-name="uni062B" unicode="&#x62b;" horiz-adv-x="893" 
d="M65 0zM127 21q-32 21 -47 66.5t-15 122.5q0 47 8 96.5t21 86.5l94 -15q-25 -81 -25 -145q0 -77 16 -122h522v359h99v-470h-586q-55 0 -87 21zM327.5 511q-22.5 23 -22.5 40q0 18 22 39.5t40 22.5q18 -1 40 -22.5t22 -39.5q0 -17 -23 -40t-39 -22q-17 -1 -39.5 22z
M482.5 511q-22.5 23 -22.5 40q0 18 22 39.5t40 22.5q18 -1 40 -22.5t22 -39.5q0 -17 -23 -40t-39 -22q-17 -1 -39.5 22zM404.5 674q-22.5 23 -22.5 40q0 18 22 39.5t40 22.5q18 -1 40 -22.5t22 -39.5q0 -17 -23 -40t-39 -22q-17 -1 -39.5 22z" />
    <glyph glyph-name="uni062C" unicode="&#x62c;" horiz-adv-x="563" 
d="M563 155q-149 0 -239 -15.5t-131.5 -48.5t-41.5 -88v-166q51 -8 134 -8q40 0 80 5t94 18l13 -105q-42 -14 -99 -21.5t-119 -7.5q-84 0 -127 19.5t-60.5 68.5t-17.5 145q0 97 34.5 158.5t108.5 95.5t197 44l-1 3q-29 61 -85.5 89.5t-145.5 28.5q-48 0 -87 -4l-16 108
q63 7 116 7q136 0 215 -53.5t122 -174.5h56v-98zM282 25q21 21 38 22q17 -1 38 -22t21 -38q0 -16 -21.5 -38t-37.5 -21q-16 -1 -37.5 21t-21.5 38q0 17 21 38z" />
    <glyph glyph-name="uni062D" unicode="&#x62d;" horiz-adv-x="563" 
d="M324 139.5q-90 -15.5 -131.5 -48.5t-41.5 -88v-166q51 -8 134 -8q40 0 80 5t94 18l13 -105q-42 -14 -99 -21.5t-119 -7.5q-84 0 -127 19.5t-60.5 68.5t-17.5 145q0 97 34.5 158.5t108.5 95.5t197 44l-1 3q-29 61 -85.5 89.5t-145.5 28.5q-48 0 -87 -4l-16 108q63 7 116 7
q136 0 215 -53.5t122 -174.5h56v-98q-149 0 -239 -15.5z" />
    <glyph glyph-name="uni062E" unicode="&#x62e;" horiz-adv-x="563" 
d="M49 0zM324 139.5q-90 -15.5 -131.5 -48.5t-41.5 -88v-166q51 -8 134 -8q40 0 80 5t94 18l13 -105q-42 -14 -99 -21.5t-119 -7.5q-84 0 -127 19.5t-60.5 68.5t-17.5 145q0 97 34.5 158.5t108.5 95.5t197 44l-1 3q-29 61 -85.5 89.5t-145.5 28.5q-48 0 -87 -4l-16 108
q63 7 116 7q136 0 215 -53.5t122 -174.5h56v-98q-149 0 -239 -15.5zM244.5 634q-22.5 23 -22.5 40q0 18 22 39.5t40 22.5q18 -1 40 -22.5t22 -39.5q0 -17 -23 -40t-39 -22q-17 -1 -39.5 22z" />
    <glyph glyph-name="uni062F" unicode="&#x62f;" horiz-adv-x="519" 
d="M20 111h331q-31 117 -55.5 172.5t-55.5 76t-85 20.5q-43 0 -85 -10l-28 107q58 14 113 14q94 0 142 -27t84 -108t88 -270v-86h-449v111z" />
    <glyph glyph-name="uni0630" unicode="&#x630;" horiz-adv-x="519" 
d="M20 0zM20 111h331q-31 117 -55.5 172.5t-55.5 76t-85 20.5q-43 0 -85 -10l-28 107q58 14 113 14q94 0 142 -27t84 -108t88 -270v-86h-449v111zM144.5 611q-22.5 23 -22.5 40q0 18 22 39.5t40 22.5q18 -1 40 -22.5t22 -39.5q0 -17 -23 -40t-39 -22q-17 -1 -39.5 22z" />
    <glyph glyph-name="uni0631" unicode="&#x631;" horiz-adv-x="318" 
d="M25 -178q58 27 79.5 66.5t21.5 117.5v464h99v-464q0 -105 -37.5 -168t-122.5 -103z" />
    <glyph glyph-name="uni0632" unicode="&#x632;" horiz-adv-x="318" 
d="M25 0zM25 -178q58 27 79.5 66.5t21.5 117.5v464h99v-464q0 -105 -37.5 -168t-122.5 -103zM136.5 611q-22.5 23 -22.5 40q0 18 22 39.5t40 22.5q18 -1 40 -22.5t22 -39.5q0 -17 -23 -40t-39 -22q-17 -1 -39.5 22z" />
    <glyph glyph-name="uni0633" unicode="&#x633;" horiz-adv-x="1287" 
d="M1195 369q8 -59 8 -108q0 -103 -18.5 -158.5t-61 -79t-120.5 -23.5q-63 0 -102 7.5t-62 25.5q-24 -18 -65 -25.5t-107 -7.5h-94v-26q0 -90 -20 -134.5t-75 -62t-169 -17.5q-106 0 -156.5 19t-67.5 66t-17 145q0 57 7.5 115.5t21.5 101.5l97 -15q-28 -114 -28 -182
q0 -86 12 -139h171q71 0 98.5 11t27.5 42v456h98v-269h139q42 0 59.5 11t17.5 42v216h99v-216q0 -31 17.5 -42t59.5 -11h128q12 53 12 145q0 79 -27 197l97 15q12 -40 20 -99z" />
    <glyph glyph-name="uni0634" unicode="&#x634;" horiz-adv-x="1287" 
d="M68 0zM1195 369q8 -59 8 -108q0 -103 -18.5 -158.5t-61 -79t-120.5 -23.5q-63 0 -102 7.5t-62 25.5q-24 -18 -65 -25.5t-107 -7.5h-94v-26q0 -90 -20 -134.5t-75 -62t-169 -17.5q-106 0 -156.5 19t-67.5 66t-17 145q0 57 7.5 115.5t21.5 101.5l97 -15q-28 -114 -28 -182
q0 -86 12 -139h171q71 0 98.5 11t27.5 42v456h98v-269h139q42 0 59.5 11t17.5 42v216h99v-216q0 -31 17.5 -42t59.5 -11h128q12 53 12 145q0 79 -27 197l97 15q12 -40 20 -99zM729.5 611q-22.5 23 -22.5 40q0 18 22 39.5t40 22.5q18 -1 40 -22.5t22 -39.5q0 -17 -23 -40
t-39 -22q-17 -1 -39.5 22zM884.5 611q-22.5 23 -22.5 40q0 18 22 39.5t40 22.5q18 -1 40 -22.5t22 -39.5q0 -17 -23 -40t-39 -22q-17 -1 -39.5 22zM806.5 774q-22.5 23 -22.5 40q0 18 22 39.5t40 22.5q18 -1 40 -22.5t22 -39.5q0 -17 -23 -40t-39 -22q-17 -1 -39.5 22z" />
    <glyph glyph-name="uni0635" unicode="&#x635;" horiz-adv-x="1156" 
d="M998.5 467.5q35.5 -12.5 51 -41.5t15.5 -82v-344h-492v-26q0 -90 -20 -134.5t-75 -62t-169 -17.5q-106 0 -156.5 19t-67.5 66t-17 145q0 57 7.5 115.5t21.5 101.5l97 -15q-28 -114 -28 -182q0 -86 12 -139h171q71 0 98.5 11t27.5 42v546h98v-171q33 86 118.5 133.5
t206.5 47.5q65 0 100.5 -12.5zM967 111v247q-35 11 -113 11q-132 0 -201.5 -64t-78.5 -194h393z" />
    <glyph glyph-name="uni0636" unicode="&#x636;" horiz-adv-x="1156" 
d="M68 0zM998.5 467.5q35.5 -12.5 51 -41.5t15.5 -82v-344h-492v-26q0 -90 -20 -134.5t-75 -62t-169 -17.5q-106 0 -156.5 19t-67.5 66t-17 145q0 57 7.5 115.5t21.5 101.5l97 -15q-28 -114 -28 -182q0 -86 12 -139h171q71 0 98.5 11t27.5 42v546h98v-171q33 86 118.5 133.5
t206.5 47.5q65 0 100.5 -12.5zM967 111v247q-35 11 -113 11q-132 0 -201.5 -64t-78.5 -194h393zM797.5 611q-22.5 23 -22.5 40q0 18 22 39.5t40 22.5q18 -1 40 -22.5t22 -39.5q0 -17 -23 -40t-39 -22q-17 -1 -39.5 22z" />
    <glyph glyph-name="uni0637" unicode="&#x637;" horiz-adv-x="816" 
d="M661.5 467.5q35.5 -12.5 51 -41.5t15.5 -82v-344h-708v111h118v519h98v-331q33 86 118.5 133.5t206.5 47.5q65 0 100.5 -12.5zM630 111v247q-35 11 -113 11q-132 0 -201.5 -64t-78.5 -194h393z" />
    <glyph glyph-name="uni0638" unicode="&#x638;" horiz-adv-x="816" 
d="M20 0zM661.5 467.5q35.5 -12.5 51 -41.5t15.5 -82v-344h-708v111h118v519h98v-331q33 86 118.5 133.5t206.5 47.5q65 0 100.5 -12.5zM630 111v247q-35 11 -113 11q-132 0 -201.5 -64t-78.5 -194h393zM460.5 611q-22.5 23 -22.5 40q0 18 22 39.5t40 22.5q18 -1 40 -22.5
t22 -39.5q0 -17 -23 -40t-39 -22q-17 -1 -39.5 22z" />
    <glyph glyph-name="uni0639" unicode="&#x639;" horiz-adv-x="576" 
d="M226 361v-228q91 25 241 25v-93q-166 0 -241 -31t-75 -102v-142q48 -9 134 -9q39 0 78.5 5.5t95.5 17.5l13 -104q-84 -29 -218 -29q-84 0 -127 19.5t-60.5 68.5t-17.5 145q0 69 23 116.5t71 78.5q-19 48 -19 145q0 95 17 145t59.5 71t124.5 21q48 0 96.5 -7.5t85.5 -21.5
l-15 -104q-87 22 -162 22q-69 0 -104 -9z" />
    <glyph glyph-name="uni063A" unicode="&#x63a;" horiz-adv-x="576" 
d="M49 0zM226 361v-228q91 25 241 25v-93q-166 0 -241 -31t-75 -102v-142q48 -9 134 -9q39 0 78.5 5.5t95.5 17.5l13 -104q-84 -29 -218 -29q-84 0 -127 19.5t-60.5 68.5t-17.5 145q0 69 23 116.5t71 78.5q-19 48 -19 145q0 95 17 145t59.5 71t124.5 21q48 0 96.5 -7.5
t85.5 -21.5l-15 -104q-87 22 -162 22q-69 0 -104 -9zM285.5 611q-22.5 23 -22.5 40q0 18 22 39.5t40 22.5q18 -1 40 -22.5t22 -39.5q0 -17 -23 -40t-39 -22q-17 -1 -39.5 22z" />
    <glyph glyph-name="uni0640" unicode="&#x640;" horiz-adv-x="244" 
d="M-20 111h284v-111h-284v111z" />
    <glyph glyph-name="uni0641" unicode="&#x641;" horiz-adv-x="993" 
d="M65 0zM127 21q-32 21 -47 66.5t-15 122.5q0 47 8 96.5t21 86.5l94 -15q-25 -81 -25 -145q0 -77 16 -122h295q-12 59 -12 158q0 82 19.5 127.5t67 65t135.5 19.5q59 0 108 -7.5t108 -25.5v-448h-686q-55 0 -87 21zM792.5 121q9.5 10 9.5 37v210h-191q-26 0 -35 -10.5
t-9 -40.5v-206h190q26 0 35.5 10zM670.5 611q-22.5 23 -22.5 40q0 18 22 39.5t40 22.5q18 -1 40 -22.5t22 -39.5q0 -17 -23 -40t-39 -22q-17 -1 -39.5 22z" />
    <glyph glyph-name="uni0642" unicode="&#x642;" horiz-adv-x="896" 
d="M58 0zM703 473.5q49 -7.5 101 -25.5v-448h-1v-92q0 -94 -40 -133.5t-134 -39.5h-422q-55 0 -87 24.5t-47 78t-15 143.5q0 56 8 115t21 105l94 -16q-25 -102 -25 -180q0 -99 15 -159h534v154h-177q-63 0 -97.5 22t-49.5 73.5t-15 146.5t20 146t67 72t135 21q66 0 115 -7.5
zM695.5 121q9.5 10 9.5 37v212h-186q-29 0 -39 -10.5t-10 -40.5v-208h190q26 0 35.5 10zM469.5 611q-22.5 23 -22.5 40q0 18 22 39.5t40 22.5q18 -1 40 -22.5t22 -39.5q0 -17 -23 -40t-39 -22q-17 -1 -39.5 22zM624.5 611q-22.5 23 -22.5 40q0 18 22 39.5t40 22.5
q18 -1 40 -22.5t22 -39.5q0 -17 -23 -40t-39 -22q-17 -1 -39.5 22z" />
    <glyph glyph-name="uni0643" unicode="&#x643;" horiz-adv-x="882" 
d="M552 491v-52l-230 -62v52l42 12q-10 23 -10 68q0 77 44 108.5t129 33.5v-62q-58 -2 -102 -23l-1 -78q0 -24 21 -24q5 0 23 4zM701 111v519h99v-630h-586q-55 0 -87 21t-47 66.5t-15 122.5q0 47 8 96.5t21 86.5l94 -15q-25 -81 -25 -145q0 -77 16 -122h522z" />
    <glyph glyph-name="uni0644" unicode="&#x644;" horiz-adv-x="668" 
d="M349 -129q71 0 98.5 11t27.5 42v708h98v-658q0 -90 -20 -134.5t-75 -62t-169 -17.5q-103 0 -153.5 19t-69 67t-18.5 144q0 63 8.5 130t22.5 117l92 -15q-25 -119 -25 -212q0 -86 12 -139h171z" />
    <glyph glyph-name="uni0645" unicode="&#x645;" horiz-adv-x="664" 
d="M129 0q-16 -54 -16 -140q0 -65 29 -177l-96 -17q-14 43 -22.5 102t-8.5 115q0 112 25 165t82 61q-12 49 -12 125q0 95 41 205l-1 1q45 19 107 30t125 11q104 0 147 -32t43 -108v-341h-443zM372 370q-69 0 -144 -14q-20 -70 -20 -122q0 -78 14 -123h251v250q-35 9 -101 9z
" />
    <glyph glyph-name="uni0646" unicode="&#x646;" horiz-adv-x="668" 
d="M68 0zM349 -129q71 0 98.5 11t27.5 42v546h98v-496q0 -90 -20 -134.5t-75 -62t-169 -17.5q-103 0 -153.5 19t-69 67t-18.5 144q0 63 8.5 130t22.5 117l92 -15q-25 -119 -25 -212q0 -86 12 -139h171zM284.5 611q-22.5 23 -22.5 40q0 18 22 39.5t40 22.5q18 -1 40 -22.5
t22 -39.5q0 -17 -23 -40t-39 -22q-17 -1 -39.5 22z" />
    <glyph glyph-name="uni0647" unicode="&#x647;" horiz-adv-x="634" 
d="M541 0h-250q-92 0 -135.5 18t-60 66.5t-16.5 150.5t16.5 150.5t60 66.5t135.5 18h250v-470zM245 359q-32 0 -46.5 -12t-14.5 -38v-148q0 -26 14.5 -38t46.5 -12h198v248h-198z" />
    <glyph glyph-name="uni0648" unicode="&#x648;" horiz-adv-x="608" 
d="M414 473.5q49 -7.5 101 -25.5v-337q0 -61 -28.5 -132.5t-77.5 -137t-109 -112.5l-63 75q48 39 88 90.5t64 105.5h-150q-63 0 -97.5 22t-49.5 73.5t-15 146.5t20 146t67 72t135 21q66 0 115 -7.5zM371 111q26 0 35.5 10t9.5 37v212h-186q-29 0 -39 -10.5t-10 -40.5v-208
h190z" />
    <glyph glyph-name="uni0649" unicode="&#x649;" horiz-adv-x="859" 
d="M76.5 42q8.5 61 22.5 105l96 -16q-14 -58 -21.5 -101.5t-7.5 -81.5q0 -69 12 -116h282q86 0 131 4.5t64.5 15.5t19.5 33v185l-138 16q-67 8 -102 27.5t-48.5 58t-13.5 106.5q0 78 16.5 121t58 62t117.5 19q105 0 198 -20l-17 -106q-90 15 -166 15q-67 0 -103 -5v-164
l154 -16q56 -6 87 -26t43 -57t12 -100v-73q0 -83 -30 -126.5t-107 -61.5t-229 -18q-144 0 -213.5 14.5t-97.5 56.5t-28 131q0 57 8.5 118z" />
    <glyph glyph-name="uni064A" unicode="&#x64a;" horiz-adv-x="859" 
d="M68 0zM76.5 42q8.5 61 22.5 105l96 -16q-14 -58 -21.5 -101.5t-7.5 -81.5q0 -69 12 -116h282q86 0 131 4.5t64.5 15.5t19.5 33v185l-138 16q-67 8 -102 27.5t-48.5 58t-13.5 106.5q0 78 16.5 121t58 62t117.5 19q105 0 198 -20l-17 -106q-90 15 -166 15q-67 0 -103 -5
v-164l154 -16q56 -6 87 -26t43 -57t12 -100v-73q0 -83 -30 -126.5t-107 -61.5t-229 -18q-144 0 -213.5 14.5t-97.5 56.5t-28 131q0 57 8.5 118zM293 -267zM315.5 -432q-22.5 23 -22.5 40q0 18 22 39.5t40 22.5q18 -1 40 -22.5t22 -39.5q0 -17 -23 -40t-39 -22
q-17 -1 -39.5 22zM315.5 -269q-22.5 23 -22.5 40q0 18 22 39.5t40 22.5q18 -1 40 -22.5t22 -39.5q0 -17 -23 -40t-39 -22q-17 -1 -39.5 22z" />
    <glyph glyph-name="uni064B" unicode="&#x64b;" 
d="M20 585zM20 643l199 54v-59l-199 -53v58zM20 748l199 54v-59l-199 -53v58z" />
    <glyph glyph-name="uni064C" unicode="&#x64c;" 
d="M62 572q-22 0 -32 19t-10 62q0 59 13 109l66 10q-11 -44 -11 -90q0 -32 6 -53l54 15q-7 14 -7 58q0 80 36 119t130 39q22 0 36 -2l1 -214l-260 -69q-12 -3 -22 -3zM273 798l-61 -16v-121l61 16v121z" />
    <glyph glyph-name="uni064D" unicode="&#x64d;" 
d="M20 -25zM20 -229l199 54v-59l-199 -53v58zM20 -79l199 54v-59l-199 -53v58z" />
    <glyph glyph-name="uni064E" unicode="&#x64e;" 
d="M20 643l199 54v-59l-199 -53v58z" />
    </font>
</defs>
</svg>
